<svg width="82" height="87" viewBox="0 0 82 87" fill="none" xmlns="http://www.w3.org/2000/svg"><path d="M36.9597 4.53592C39.235 2.41321 42.765 2.41321 45.0403 4.53592C46.6832 6.06858 49.0518 6.53972 51.1561 5.75242C54.0705 4.66202 57.3318 6.01288 58.6216 8.84474C59.5528 10.8894 61.5609 12.2311 63.8063 12.309C66.9161 12.4169 69.4122 14.913 69.5201 18.0229C69.598 20.2683 70.9398 22.2763 72.9844 23.2076C75.8163 24.4974 77.1671 27.7586 76.0767 30.6731C75.2894 32.7774 75.7606 35.146 77.2932 36.7889C79.416 39.0642 79.416 42.5941 77.2932 44.8695C75.7606 46.5123 75.2894 48.8809 76.0767 50.9852C77.1671 53.8997 75.8163 57.1609 72.9844 58.4507C70.9398 59.382 69.598 61.39 69.5201 63.6354C69.4122 66.7453 66.9161 69.2414 63.8063 69.3493C61.5609 69.4272 59.5528 70.7689 58.6216 72.8136C57.3318 75.6454 54.0705 76.9963 51.1561 75.9059C49.0518 75.1186 46.6832 75.5897 45.0403 77.1224C42.765 79.2451 39.235 79.2451 36.9597 77.1224C35.3168 75.5897 32.9482 75.1186 30.8439 75.9059C27.9295 76.9963 24.6682 75.6454 23.3784 72.8136C22.4472 70.7689 20.4391 69.4272 18.1937 69.3493C15.0839 69.2414 12.5878 66.7453 12.4799 63.6354C12.402 61.39 11.0603 59.382 9.01558 58.4507C6.18372 57.1609 4.83285 53.8997 5.92326 50.9852C6.71056 48.8809 6.23942 46.5123 4.70676 44.8695C2.58404 42.5941 2.58404 39.0642 4.70676 36.7889C6.23942 35.146 6.71056 32.7774 5.92326 30.6731C4.83285 27.7586 6.18371 24.4974 9.01558 23.2076C11.0603 22.2763 12.402 20.2683 12.4799 18.0229C12.5878 14.913 15.0839 12.4169 18.1937 12.309C20.4391 12.2311 22.4472 10.8894 23.3784 8.84474C24.6682 6.01288 27.9295 4.66202 30.8439 5.75242C32.9482 6.53972 35.3168 6.06858 36.9597 4.53592Z" fill="#381FD1"></path><path fill-rule="evenodd" clip-rule="evenodd" d="M39.8248 60.3789V54.4884C43.8562 54.8392 47.8362 53.3874 50.6947 50.5233C55.2483 45.9693 56.0198 38.8606 52.549 33.4359L33.6058 52.3774L29.3826 56.6002C28.5917 56.0159 27.8455 55.3733 27.1504 54.6777C19.5017 47.0297 19.5017 34.6293 27.1504 26.9808C31.1091 23.0136 36.5809 20.9374 42.1751 21.2797V27.1701C38.1437 26.8194 34.1637 28.2712 31.3052 31.1353C26.7516 35.6893 25.9801 42.798 29.4509 48.2227L48.3941 29.2815L52.6174 25.0586C53.4084 25.643 54.1545 26.2856 54.8496 26.9812C62.4983 34.6292 62.4983 47.0296 54.8496 54.6781C50.8909 58.6452 45.419 60.7214 39.8248 60.3789Z" fill="white"></path></svg>