<svg role="img" width="70" height="70" viewBox="0 0 70 70" fill="none" xmlns="http://www.w3.org/2000/svg" class="min-w-[70px]"><title>G2 Reviews Logo</title><path d="M70 35C70 54.334 54.334 70 35 70C15.666 70 0 54.334 0 35C0 15.666 15.666 0 35 0C54.334 0 70 15.68 70 35Z" fill="#FF492C"></path><path d="M50.29 29.266H41.246V28.846C41.246 27.306 41.554 26.032 42.17 25.038C42.786 24.03 43.85 23.148 45.39 22.364L46.09 22.014C47.336 21.384 47.658 20.838 47.658 20.194C47.658 19.424 46.986 18.864 45.908 18.864C44.62 18.864 43.654 19.536 42.982 20.894L41.246 19.158C41.624 18.346 42.24 17.702 43.052 17.184C43.878 16.666 44.788 16.414 45.782 16.414C47.028 16.414 48.106 16.736 48.988 17.408C49.898 18.08 50.346 19.004 50.346 20.166C50.346 22.028 49.296 23.162 47.336 24.17L46.23 24.73C45.054 25.318 44.48 25.85 44.312 26.788H50.29V29.266ZM49.492 32.122H39.594L34.652 40.69H44.55L49.506 49.258L54.448 40.69L49.492 32.122ZM35.506 46.416C29.206 46.416 24.082 41.292 24.082 34.992C24.082 28.692 29.206 23.568 35.506 23.568L39.426 15.378C38.152 15.126 36.85 15 35.506 15C24.46 15 15.5 23.96 15.5 34.992C15.5 46.038 24.446 54.998 35.506 54.998C39.902 54.998 43.976 53.57 47.28 51.162L42.94 43.658C40.952 45.366 38.348 46.416 35.506 46.416Z" fill="white"></path></svg>