<svg width="32" height="32" viewBox="0 0 32 32" fill="none" xmlns="http://www.w3.org/2000/svg"><g clip-path="url(#clipbel)"><path d="M21.334 0.914062L19.4668 6.09103C21.1902 11.7788 21.1902 20.2207 19.4668 25.9087L21.334 31.0851C27.5474 28.888 31.9998 22.9653 31.9998 15.9992C31.9999 9.03445 27.5474 3.11119 21.334 0.914062Z" fill="#D32027"></path><path d="M21.3344 6.0912V0.914237C19.6657 0.324134 17.871 0 16 0C18.4672 0 15.0464 8.36156 21.3344 6.0912Z" fill="#F0C816"></path><path d="M16.0001 31.9985C17.8711 31.9985 19.6658 31.6744 21.3344 31.0842V25.9078C15.1096 25.2867 16.0001 31.9985 16.0001 31.9985Z" fill="#F0C816"></path><path d="M0 15.9967C0 22.986 4.48269 28.9243 10.7283 31.1038V0.890625C4.48269 3.07005 0 9.00838 0 15.9967Z" fill="#151515"></path><path d="M21.334 6.08984V25.9075C23.0577 20.2195 23.0577 11.7775 21.334 6.08984Z" fill="#E73B36"></path><path d="M21.3345 25.909V6.0912C20.2452 2.49525 18.4674 0 16.0002 0C14.1525 0 12.3797 0.317311 10.7285 0.893565V31.1067C12.3797 31.683 14.1524 31.9998 16.0002 31.9998C18.4673 31.9997 20.2451 29.5045 21.3345 25.909Z" fill="#FFD72E"></path></g><defs><clipPath id="clipbel"><rect width="32" height="32" fill="white"></rect></clipPath></defs></svg>