<svg width="32" height="32" viewBox="0 0 32 32" fill="none" xmlns="http://www.w3.org/2000/svg"><path d="M3.31072 6.25781C1.23607 8.95593 0 12.3324 0 15.9995C0 19.6662 1.23634 23.0421 3.31072 25.7407L13.0524 15.999L3.31072 6.25781Z" fill="#0B0B0B"></path><path d="M15.999 31.9977C19.666 31.9977 23.0423 30.7611 25.7407 28.6865L20.7723 23.7188C19.7342 27.9882 18.7492 31.9977 15.999 31.9977Z" fill="#258F44"></path><path d="M15.3583 31.9874C15.3351 31.9864 15.3121 31.9854 15.2891 31.9844C15.3123 31.9854 15.3353 31.9864 15.3583 31.9874Z" fill="#258F44"></path><path d="M20.5105 8.5407L25.7405 3.31099C23.0419 1.23614 19.6658 0 15.999 0C18.7492 0 19.4725 4.27049 20.5105 8.5407Z" fill="#258F44"></path><path d="M15.2891 0.0142183C15.3123 0.013205 15.3353 0.0127321 15.3583 0.0117188C15.3353 0.0126645 15.3123 0.013205 15.2891 0.0142183Z" fill="#258F44"></path><path d="M28.6888 6.25781L21.248 13.6983C21.4425 16.019 21.5151 16.0513 21.3205 18.3725L28.6888 25.7407C30.7634 23.0421 31.9995 19.6662 31.9995 15.9995C31.9998 12.3324 30.7634 8.95593 28.6888 6.25781Z" fill="#0B0B0B"></path><path d="M20.7725 23.7188L25.7407 28.6865C26.8467 27.8364 27.838 26.8451 28.6883 25.7393L21.3201 18.3711C21.1698 20.164 21.155 22.1461 20.7725 23.7188Z" fill="#F3C515"></path><path d="M21.8166 13.1281L28.689 6.25627C27.8387 5.14997 26.8473 4.15865 25.7413 3.30859L20.8271 8.22248C21.2096 9.79485 21.6663 11.3344 21.8166 13.1281Z" fill="#F3C515"></path><path d="M16.0001 31.9978C15.7853 31.9978 15.5718 31.9927 15.3594 31.9844C15.5747 31.9924 15.7889 31.9978 16.0001 31.9978Z" fill="white"></path><path d="M15.3594 0.0133761C15.5718 0.0050667 15.7856 0 16.0001 0C15.7891 0 15.5749 0.00553959 15.3594 0.0133761Z" fill="white"></path><path d="M21.6822 24.6275L16.0002 18.9453L6.25879 28.687C8.78154 30.6267 11.898 31.833 15.2898 31.9816C15.3131 31.9826 15.336 31.9836 15.3591 31.9846C15.5715 31.9929 15.7853 31.998 15.9998 31.998C18.7501 31.9977 20.6438 28.8972 21.6822 24.6275Z" fill="#339846"></path><path d="M16.0003 13.0519L21.6822 7.37023C20.6439 3.10028 18.7502 0 16 0C15.7853 0 15.5718 0.0050667 15.3593 0.0133761C15.3361 0.0143894 15.3131 0.0148623 15.2901 0.0158757C11.898 0.164161 8.7818 1.37071 6.25879 3.31072L16.0003 13.0519Z" fill="#339846"></path><path d="M22.481 19.5346C22.6755 17.2134 22.6755 14.7899 22.481 12.4688L18.9482 16.0018L22.481 19.5346Z" fill="#151515"></path><path d="M16.0006 13.0498L6.25919 3.30859C5.15317 4.15872 4.16185 5.15004 3.31152 6.25627L13.0532 15.9974L3.31152 25.7392C4.16185 26.8449 5.15297 27.8362 6.25919 28.6868L16.0006 18.9451L21.6826 24.6273C22.0651 23.0547 22.3306 21.3234 22.4809 19.5302L18.9481 15.9974L22.4809 12.4647C22.3306 10.6715 22.0651 8.9402 21.6826 7.3681L16.0006 13.0498Z" fill="#F8CD1B"></path></svg>