<svg width="32" height="32" viewBox="0 0 32 32" fill="none" xmlns="http://www.w3.org/2000/svg"><g clip-path="url(#clipind)"><path d="M16.0003 31.9986C24.8365 31.9986 31.9996 24.8355 31.9996 15.9993C31.9996 7.16314 24.8365 0 16.0003 0C7.16412 0 0.000976562 7.16314 0.000976562 15.9993C0.000976562 24.8355 7.16412 31.9986 16.0003 31.9986Z" fill="white"></path><path d="M31.0857 10.668H21.2275C21.6558 14.0858 21.6583 17.8518 21.2358 21.2739H31.1067C31.6829 19.623 31.9997 17.8501 31.9997 16.0028C32 14.1313 31.6758 12.3366 31.0857 10.668Z" fill="#EFECEC"></path><path d="M21.2273 10.6621H31.0852C31.0837 10.6571 31.0822 10.6528 31.0802 10.6482C29.0326 4.87439 23.7652 0.626391 17.4365 0.0625C19.8858 1.40498 20.6013 5.65831 21.2273 10.6621Z" fill="#E97E24"></path><path d="M17.4365 31.9358C23.7765 31.3709 29.0513 27.1082 31.091 21.3189C31.0963 21.3035 31.1008 21.2883 31.1064 21.2734H21.2353C20.6141 26.3043 19.8956 30.5877 17.4365 31.9358Z" fill="#258F44"></path><path d="M0 16.0028C0 17.8503 0.317311 19.623 0.893025 21.2739H22.0592C22.4822 17.8515 22.4791 14.0858 22.0514 10.668H0.914305C0.324134 12.3367 0 14.1314 0 16.0028Z" fill="#EFEFEF"></path><path d="M0.919129 10.6514C0.917643 10.6559 0.916089 10.6602 0.914062 10.6653H22.0512C21.4247 5.66141 19.8857 1.40814 17.4367 0.0656646C16.963 0.0237122 16.484 7.69995e-10 15.9995 7.69995e-10C9.03924 -6.75554e-05 3.12031 4.44519 0.919129 10.6514Z" fill="#EA8634"></path><path d="M22.0598 21.2695H0.893555C0.898892 21.2845 0.903891 21.2996 0.908957 21.315C3.10136 27.5371 9.0288 31.9981 16.0002 31.9981C16.4848 31.9981 16.9637 31.9743 17.4374 31.9319C19.8968 30.5838 21.4385 26.3005 22.0598 21.2695Z" fill="#359846"></path></g><defs><clipPath id="clipind"><rect width="32" height="32" fill="white"></rect></clipPath></defs></svg>