<svg width="32" height="32" viewBox="0 0 32 32" fill="none" xmlns="http://www.w3.org/2000/svg"><g clip-path="url(#clipmal)"><path d="M16.0013 31.9986C24.8375 31.9986 32.0006 24.8355 32.0006 15.9993C32.0006 7.16314 24.8375 0 16.0013 0C7.1651 0 0.00195312 7.16314 0.00195312 15.9993C0.00195312 24.8355 7.1651 31.9986 16.0013 31.9986Z" fill="white"></path><path d="M31.0852 10.6661C31.0835 10.661 31.0819 10.6568 31.0802 10.6522C29.0323 4.8783 23.7652 0.630297 17.4365 0.0664062C19.8853 1.40888 19.8956 30.5865 17.4365 31.9345C23.7765 31.3696 29.0513 27.107 31.091 21.3177C31.0962 21.3023 31.1008 21.2871 31.1064 21.2722C31.6824 19.6213 31.9994 17.8483 31.9994 16.0011C31.9997 14.1294 31.6753 12.3347 31.0852 10.6661Z" fill="#C42B27"></path><path d="M22.0513 10.6638C21.4248 5.65992 19.8857 1.40665 17.437 0.0641783C16.9818 0.0237798 16.5218 0.00155379 16.0566 0V31.9968C16.5218 31.9947 16.9818 31.9725 17.437 31.9321C19.8961 30.5841 21.4382 26.3007 22.0594 21.2698C22.4821 17.8473 22.4793 14.0816 22.0513 10.6638Z" fill="#CC3434"></path><path d="M15.9996 0C9.03941 0 3.12021 4.44533 0.919303 10.6514C0.917547 10.656 0.915993 10.6603 0.914237 10.6654C0.324134 12.3339 0 14.1286 0 16.0001C0 17.8477 0.317041 19.6203 0.893024 21.2713C0.898361 21.2862 0.903157 21.3013 0.908427 21.3167C3.10076 27.5388 9.02799 31.9997 15.9996 31.9997C16.0185 31.9997 16.0372 31.9982 16.0567 31.9982V0.00148624C16.0373 0.00101334 16.0186 0 15.9996 0Z" fill="#E9E9EA"></path></g><defs><clipPath id="clipmal"><rect width="32" height="32" fill="white"></rect></clipPath></defs></svg>