<svg width="32" height="32" viewBox="0 0 32 32" fill="none" xmlns="http://www.w3.org/2000/svg"><path d="M16.0127 30.3365L11.2433 28.4822L16.0127 26.6803V26.6709L11.2433 24.9217L16.0127 23.2258V23.2167L11.2433 21.3618L16.0127 19.6659V19.6566L11.2433 17.8013L16.0127 16.1059V16.0961L11.2433 14.2412L16.0127 12.5453V12.536L11.2433 10.6812L16.0127 8.98477V8.97544L11.2433 7.12063L16.0127 5.42524V5.41571L11.2433 3.56042L16.0127 1.8645V1.85517C15.8286 1.78573 13.6827 0.973974 12.3076 0.433594C5.25221 2.10148 0 8.4354 0 16.0009C0 23.6269 5.33733 30.0023 12.4789 31.6069C13.9632 31.038 15.8455 30.4018 16.0127 30.3458V30.3365Z" fill="#E1E1E1"></path><path d="M16.0131 0C16.0086 0 16.0045 0 16 0V32C16.0045 32 16.0086 31.9995 16.0131 31.9995C24.8438 31.9927 32.0001 24.8322 32.0001 16.0002C32.0001 7.16736 24.8438 0.00729605 16.0131 0Z" fill="#70193C"></path><path d="M16.0004 0C14.7291 0 13.494 0.152609 12.3084 0.432764C13.6835 0.973144 15.8293 1.78483 16.0135 1.85435V1.86367L11.2441 3.55959L16.0135 5.41489V5.42421L11.2441 7.11959L16.0135 8.97441V8.98373L11.2441 10.6799L16.0135 12.5347V12.5441L11.2441 14.24L16.0135 16.0948V16.1047L11.2441 17.8001L16.0135 19.6554V19.6647L11.2441 21.3606L16.0135 23.2154V23.2247L11.2441 24.9207L16.0135 26.6699V26.6792L11.2441 28.4812L16.0135 30.3355V30.3448C15.8463 30.4012 13.9639 31.037 12.4797 31.6059C13.6131 31.8611 14.7903 31.9998 16.0006 31.9998C24.8371 31.9997 24.8371 0 16.0004 0Z" fill="#7D224B"></path></svg>