<svg width="32" height="32" viewBox="0 0 32 32" fill="none" xmlns="http://www.w3.org/2000/svg"><g clip-path="url(#clipden)"><path d="M16.0012 32.0025C24.8374 32.0025 32.0005 24.8394 32.0005 16.0032C32.0005 7.16703 24.8374 0.00390625 16.0012 0.00390625C7.16508 0.00390625 0.00195312 7.16703 0.00195312 16.0032C0.00195312 24.8394 7.16508 32.0025 16.0012 32.0025Z" fill="white"></path><path d="M31.0849 10.6659C31.0831 10.6609 31.0816 10.6566 31.0798 10.652C29.032 4.87829 23.7649 0.630296 17.4365 0.0664062C19.8853 1.40888 20.6004 5.66221 21.227 10.666C21.655 14.0839 21.6578 17.8499 21.2351 21.272C20.6139 26.3029 19.8957 30.5862 17.4366 31.9343C23.7766 31.3694 29.0513 27.1067 31.091 21.3174C31.0963 21.302 31.1009 21.2869 31.1064 21.272C31.6824 19.621 31.9994 17.8481 31.9994 16.0008C31.9992 14.1293 31.675 12.3346 31.0849 10.6659Z" fill="#BE2126"></path><path d="M22.0511 10.6653C21.4248 5.66146 19.8858 1.40821 17.4368 0.065732C16.9631 0.0237797 16.4841 0 15.9996 0C9.0394 0 3.12028 4.44539 0.919302 10.6514C0.917546 10.6559 0.915992 10.6603 0.914236 10.6653C0.324134 12.334 0 14.1287 0 16.0001C0 17.8476 0.31704 19.6203 0.893023 21.2712C0.89836 21.2862 0.903156 21.3013 0.908426 21.3167C3.10075 27.5387 9.02798 31.9997 15.9996 31.9997C16.4841 31.9997 16.9631 31.9759 17.4367 31.9335C19.8959 30.5854 21.4379 26.3021 22.0591 21.2712C22.4818 17.8489 22.4791 14.0832 22.0511 10.6653Z" fill="#CD2227"></path><path d="M31.7286 13.0781H20.8359C20.9565 14.9127 20.9648 16.7966 20.8567 18.636H31.7804C31.9234 17.7789 31.9997 16.8992 31.9997 16.0011C31.9997 15.0018 31.9047 14.0259 31.7286 13.0781Z" fill="#E4E4E4"></path><path d="M22.2767 13.0792H14.5409V0.0703125C12.5618 0.248931 10.6878 0.788771 8.98299 1.62275V13.0796H0.271102C0.0949837 14.0273 0 15.0033 0 16.0023C0 16.9004 0.0762707 17.7801 0.219287 18.6373H8.98279V30.3811C10.6876 31.215 12.5616 31.7549 14.5407 31.9337V18.6371H22.2972C22.4056 16.7975 22.397 14.9136 22.2767 13.0792Z" fill="#F3F4F5"></path></g><defs><clipPath id="clipden"><rect width="32" height="32" fill="white"></rect></clipPath></defs></svg>