<svg width="32" height="32" viewBox="0 0 32 32" fill="none" xmlns="http://www.w3.org/2000/svg"><path d="M16.0082 0C16.0037 0 15.9996 0 15.9951 0V31.9995C15.9996 31.9995 16.0037 31.9991 16.0082 31.9991C24.8389 31.9922 31.9951 24.8317 31.9951 16.0001C31.9951 7.16731 24.8389 0.007296 16.0082 0Z" fill="#CD2029"></path><path d="M15.9936 0C14.7223 0 13.4872 0.152608 12.3016 0.432761C13.6767 0.973138 15.8225 1.78482 16.0067 1.85433V1.86366L11.2374 3.55957L16.0067 5.41485V5.42417L11.2374 7.11955L16.0067 8.97435V8.98368L11.2374 10.6801L16.0067 12.5349V12.5442L11.2374 14.2401L16.0067 16.0949V16.1048L11.2374 17.8002L16.0067 19.6554V19.6648L11.2374 21.3607L16.0067 23.2155V23.2248L11.2374 24.9207L16.0067 26.6699V26.6793L11.2373 28.4814L16.0067 30.3357V30.345C15.8394 30.4014 13.9571 31.0372 12.4729 31.6061C13.6062 31.8613 14.7834 32 15.9938 32C24.8303 31.9995 24.8303 0 15.9936 0Z" fill="#DA1E34"></path><path d="M16.0185 30.312L11.2491 28.4578L16.0185 26.6562V26.6464L11.2491 24.8972L16.0185 23.2018V23.1919L11.2491 21.3374L16.0185 19.642V19.6322L11.2491 17.7769L16.0185 16.0815V16.0716L11.2491 14.2174L16.0185 12.5215V12.5116L11.2491 10.6568L16.0185 8.96087V8.95101L11.2491 7.09647L16.0185 5.40157V5.39171L11.2491 3.53643L16.0185 1.84105V1.83119C15.8343 1.76174 13.6885 0.950533 12.3134 0.410156C5.25803 2.07743 0.00585938 8.41137 0.00585938 15.9769C0.00585938 23.6027 5.34315 29.9786 12.4847 31.583C13.9689 31.0136 15.8513 30.378 16.0185 30.3219V30.312Z" fill="#EFEFEF"></path></svg>