<svg width="32" height="32" viewBox="0 0 32 32" fill="none" xmlns="http://www.w3.org/2000/svg"><g clip-path="url(#clipegy)"><path d="M16.0013 31.9986C24.8375 31.9986 32.0006 24.8355 32.0006 15.9993C32.0006 7.16314 24.8375 0 16.0013 0C7.1651 0 0.00195312 7.16314 0.00195312 15.9993C0.00195312 24.8355 7.1651 31.9986 16.0013 31.9986Z" fill="white"></path><path d="M31.0858 10.6641H21.2275C21.6558 14.0819 21.6583 17.8479 21.2358 21.2701H31.1067C31.683 19.6192 31.9998 17.8462 31.9998 15.9989C32 14.1274 31.6759 12.3327 31.0858 10.6641Z" fill="#EFECEC"></path><path d="M21.2277 10.6662H31.0857C31.0843 10.6611 31.0827 10.6568 31.0807 10.6523C29.0333 4.8783 23.766 0.630297 17.4375 0.0664062C19.8863 1.40895 20.6017 5.66222 21.2277 10.6662Z" fill="#C42B27"></path><path d="M17.4375 31.9319C23.7776 31.367 29.0523 27.1044 31.0921 21.315C31.0974 21.2996 31.1019 21.2845 31.1075 21.2695H21.2363C20.6151 26.3004 19.8966 30.5838 17.4375 31.9319Z" fill="#0B0B0B"></path><path d="M0 15.9989C0 17.8464 0.317311 19.6192 0.893025 21.2701H22.0594C22.4823 17.8477 22.4792 14.0819 22.0515 10.6641H0.914305C0.324134 12.3327 0 14.1274 0 15.9989Z" fill="#EFEFEF"></path><path d="M0.919129 10.6515C0.917643 10.656 0.916089 10.6604 0.914062 10.6654H22.0514C21.4249 5.66154 19.8858 1.40821 17.4367 0.0657321C16.9631 0.0237798 16.4841 0 15.9996 0C9.03931 0 3.12038 4.44533 0.919129 10.6515Z" fill="#CC3434"></path><path d="M22.06 21.2695H0.893555C0.898892 21.2845 0.903891 21.2996 0.908957 21.315C3.10136 27.537 9.02887 31.998 16.0003 31.998C16.4848 31.998 16.9638 31.9742 17.4375 31.9318C19.8969 30.5838 21.4387 26.3004 22.06 21.2695Z" fill="#151515"></path><path d="M19.1221 19.7189C18.9286 19.6671 18.6416 19.7096 18.4102 19.6957C18.3662 19.7214 18.3718 19.7972 18.3521 19.8477C18.3749 19.8947 18.4221 19.8689 18.469 19.9058C18.5421 19.9758 18.5918 20.0705 18.7025 20.1042C18.6072 20.204 18.6098 20.4007 18.469 20.4546C18.4928 20.684 18.3437 20.7244 18.1186 20.7694C17.0414 20.9842 15.3662 21.0058 14.221 20.8507C14.0788 20.832 13.6614 20.7699 13.5553 20.6762C13.5133 20.6383 13.4881 20.5819 13.4972 20.4774C13.362 20.4101 13.3605 20.2093 13.2524 20.1156C13.4034 20.0643 13.4325 19.8915 13.6028 19.8589C13.6078 19.7875 13.577 19.7518 13.5672 19.6957C13.3269 19.7086 13.0349 19.6687 12.832 19.719C12.8507 19.458 12.8568 19.1614 12.8791 18.8555C12.9086 18.4465 12.9043 17.9672 12.9371 17.5602C12.9543 17.3525 12.9475 17.1378 12.9609 16.9301C12.9852 16.5357 12.9678 16.1442 12.9961 15.7746C13.0261 15.3759 13.0122 14.95 13.0425 14.573C13.0736 14.1822 13.1812 13.87 13.6375 13.9073C14.1784 13.9523 14.5182 14.4053 15.1078 14.4091C15.3817 14.2398 15.581 13.5822 15.5044 13.0906C15.4693 12.8632 15.2285 12.5345 14.9913 12.6588C14.9562 12.2753 15.3215 12.3268 15.5628 12.4486C15.6363 12.4026 15.658 12.338 15.7379 12.3203C15.9357 12.2763 16.1898 12.3663 16.2866 12.4254C16.4703 12.5378 16.5554 12.7872 16.5551 13.1025C16.5546 13.2657 16.5182 13.4281 16.5313 13.5923C16.5604 13.9407 16.6789 14.2239 16.8234 14.3977C17.3711 14.448 17.7738 13.9601 18.3051 13.9073C18.5312 13.8851 18.7197 13.9699 18.8187 14.1175C18.9698 14.6781 18.9218 15.2973 18.9703 15.9264C18.9994 16.3033 18.9822 16.6972 19.0054 17.0819C19.0582 17.9517 19.0842 18.8251 19.1221 19.7189ZM16.4962 13.6155C16.4724 13.2988 16.5604 12.9592 16.4497 12.6702C16.3979 12.6209 16.3679 12.5496 16.2977 12.5186C16.2396 12.5186 16.1812 12.5186 16.1231 12.5186C16.0357 12.5656 16.0036 12.6626 15.9129 12.6818C15.6972 12.7278 15.68 12.5229 15.5163 12.4602C15.4739 12.4435 15.4163 12.4529 15.3642 12.4364C15.2078 12.3887 15.1152 12.3329 15.0376 12.5534C15.3233 12.5367 15.5785 12.6289 15.6445 12.8686C15.4812 12.8232 15.527 12.9697 15.5393 13.0664C15.5995 13.5474 15.4923 13.935 15.3292 14.1988C15.2516 14.3245 15.1521 14.4228 15.0958 14.5373C15.2655 14.5057 15.4189 14.5155 15.5043 14.4085C15.6187 14.266 15.594 13.961 15.6675 13.7902C15.6607 14.1525 15.5579 14.4198 15.3878 14.6186C15.8036 14.56 15.8759 14.2131 15.9128 13.7902C15.9433 13.9999 15.8875 14.2245 15.8191 14.3736C15.8729 14.4408 15.9035 14.531 15.9828 14.5724C16.0484 14.5176 16.0972 14.4456 16.1344 14.3622C16.0738 14.2246 16.0018 13.9745 16.0644 13.7903C16.0591 14.2392 16.1819 14.5601 16.5666 14.6187C16.4118 14.4229 16.2622 14.0985 16.3094 13.7784C16.3228 14.0295 16.3835 14.2334 16.461 14.4203C16.5682 14.4886 16.7033 14.5285 16.87 14.5373C16.6837 14.3103 16.5263 14.0084 16.4962 13.6155ZM15.7615 12.5537C15.7615 12.5691 15.7615 12.5848 15.7615 12.6002C15.7896 12.5957 15.7868 12.6219 15.8194 12.6121C15.8297 12.5987 15.8353 12.581 15.8313 12.554C15.8161 12.5381 15.7762 12.5381 15.7615 12.5537ZM13.5091 13.9422C13.2511 13.9624 13.1119 14.1782 13.1125 14.4326C13.2254 14.3937 13.333 14.2881 13.451 14.2924C13.3878 16.0484 13.3108 17.6461 13.2408 19.3806C13.1393 19.4764 13.0094 19.5453 12.9374 19.6722C13.1476 19.6722 13.3578 19.6722 13.5675 19.6722C13.6006 19.3938 13.9134 19.3367 14.1744 19.415C14.2981 18.9868 14.424 18.5604 14.5367 18.1198C14.4207 18.1908 14.3616 18.3181 14.2446 18.3883C14.2866 17.2653 14.3434 16.1725 14.3848 15.0275C14.5649 15.1677 14.8575 15.1761 15.1432 15.1327C15.4852 15.0804 15.7811 14.8909 15.9948 14.759C16.2189 14.9578 16.6294 15.1241 17.0452 15.1556C17.3042 15.1753 17.4237 15.091 17.5821 15.0505C17.6064 16.1947 17.6882 17.3138 17.7105 18.3999C17.6152 18.312 17.5366 18.2079 17.4308 18.1311C17.5339 18.5727 17.668 18.9833 17.7807 19.415C18.0525 19.3292 18.3526 19.4037 18.3993 19.6722C18.605 19.6644 18.8424 19.6876 19.0289 19.6603C18.9554 19.5299 18.7742 19.4926 18.726 19.3569C18.6712 19.2041 18.711 18.9712 18.7027 18.7731C18.6385 17.3619 18.5489 15.6951 18.5158 14.281C18.6479 14.3121 18.7318 14.3917 18.8543 14.4326C18.828 14.1515 18.7113 13.9599 18.4458 13.9422C17.8418 13.9018 17.4934 14.4574 16.8823 14.444C16.8823 14.518 17.0013 14.5347 16.9874 14.5842C16.8705 14.5759 16.6974 14.567 16.5789 14.5261C16.5675 14.5907 16.685 14.6203 16.6954 14.7006C16.4634 14.6612 16.2894 14.5634 16.1471 14.4326C16.0928 14.5101 16.0441 14.594 15.972 14.6542C15.9104 14.5842 15.8723 14.4889 15.7969 14.4326C15.6742 14.5743 15.5034 14.668 15.2606 14.6892C15.2947 14.6301 15.3652 14.6073 15.3771 14.526C15.2695 14.5634 15.0904 14.5881 14.9686 14.573C15.0047 14.5306 15.0663 14.5149 15.0737 14.4442C14.4934 14.4603 14.0894 13.8975 13.5091 13.9422ZM14.6409 15.2031C14.6642 16.4824 15.152 17.3992 15.9943 17.8987C16.7971 17.3707 17.3067 16.488 17.3132 15.2031C16.9017 15.1978 16.6117 15.1379 16.3565 15.028C16.213 14.9664 16.0748 14.8529 15.9599 14.8178C15.6426 15.0682 15.2083 15.2026 14.6409 15.2031ZM14.6642 16.0547C14.6533 16.6217 14.5626 17.3138 14.6061 17.8987C14.725 17.5834 14.6919 17.1837 14.7112 16.7669C14.7241 16.4878 14.7812 16.2053 14.676 16.0199C14.6765 16.0357 14.6704 16.0451 14.6642 16.0547ZM17.2551 17.1052C17.2551 17.419 17.2705 17.7248 17.3716 17.91C17.3835 17.2893 17.3054 16.6438 17.3022 16.0309C17.2868 16.0305 17.286 16.0166 17.267 16.0196C17.1859 16.3276 17.2551 16.7247 17.2551 17.1052ZM14.8511 17.7703C14.9516 17.6569 15.0638 17.5551 15.1545 17.4312C15.1391 17.1786 15.0779 16.9715 14.9443 16.8366C14.9079 17.1362 14.6196 17.523 14.8511 17.7703ZM16.8115 17.4432C16.9211 17.5443 17.0148 17.7221 17.1381 17.7704C17.3122 17.4866 17.061 17.1822 17.0335 16.8599C17.0181 16.8594 17.0169 16.8445 16.9979 16.8485C16.882 16.9922 16.8141 17.185 16.8115 17.4432ZM15.2477 17.9687C15.3553 17.8542 15.4485 17.7254 15.5392 17.595C15.3942 17.4796 15.2886 17.3247 15.1545 17.1978C15.1845 17.4558 15.2015 17.7264 15.2477 17.9687ZM16.4265 17.6064C16.5286 17.7259 16.6006 17.8756 16.7299 17.9687C16.7537 17.716 16.7729 17.4594 16.8112 17.2216C16.8102 17.2072 16.8077 17.1941 16.788 17.1978C16.6802 17.3469 16.5515 17.4753 16.4265 17.6064ZM14.816 17.8398C14.8016 17.7648 14.7621 17.7151 14.746 17.642C14.6454 17.7762 14.6336 17.977 14.5827 18.1551C14.564 18.2203 14.5191 18.2736 14.5246 18.342C14.6583 18.2847 14.7131 18.149 14.8513 18.0967C14.876 18.2122 14.9336 18.2941 14.9678 18.4001C15.0759 18.3483 15.0708 18.1842 15.1666 18.12C15.2194 18.3079 15.2747 18.4939 15.3411 18.6687C15.4654 18.5636 15.6072 18.4751 15.6445 18.2834C15.5745 18.124 15.5104 17.9588 15.4462 17.7936C15.3515 17.8582 15.2913 18.0199 15.2128 18.0621C15.1916 17.8691 15.2045 17.6427 15.1309 17.502C15.0348 17.6233 14.9359 17.7415 14.816 17.8398ZM16.7531 18.0732C16.6682 17.9868 16.6096 17.8749 16.5197 17.7936C16.4861 17.8701 16.4467 17.9456 16.4146 18.027C16.3825 18.1083 16.3249 18.2086 16.3214 18.2836C16.3125 18.4667 16.5144 18.5524 16.6248 18.6689C16.676 18.4867 16.6988 18.276 16.7764 18.1202C16.8489 18.2114 16.8815 18.3422 16.9865 18.4003C17.0404 18.3026 17.0777 18.1881 17.1267 18.0851C17.2265 18.1725 17.3187 18.2672 17.4301 18.3422C17.3793 18.1315 17.3157 17.8344 17.2199 17.6303C17.1962 17.7074 17.1651 17.7773 17.1267 17.84C17.0181 17.7349 16.9357 17.603 16.8114 17.5134C16.7764 17.6844 16.7622 17.8764 16.7531 18.0732ZM15.5627 17.6301C15.3738 17.7648 15.5835 18.0381 15.6564 18.1907C15.6895 18.0561 15.7201 17.9194 15.7496 17.7817C15.6855 17.7332 15.6239 17.6819 15.5627 17.6301ZM16.2163 17.7933C16.2515 17.9255 16.2532 18.0909 16.3214 18.1905C16.3866 18.0528 16.4349 17.899 16.496 17.7583C16.4629 17.7101 16.4417 17.6491 16.3795 17.6299C16.3517 17.7105 16.2489 17.717 16.2163 17.7933ZM14.8043 18.1432C14.7127 18.2385 14.6242 18.3368 14.5009 18.4004C14.4196 18.6358 14.5878 18.8357 14.6642 19.0186C14.7703 18.9415 14.8158 18.8039 14.9213 18.7271C14.9638 18.8638 14.9928 19.0133 15.0615 19.1237C15.176 19.0434 15.2416 18.8534 15.3526 18.8089C15.3783 18.9352 15.3768 19.0881 15.4463 19.1707C15.4877 18.9476 15.541 18.7364 15.586 18.5169C15.4917 18.5361 15.423 18.6801 15.3293 18.7389C15.2647 18.5702 15.2227 18.3792 15.1547 18.2135C15.0631 18.2777 15.0502 18.4206 14.9678 18.4936C14.9203 18.3698 14.8867 18.2327 14.8043 18.1432ZM16.9747 18.4936C16.908 18.3969 16.8686 18.2736 16.7645 18.2135C16.7226 18.3891 16.6748 18.5594 16.6367 18.7389C16.5394 18.6831 16.4743 18.5356 16.3795 18.5169C16.4266 18.7458 16.453 18.9956 16.5428 19.182C16.5619 19.0458 16.5852 18.9132 16.6246 18.7973C16.7298 18.8984 16.7845 19.0494 16.9161 19.1239C16.9528 18.9852 17.0025 18.8605 17.0445 18.7273C17.1433 18.8117 17.19 18.9473 17.3017 19.0188C17.3663 18.8313 17.5306 18.6565 17.4646 18.4125C17.3434 18.3354 17.2529 18.2276 17.138 18.1437C17.07 18.2463 17.0454 18.3926 16.9747 18.4936ZM15.7032 19.4152C15.6431 19.4488 15.6007 19.5002 15.5395 19.5322C15.5148 19.5031 15.4428 19.4079 15.4231 19.4503C15.4069 19.4968 15.4049 19.5569 15.388 19.6024C15.4994 19.6127 15.7197 19.5698 15.7727 19.6724C15.9306 19.6506 16.0579 19.7019 16.1812 19.6724C16.2272 19.661 16.2631 19.6112 16.3096 19.6024C16.3964 19.5852 16.4808 19.6178 16.5667 19.6024C16.5508 19.5516 16.5632 19.4735 16.5311 19.4391C16.4546 19.4361 16.468 19.5231 16.3914 19.5205C16.3515 19.4672 16.2795 19.4454 16.2394 19.3921C16.1949 19.0675 16.1669 18.7254 16.0997 18.4235C16.0731 18.7461 16.1471 19.068 16.1342 19.4154C16.0716 19.4692 16.0416 19.5561 15.971 19.6023C15.9445 19.5242 15.8384 19.4843 15.819 19.3807C15.7682 19.0955 15.9251 18.6534 15.8546 18.4235C15.7891 18.7389 15.7747 19.106 15.7032 19.4152ZM14.2092 19.4271C14.259 19.4587 14.3168 19.4829 14.4075 19.4736C14.484 19.3834 14.5363 19.2682 14.6291 19.1939C14.6705 19.3197 14.714 19.444 14.7698 19.5557C14.7964 19.5557 14.8241 19.5557 14.8511 19.5557C14.9143 19.4791 14.9494 19.374 15.0144 19.299C15.0553 19.3902 15.075 19.5029 15.1189 19.5905C15.1722 19.6118 15.2586 19.5989 15.3291 19.6024C15.4471 19.4026 15.4011 19.0853 15.3178 18.8792C15.2106 18.9744 15.1475 19.1131 15.0376 19.2058C14.9901 19.0706 14.973 18.9049 14.8855 18.8092C14.8042 18.9019 14.7312 19.004 14.6526 19.1007C14.5697 18.9542 14.5465 18.7475 14.4305 18.6338C14.3681 18.909 14.2887 19.1682 14.2092 19.4271ZM17.3019 19.1004C17.221 19.0021 17.1627 18.8809 17.0566 18.8089C16.9882 18.9229 16.9775 19.0956 16.9045 19.2055C16.8148 19.1045 16.7337 18.9337 16.6248 18.8903C16.571 19.1285 16.5005 19.4033 16.6367 19.6022C16.7034 19.5991 16.7853 19.611 16.8351 19.5903C16.8889 19.5084 16.8977 19.3811 16.9515 19.2988C17.0008 19.3856 17.0536 19.4685 17.1031 19.5554C17.1347 19.5554 17.1658 19.5554 17.1964 19.5554C17.2486 19.4327 17.2848 19.2934 17.3484 19.1818C17.4116 19.2937 17.4871 19.3929 17.57 19.4852C17.6352 19.4685 17.7176 19.4692 17.7451 19.4152C17.666 19.1635 17.6001 18.899 17.5235 18.6454C17.5116 18.6454 17.5003 18.6454 17.4884 18.6454C17.4332 18.8039 17.3681 18.9529 17.3019 19.1004ZM14.4426 19.4973C14.5409 19.5087 14.6154 19.5423 14.7227 19.5438C14.6858 19.4445 14.6679 19.3263 14.5944 19.2641C14.555 19.3526 14.4726 19.3991 14.4426 19.4973ZM17.2432 19.5436C17.3099 19.5494 17.4223 19.5067 17.5118 19.4971C17.5029 19.4267 17.412 19.3413 17.3602 19.2755C17.2867 19.3303 17.2713 19.444 17.2432 19.5436ZM14.8976 19.5673C14.9359 19.5911 15.0161 19.5736 15.0727 19.5792C15.0504 19.5115 15.0545 19.4183 14.9913 19.3923C14.9567 19.4473 14.9157 19.4953 14.8976 19.5673ZM16.8934 19.5792C16.9477 19.5792 17.0025 19.5792 17.0566 19.5792C17.0412 19.4928 17.0121 19.4208 16.9396 19.3923C16.9368 19.4617 16.8767 19.5274 16.8934 19.5792ZM18.0254 19.4152C17.7526 19.4749 17.3979 19.5782 17.0568 19.6141C16.7943 19.6411 16.5594 19.6492 16.3098 19.6373C16.2413 19.7113 16.2767 19.7962 16.3216 19.8707C16.5588 19.9063 16.8254 19.8899 17.0568 19.8588C17.0439 19.6112 17.338 19.5498 17.3716 19.8123C17.6237 19.757 17.9059 19.7315 18.1067 19.6254C18.1088 19.5269 18.1083 19.4296 18.0254 19.4152ZM14.6879 19.5905C14.4876 19.562 14.2177 19.4673 14.0341 19.4273C13.93 19.4046 13.8989 19.4233 13.8595 19.4738C13.8595 19.5286 13.8595 19.5834 13.8595 19.6375C14.0743 19.7259 14.3383 19.7653 14.5946 19.8126C14.6164 19.5491 14.9124 19.5984 14.8976 19.8591C15.1512 19.8897 15.3733 19.9066 15.6332 19.871C15.6851 19.7891 15.7191 19.7288 15.6565 19.6376C15.3444 19.6444 15.0653 19.6451 14.6879 19.5905ZM13.6261 19.7305C13.707 19.7098 13.7696 19.6719 13.8244 19.6254C13.8191 19.5686 13.8363 19.4887 13.8125 19.4503C13.6816 19.4685 13.5884 19.5835 13.6261 19.7305ZM18.1419 19.6373C18.2005 19.6757 18.2598 19.7144 18.3402 19.7305C18.3678 19.5928 18.2844 19.4685 18.1538 19.4504C18.1295 19.4923 18.1472 19.5767 18.1419 19.6373ZM14.746 19.9521C14.7712 19.9231 14.8071 19.9046 14.8392 19.8821C14.8475 19.7884 14.8357 19.7148 14.7927 19.6724C14.5876 19.6438 14.5954 19.9293 14.746 19.9521ZM17.115 19.8707C17.1316 19.9111 17.1854 19.9199 17.2314 19.952C17.2792 19.9258 17.3019 19.8745 17.3365 19.8356C17.3307 19.5797 17.0371 19.6843 17.115 19.8707ZM14.5709 19.8475C14.2602 19.8371 13.9472 19.6191 13.6723 19.7542C13.6634 19.811 13.6215 19.8351 13.6372 19.9172C13.5056 19.9033 13.354 20.0786 13.3456 20.1392C13.3274 20.2718 13.4596 20.3681 13.532 20.4545C13.5237 20.5364 13.5393 20.5947 13.5672 20.6404C14.555 20.9676 16.1872 20.9744 17.4065 20.8392C17.7647 20.7993 18.3356 20.7627 18.4337 20.5591C18.4337 20.5126 18.4337 20.4659 18.4337 20.4189C18.563 20.3848 18.5837 20.2428 18.6201 20.1155C18.5165 20.0478 18.4814 19.9122 18.3167 19.9058C18.3493 19.8588 18.2939 19.8161 18.2935 19.7656C18.148 19.6419 17.9741 19.7325 17.7685 19.777C17.4858 19.8386 17.3006 19.8391 17.2312 20.0458C17.2021 19.9738 17.1324 19.9422 17.0796 19.8937C16.8565 19.9263 16.563 19.9501 16.333 19.9056C16.2723 20.0003 16.139 20.0226 16.1228 20.1623C16.0897 20.0749 16.0344 20.0095 16.0409 19.8821C16.0026 19.8821 15.9629 19.8821 15.9245 19.8821C15.9078 19.9907 15.8841 20.0908 15.8308 20.1623C15.8215 20.0201 15.6828 20.0074 15.633 19.9056C15.4074 19.9579 15.0843 19.9107 14.8855 19.9056C14.8056 19.9304 14.7715 20.0009 14.7109 20.0459C14.7021 19.9422 14.6177 19.9137 14.5709 19.8475ZM15.8429 19.707C15.8573 19.7671 15.8973 19.8007 15.9248 19.8477C16.067 19.8768 16.0797 19.7773 16.1232 19.707C16.0546 19.6881 15.9114 19.6881 15.8429 19.707ZM15.6795 19.9058C15.7292 19.9566 15.7788 20.0089 15.8546 20.0342C15.9 19.9132 15.8685 19.7338 15.7376 19.7189C15.7482 19.8111 15.6696 19.8139 15.6795 19.9058ZM16.1815 19.7189C16.109 19.7712 16.0178 19.9652 16.1344 20.0342C16.1789 19.9768 16.2582 19.9556 16.2865 19.8821C16.2375 19.8416 16.2484 19.7409 16.1815 19.7189Z" fill="#EEBC31"></path><path d="M13.7072 18.9028C13.5814 19.0137 13.4343 19.1663 13.3105 19.2408C13.3659 17.648 13.4674 16.0114 13.5207 14.3633C13.6412 14.4181 13.7734 14.5611 13.8825 14.6667C13.8319 16.0917 13.7657 17.3978 13.7072 18.9028Z" fill="#EEBC31"></path><path d="M18.6552 19.2289C18.5885 19.2418 18.5236 19.1326 18.4568 19.0768C18.3813 19.0142 18.2926 18.9619 18.2466 18.8904C18.1731 17.6884 18.1908 16.4199 18.0946 15.2732C18.0802 15.0951 18.0443 14.7851 18.0713 14.6777C18.1079 14.5355 18.3493 14.4814 18.4217 14.3516C18.5109 15.8154 18.5718 17.652 18.6552 19.2289Z" fill="#EEBC31"></path><path d="M13.9879 14.75C14.0998 14.8126 14.1809 14.9064 14.2794 14.9834C14.2513 15.9214 14.1925 17.0444 14.151 17.9819C14.1452 18.1191 14.1846 18.3351 14.1391 18.4606C14.0899 18.5963 13.8994 18.6693 13.8125 18.7873C13.8636 17.4281 13.9429 16.0816 13.9879 14.75Z" fill="#EEBC31"></path><path d="M18.1415 18.7609C18.1261 18.777 18.0938 18.7361 18.0715 18.7138C18.0026 18.6456 17.9063 18.5406 17.8381 18.469C17.779 17.3276 17.734 16.1367 17.6865 15.0031C17.7522 14.8975 17.8641 14.8384 17.9551 14.7578C18.023 15.986 18.0827 17.4442 18.1415 18.7609Z" fill="#EEBC31"></path><path d="M17.2082 15.2602C17.1905 16.4557 16.7226 17.303 15.983 17.8156C15.2271 17.296 14.785 16.4622 14.7109 15.2602C15.2442 15.2567 15.6977 15.1112 15.983 14.8984C16.2707 15.1397 16.6987 15.2405 17.2082 15.2602ZM15.5628 15.1783C15.5421 15.6561 15.5515 16.2995 15.5515 16.824C15.5515 17.0155 15.5121 17.2404 15.5515 17.3841C15.5722 17.4592 15.6881 17.5286 15.7498 17.5825C15.8297 17.6524 15.8949 17.7156 15.9714 17.7576C16.0854 17.6681 16.3632 17.5315 16.4036 17.3839C16.4415 17.2427 16.4036 17.0257 16.4036 16.8357C16.4036 16.2895 16.4036 15.6726 16.4036 15.1781C16.252 15.1036 16.1096 15.0207 15.96 14.9447C15.8528 15.0485 15.6778 15.0831 15.5628 15.1783Z" fill="#EEBC31"></path><path d="M13.9531 19.4883C14.0262 19.5125 14.1416 19.4941 14.1515 19.582C14.0899 19.6047 14.0401 19.5246 13.9531 19.535C13.9531 19.5194 13.9531 19.5039 13.9531 19.4883Z" fill="#EEBC31"></path><path d="M18.0138 19.5076C17.963 19.55 17.8816 19.5614 17.8154 19.5889C17.8135 19.5076 17.9718 19.4682 18.0138 19.5076Z" fill="#EEBC31"></path><path d="M14.3027 19.6016C14.401 19.6124 14.4947 19.6273 14.5476 19.6829C14.471 19.686 14.3181 19.667 14.3027 19.6016Z" fill="#EEBC31"></path><path d="M17.6634 19.6153C17.6293 19.6567 17.4868 19.6956 17.4062 19.6847C17.4606 19.6385 17.5785 19.5928 17.6634 19.6153Z" fill="#EEBC31"></path><path d="M17.0218 19.7636C16.9607 19.7828 16.8261 19.7828 16.7646 19.7636C16.7848 19.6848 16.9956 19.6916 17.0218 19.7636Z" fill="#EEBC31"></path><path d="M15.2245 19.7309C15.2017 19.8174 15.0376 19.762 14.9443 19.7774C14.9516 19.6728 15.1464 19.7309 15.2245 19.7309Z" fill="#EEBC31"></path><path d="M15.5744 19.7574C15.5176 19.7875 15.3948 19.8082 15.3291 19.792C15.3526 19.7288 15.507 19.7361 15.5744 19.7574Z" fill="#EEBC31"></path><path d="M16.6252 19.8022C16.5358 19.7977 16.4615 19.779 16.3799 19.7671C16.4239 19.7256 16.6252 19.7221 16.6252 19.8022Z" fill="#EEBC31"></path><path d="M18.2355 20.246C18.2883 20.2446 18.2597 20.1611 18.3168 20.1642C18.3085 20.1998 18.3287 20.2066 18.3282 20.2342C18.2605 20.2703 18.2024 20.288 18.1185 20.2574C18.0268 20.3062 17.9131 20.4744 17.7919 20.3506C17.708 20.3645 17.7204 20.4734 17.6516 20.5027C17.5584 20.4292 17.4783 20.4653 17.3363 20.4789C17.2944 20.5267 17.2909 20.6121 17.208 20.6191C17.2131 20.5658 17.277 20.5716 17.278 20.5145C17.2651 20.4766 17.1987 20.4928 17.1729 20.4675C17.1511 20.3718 17.2257 20.3722 17.2547 20.3272C17.308 20.3401 17.3126 20.4013 17.3247 20.4561C17.3682 20.4565 17.3982 20.4442 17.4298 20.4323C17.4397 20.3646 17.4743 20.3214 17.5112 20.2807C17.5092 20.216 17.4692 20.1281 17.476 20.0938C17.5427 20.1092 17.5106 20.2231 17.546 20.2689C17.6357 20.2606 17.689 20.2896 17.7092 20.3502C17.8 20.3156 17.8272 20.21 17.9426 20.2105C17.9934 20.2105 18.0207 20.255 18.071 20.2456C18.0849 20.0908 18.0445 19.7725 17.8494 19.8952C17.8583 19.8341 17.9447 19.8498 18.0126 19.8487C18.1352 19.9331 18.0178 20.2569 18.2355 20.246ZM17.8268 20.3393C17.8806 20.3875 18.0157 20.3615 18.0019 20.2693C17.969 20.2104 17.8038 20.2357 17.8268 20.3393ZM17.5936 20.3974C17.6201 20.3891 17.6527 20.387 17.6749 20.3741C17.6749 20.241 17.4885 20.3072 17.5936 20.3974ZM17.4885 20.4325C17.5175 20.4345 17.5246 20.4143 17.5466 20.4087C17.5461 20.3708 17.5516 20.3268 17.5114 20.3274C17.4903 20.3481 17.4569 20.3949 17.4885 20.4325ZM17.2081 20.4563C17.2442 20.4724 17.2609 20.4613 17.2899 20.4444C17.2899 20.4168 17.2697 20.4098 17.278 20.3744C17.2298 20.3767 17.1993 20.3959 17.2081 20.4563ZM17.6049 20.4563C17.6418 20.4873 17.6903 20.4548 17.6868 20.4088C17.6507 20.4161 17.6045 20.4118 17.6049 20.4563Z" fill="#EEBC31"></path><path d="M13.9991 19.9054C13.9991 19.9246 13.9991 19.9443 13.9991 19.9635C13.9824 19.9817 13.9395 19.9738 13.9059 19.9754C13.896 19.934 13.9044 19.9463 13.8945 19.9054C13.9266 19.8771 13.9628 19.8842 13.9991 19.9054Z" fill="#EEBC31"></path><path d="M13.9752 20.0484C13.9767 20.0692 13.9608 20.0732 13.9633 20.0949C13.9158 20.0959 13.8721 20.0934 13.8701 20.0484C13.8894 20.0307 13.9565 20.0307 13.9752 20.0484Z" fill="#EEBC31"></path><path d="M16.426 20.1406C16.4414 20.1406 16.457 20.1406 16.4724 20.1406C16.4896 20.1573 16.4896 20.2172 16.4724 20.2339C16.457 20.2339 16.4414 20.2339 16.426 20.2339C16.4088 20.2169 16.4088 20.1572 16.426 20.1406Z" fill="#EEBC31"></path><path d="M15.1426 20.1641C15.1787 20.3161 15.2047 20.644 15.0726 20.6658C14.941 20.687 14.9789 20.4882 14.851 20.4789C14.7729 20.5074 14.6765 20.5405 14.5944 20.5027C14.5363 20.5067 14.5456 20.5782 14.4893 20.5845C14.5643 20.507 14.5327 20.4084 14.5244 20.3157C14.587 20.323 14.5959 20.3842 14.5944 20.4564C14.6279 20.5269 14.7685 20.4797 14.816 20.4564C14.7907 20.4072 14.7591 20.3648 14.7341 20.3157C14.8056 20.297 14.8056 20.2308 14.8743 20.2344C14.9882 20.2397 15.016 20.416 14.8975 20.4678C14.974 20.4964 14.9834 20.5921 15.0496 20.631C15.2035 20.5978 15.0908 20.2994 15.1426 20.1641ZM14.793 20.3508C14.791 20.3952 14.8314 20.4208 14.8743 20.4445C15.0711 20.3561 14.8003 20.1635 14.793 20.3508Z" fill="#EEBC31"></path><path d="M15.2945 20.1641C15.3324 20.2444 15.2811 20.4285 15.2707 20.5377C15.2371 20.4612 15.2778 20.2669 15.2945 20.1641Z" fill="#EEBC31"></path><path d="M16.5906 20.1641C16.6687 20.2416 16.5767 20.4892 16.672 20.5488C16.7518 20.525 16.8056 20.5359 16.824 20.4675C16.8402 20.4069 16.7563 20.3707 16.8008 20.3273C16.9049 20.3323 16.8359 20.4789 16.824 20.5374C16.7022 20.57 16.5777 20.5814 16.4736 20.5607C16.48 20.501 16.5426 20.4975 16.5906 20.4788C16.6345 20.3783 16.5654 20.2457 16.5906 20.1641Z" fill="#EEBC31"></path><path d="M16.5198 20.3025C16.5271 20.3708 16.3786 20.3316 16.4266 20.2906C16.4432 20.275 16.5188 20.2669 16.5198 20.3025Z" fill="#EEBC31"></path><path d="M16.951 20.6865C16.9669 20.6238 17.0053 20.5854 17.0328 20.5344C17.0003 20.4692 16.8719 20.4081 16.9624 20.3242C17.1417 20.351 17.0573 20.6438 16.951 20.6865ZM16.9623 20.3826C16.9681 20.4276 16.9866 20.4601 17.0328 20.4645C17.0608 20.4301 17.0081 20.3437 16.9623 20.3826Z" fill="#EEBC31"></path><path d="M18.2473 20.3728C18.2469 20.441 18.164 20.4183 18.1309 20.3961C18.149 20.3309 18.2086 20.3503 18.2473 20.3728Z" fill="#EEBC31"></path><path d="M15.6215 20.3633C15.7281 20.4378 15.9239 20.4783 16.0646 20.4214C16.0988 20.4539 16.0952 20.5235 16.1233 20.5616C16.1372 20.5482 16.1642 20.5482 16.1933 20.5497C16.169 20.411 16.362 20.3769 16.3565 20.5264C16.3209 20.5926 16.2163 20.5886 16.1112 20.5851C16.0634 20.6113 16.0634 20.6848 16.018 20.7129C15.9661 20.6947 15.9232 20.6674 15.9128 20.6083C15.7509 20.5747 15.7297 20.5949 15.5392 20.5851C15.4922 20.6404 15.447 20.7548 15.376 20.7483C15.4101 20.6886 15.4765 20.6624 15.4929 20.5851C15.4712 20.5406 15.3898 20.5058 15.4343 20.433C15.5462 20.4148 15.4916 20.5628 15.5859 20.5614C15.6852 20.5212 15.6092 20.4282 15.6215 20.3633ZM15.6567 20.5616C15.7198 20.5621 15.827 20.5637 15.9133 20.5735C15.9499 20.6031 15.9543 20.6647 16.0065 20.6786C16.0449 20.6278 16.1111 20.5321 16.0536 20.457C15.9249 20.5634 15.6443 20.3188 15.6567 20.5616ZM16.2397 20.5497C16.3003 20.5601 16.3226 20.5316 16.3216 20.4797C16.2774 20.4204 16.1983 20.4891 16.2397 20.5497Z" fill="#EEBC31"></path><path d="M13.9177 20.4161C13.9546 20.4063 13.9539 20.4343 13.9758 20.4399C13.9773 20.4755 13.9614 20.4957 13.9526 20.5213C13.8851 20.5119 13.8851 20.453 13.9177 20.4161Z" fill="#EEBC31"></path><path d="M14.1159 20.4673C14.1651 20.5482 14.0464 20.5916 14.0107 20.5254C14.0153 20.4756 14.0522 20.4577 14.1159 20.4673Z" fill="#EEBC31"></path><path d="M14.2912 20.5579C14.2799 20.5584 14.2819 20.5723 14.2793 20.5817C14.2523 20.5817 14.225 20.5817 14.1975 20.5817C14.1425 20.4854 14.2958 20.4513 14.2912 20.5579Z" fill="#EEBC31"></path><path d="M16.5787 20.6289C16.6408 20.6304 16.6336 20.73 16.5906 20.7458C16.5431 20.7396 16.5466 20.6496 16.5787 20.6289Z" fill="#EEBC31"></path><path d="M16.7415 20.745C16.7074 20.7321 16.6725 20.7203 16.6602 20.6869C16.6956 20.5752 16.8385 20.675 16.7415 20.745Z" fill="#EEBC31"></path><path d="M14.058 19.9062C14.0699 19.9062 14.0813 19.9062 14.0931 19.9062C14.0967 20.0672 13.8529 20.3421 14.1283 20.3612C14.1733 20.3327 14.1485 20.2339 14.2096 20.2211C14.2164 20.2827 14.1858 20.3065 14.1745 20.3494C14.2278 20.499 14.4966 20.4141 14.3847 20.2448C14.5155 20.2469 14.4127 20.3866 14.396 20.4432C14.3205 20.4788 14.2118 20.4412 14.1512 20.3962C14.0213 20.3858 13.9069 20.36 13.8945 20.233C14.011 20.1859 14.0367 20.0483 14.058 19.9062Z" fill="#EEBC31"></path></g><defs><clipPath id="clipegy"><rect width="32" height="32" fill="white"></rect></clipPath></defs></svg>