<svg width="32" height="32" viewBox="0 0 32 32" fill="none" xmlns="http://www.w3.org/2000/svg"><g clip-path="url(#cliplux)"><path d="M16.0013 31.9986C24.8375 31.9986 32.0006 24.8355 32.0006 15.9993C32.0006 7.16314 24.8375 0 16.0013 0C7.1651 0 0.00195312 7.16314 0.00195312 15.9993C0.00195312 24.8355 7.1651 31.9986 16.0013 31.9986Z" fill="white"></path><path d="M31.0854 10.6641H21.2275C21.6555 14.0819 21.6583 17.8479 21.2356 21.2701H31.1067C31.6827 19.6188 31.9997 17.8462 31.9997 15.9986C32 14.1274 31.6756 12.3327 31.0854 10.6641Z" fill="#EFECEC"></path><path d="M21.2274 10.666H31.0853C31.0835 10.661 31.082 10.6567 31.0802 10.6521C29.0324 4.8783 23.7653 0.630297 17.4365 0.0664062C19.8856 1.40888 20.6008 5.66222 21.2274 10.666Z" fill="#E63026"></path><path d="M17.4365 31.9358C23.7765 31.3709 29.0512 27.1082 31.091 21.3189C31.0963 21.3035 31.1008 21.2884 31.1064 21.2734H21.2351C20.614 26.3043 19.8956 30.5877 17.4365 31.9358Z" fill="#14A2DC"></path><path d="M0 15.9986C0 17.8462 0.317041 19.6188 0.893025 21.2701H22.0592C22.4819 17.8477 22.4791 14.0819 22.0511 10.6641H0.914237C0.324067 12.3327 0 14.1274 0 15.9986Z" fill="#EFEFEF"></path><path d="M0.919129 10.6517C0.917373 10.6562 0.915819 10.6606 0.914062 10.6656H22.0512C21.4247 5.66175 19.8857 1.40848 17.4369 0.0660024C16.9633 0.0239824 16.4843 0 15.9998 0C9.03958 0 3.12018 4.44553 0.919129 10.6517Z" fill="#E73B36"></path><path d="M22.0598 21.2734H0.893555C0.898892 21.2884 0.903688 21.3035 0.908957 21.3189C3.10129 27.541 9.02847 32.0019 16.0001 32.0019C16.4847 32.0019 16.9637 31.9781 17.4373 31.9357C19.8964 30.5877 21.4385 26.3043 22.0598 21.2734Z" fill="#15AFE1"></path></g><defs><clipPath id="cliplux"><rect width="32" height="32" fill="white"></rect></clipPath></defs></svg>