<svg width="32" height="32" viewBox="0 0 32 32" fill="none" xmlns="http://www.w3.org/2000/svg"><g clip-path="url(#clipgre)"><path d="M5.95193 28.4467H26.0486C26.0511 28.4447 26.0531 28.4432 26.0554 28.4414H5.94531C5.94734 28.4434 5.94991 28.445 5.95193 28.4467Z" fill="#3757A6"></path><path d="M21.5432 7.09376H29.2929C28.389 5.74824 27.2853 4.54925 26.0254 3.53516H20.2744C20.7822 4.56168 21.2047 5.76749 21.5432 7.09376Z" fill="#EFECEC"></path><path d="M22.5202 14.211H31.8987C31.761 12.9768 31.4831 11.7852 31.0816 10.6523H22.2168C22.3691 11.8061 22.4701 13.0016 22.5202 14.211Z" fill="#EFECEC"></path><path d="M22.2197 21.3281H31.0889C31.489 20.1948 31.7655 19.0037 31.9011 17.7695H22.5209C22.4714 18.9789 22.3713 20.1741 22.2197 21.3281Z" fill="#EFECEC"></path><path d="M20.2861 28.4448H26.0563C27.3101 27.4302 28.4085 26.2307 29.3079 24.8867H21.5493C21.2123 26.212 20.7919 27.4176 20.2861 28.4448Z" fill="#EFECEC"></path><path d="M19.7677 3.53334H26.025C23.2818 1.32478 19.7968 0 16.0005 0H16C15.9833 0 15.9669 0.00101335 15.9502 0.00101335C17.7658 0.0108766 18.7006 1.37457 19.7677 3.53334Z" fill="#3757A6"></path><path d="M21.7887 10.6518H31.0808C30.6313 9.3846 30.0288 8.19067 29.2921 7.09375H21.1152C21.3994 8.20736 21.624 9.4046 21.7887 10.6518Z" fill="#3757A6"></path><path d="M31.8977 14.2109H22.041C22.0903 15.3932 22.0908 16.5872 22.042 17.7695H31.9005C31.9641 17.1888 31.9998 16.6001 31.9998 16.0026C31.9998 15.3968 31.9634 14.7996 31.8977 14.2109Z" fill="#3757A6"></path><path d="M21.0342 24.8828H29.3074C30.0416 23.7849 30.6421 22.591 31.0892 21.3242H21.7052C21.541 22.5712 21.3169 23.7688 21.0342 24.8828Z" fill="#3757A6"></path><path d="M15.9502 32.0005C15.9669 32.0005 15.9833 32.0015 16 32.0015C19.8071 32.0015 23.3016 30.6693 26.0485 28.4492H19.8102C18.742 30.6183 17.7709 31.9906 15.9502 32.0005Z" fill="#3757A6"></path><path d="M20.2743 3.53233C19.2069 1.37356 17.7662 0.00986326 15.9505 0C12.1739 0.01189 8.70747 1.33316 5.97656 3.53233H20.2743Z" fill="#4166AF"></path><path d="M20.2736 3.53516H5.97558C4.71592 4.54918 3.61219 5.74818 2.70801 7.0937H21.542C21.2038 5.76743 20.7814 4.56161 20.2736 3.53516Z" fill="#EFEFEF"></path><path d="M21.5426 7.09375H2.70855C1.97185 8.19067 1.36938 9.3846 0.919922 10.6518H22.2161C22.0511 9.4046 21.8263 8.20736 21.5426 7.09375Z" fill="#4166AF"></path><path d="M0.919568 10.6523C0.517877 11.7852 0.240219 12.9768 0.102539 14.211H22.5192C22.4694 13.0016 22.3681 11.8059 22.2158 10.6523H0.919568Z" fill="#EFEFEF"></path><path d="M0 16.0021V16.0026C0 16.6001 0.0356023 17.1887 0.0997811 17.7695H22.5205C22.5692 16.5872 22.5687 15.3933 22.5194 14.2109H0.102551C0.0371561 14.7996 0 15.3968 0 16.0021Z" fill="#4166AF"></path><path d="M0.912548 21.3242H22.2201C22.3717 20.1702 22.4717 18.975 22.521 17.7656H0.100586C0.235767 18.9998 0.512411 20.191 0.912548 21.3242Z" fill="#EFEFEF"></path><path d="M2.69391 24.8828H21.5487C21.8314 23.7688 22.0555 22.5712 22.2197 21.3242H0.912109C1.35927 22.591 1.9593 23.7849 2.69391 24.8828Z" fill="#4166AF"></path><path d="M2.69336 24.8828C3.59247 26.2269 4.69067 27.4263 5.94499 28.4409H20.285C20.7908 27.4137 21.2111 26.2081 21.5481 24.8828H2.69336Z" fill="#EFEFEF"></path><path d="M15.9503 32.0005C17.771 31.9906 19.2149 30.6183 20.283 28.4492H5.95215C8.68711 30.6595 12.1628 31.9886 15.9503 32.0005Z" fill="#4166AF"></path><path d="M15.9998 0C7.1639 0 0.000472896 7.16316 0 15.9998L0.0997811 17.7672H16.0002L15.9998 0Z" fill="#3757A6"></path><path d="M6.68601 2.99609C5.12423 4.11679 3.77087 5.50899 2.69922 7.10765H6.68601V2.99609Z" fill="#3757A6"></path><path d="M0.923634 10.6406C0.327649 12.3173 0 14.1214 0 16.0023L0.0997811 17.7697H6.68594V10.6406H0.923634Z" fill="#3757A6"></path><path d="M16.0003 7.10628L15.9998 0C13.9606 0 12.0115 0.385748 10.2178 1.08151V7.10628H16.0003Z" fill="#3757A6"></path><path d="M15.9999 10.6367H10.2178V17.766H15.9999V10.6367Z" fill="#3757A6"></path><path d="M10.2177 7.1068V1.08203C8.95448 1.57188 7.76988 2.21685 6.68586 2.99496V7.10659H2.69908C1.9692 8.19648 1.37071 9.38129 0.923828 10.6384H6.68613V17.7674V17.8938H10.2179V17.7674V10.6387H16.0004V7.1068H10.2177Z" fill="#EFEFEF"></path></g><defs><clipPath id="clipgre"><rect width="32" height="32" fill="white"></rect></clipPath></defs></svg>