<svg width="32" height="32" viewBox="0 0 32 32" fill="none" xmlns="http://www.w3.org/2000/svg"><g clip-path="url(#clipswi)"><path d="M16.0013 31.9986C24.8375 31.9986 32.0006 24.8355 32.0006 15.9993C32.0006 7.16314 24.8375 0 16.0013 0C7.1651 0 0.00195312 7.16314 0.00195312 15.9993C0.00195312 24.8355 7.1651 31.9986 16.0013 31.9986Z" fill="white"></path><path d="M31.0852 10.6661C31.0834 10.661 31.0819 10.6568 31.0801 10.6522C29.0323 4.8783 23.7652 0.630297 17.4365 0.0664062C19.8853 1.40888 20.6004 5.66222 21.227 10.666C21.655 14.0839 21.6578 17.8499 21.2351 21.272C20.6139 26.3029 19.8957 30.5863 17.4366 31.9343C23.7766 31.3694 29.0513 27.1068 31.091 21.3175C31.0964 21.3021 31.1009 21.2869 31.1064 21.272C31.6824 19.6211 31.9995 17.8481 31.9995 16.0009C31.9995 14.1294 31.6753 12.3347 31.0852 10.6661Z" fill="#D32027"></path><path d="M22.0511 10.6654C21.4249 5.66148 19.8858 1.40821 17.4369 0.0657321C16.9632 0.0237798 16.4842 0 15.9997 0C9.03942 0 3.12022 4.44533 0.919304 10.6514C0.917548 10.656 0.915994 10.6603 0.914237 10.6654C0.324134 12.3339 0 14.1286 0 16.0001C0 17.8477 0.317041 19.6203 0.893025 21.2713C0.898362 21.2862 0.903158 21.3013 0.908428 21.3167C3.10076 27.5388 9.028 31.9997 15.9996 31.9997C16.4842 31.9997 16.9631 31.976 17.4368 31.9335C19.8959 30.5855 21.4379 26.3021 22.0592 21.2712C22.4819 17.8489 22.4791 14.0832 22.0511 10.6654Z" fill="#DB2727"></path><path d="M18.7401 7.75H13.2383V24.2546H18.7401V7.75Z" fill="white"></path><path d="M24.2419 13.25H7.7373V18.7518H24.2419V13.25Z" fill="white"></path></g><defs><clipPath id="clipswi"><rect width="32" height="32" fill="white"></rect></clipPath></defs></svg>