<svg width="32" height="32" viewBox="0 0 32 32" fill="none" xmlns="http://www.w3.org/2000/svg"><g clip-path="url(#clipusa)"><path d="M16.0009 0C15.6867 0 15.3749 0.0113495 15.0654 0.0290493H16.9367C16.6269 0.0113495 16.3152 0 16.0009 0Z" fill="#C42126"></path><path d="M20.7285 5.85201H28.3687C27.4612 4.74726 26.4065 3.76931 25.238 2.94141H19.501C19.9757 3.77661 20.3839 4.76212 20.7285 5.85201Z" fill="#E7E7E7"></path><path d="M19.5007 2.9426H25.2378C22.8661 1.26186 20.0186 0.209329 16.935 0.03125H16.4424C17.8938 0.213923 18.5604 1.28807 19.5007 2.9426Z" fill="#DC3027"></path><path d="M31.403 11.6723C31.1185 10.6578 30.737 9.68434 30.2682 8.76172H21.4785C21.6566 9.69623 21.7971 10.6724 21.9012 11.6723H31.403Z" fill="#E7E7E7"></path><path d="M20.9851 8.76264H30.2688C29.7398 7.72207 29.1042 6.74561 28.3695 5.85156H20.2598C20.5457 6.75675 20.7885 7.73322 20.9851 8.76264Z" fill="#DC3027"></path><path d="M22.2383 17.4928H31.928C31.974 17.0005 32 16.5015 32 15.9973C32 15.5201 31.975 15.0489 31.9341 14.582H22.2406C22.2721 15.5501 22.2716 16.5253 22.2383 17.4928Z" fill="#E7E7E7"></path><path d="M31.934 14.5864C31.8463 13.5867 31.6662 12.6141 31.4032 11.6758H21.4932C21.5927 12.6289 21.6584 13.6041 21.6905 14.5864H31.934Z" fill="#DC3027"></path><path d="M21.3115 23.3173H30.2264C30.7019 22.3957 31.0894 21.4216 31.38 20.4062H21.7425C21.6364 21.4077 21.4924 22.3836 21.3115 23.3173Z" fill="#E7E7E7"></path><path d="M31.38 20.4067C31.6485 19.4687 31.835 18.4961 31.9277 17.4961H21.9358C21.9017 18.4791 21.834 19.454 21.7324 20.4067H31.38Z" fill="#DC3027"></path><path d="M25.1249 29.1411C26.3102 28.3165 27.3798 27.3375 28.3017 26.2305H20.7948C20.4439 27.3249 20.0272 28.3088 19.5439 29.1411H25.1249Z" fill="#E7E7E7"></path><path d="M20.5117 26.2275H28.3011C29.0444 25.3345 29.6896 24.358 30.2264 23.3164H21.2461C21.0468 24.3466 20.8015 25.3235 20.5117 26.2275Z" fill="#DC3027"></path><path d="M15.4193 31.9879C15.3869 31.9869 15.3546 31.9854 15.3223 31.9844C15.3546 31.9853 15.387 31.9869 15.4193 31.9879Z" fill="#DC3027"></path><path d="M16 31.9994C19.3921 31.9994 22.5351 30.9406 25.1236 29.1406H19.333C18.3052 30.9113 17.6272 31.9994 16 31.9994Z" fill="#DC3027"></path><path d="M15.9997 31.9996C15.8054 31.9996 15.6124 31.9951 15.4199 31.9883C15.6144 31.9948 15.8076 31.9996 15.9997 31.9996Z" fill="#C42126"></path><path d="M20.031 2.94141H6.76177C5.59311 3.76931 4.53862 4.74719 3.63086 5.85201H21.2583C20.9137 4.76212 20.5058 3.77661 20.031 2.94141Z" fill="#F3F4F5"></path><path d="M6.76172 2.9426H20.031C19.0905 1.28807 17.8942 0.213923 16.4428 0.03125H15.0642C11.9806 0.209329 9.13316 1.26186 6.76172 2.9426Z" fill="#E73625"></path><path d="M0.59668 11.6723H22.406C22.3019 10.6722 22.1614 9.69623 21.9833 8.76172H1.7315C1.26258 9.68441 0.88116 10.6578 0.59668 11.6723Z" fill="#F3F4F5"></path><path d="M3.63144 5.85156C2.8973 6.74561 2.26119 7.72201 1.73242 8.76265H21.984C21.7877 7.73342 21.5449 6.75703 21.2589 5.85156C21.2589 5.85156 3.63144 5.85156 3.63144 5.85156Z" fill="#E73625"></path><path d="M0 16.001C0 16.5052 0.0262795 17.0042 0.0720153 17.4965H22.6015C22.6349 16.5289 22.6354 15.554 22.6038 14.5859H0.0659352C0.0249959 15.0526 0 15.5238 0 16.001Z" fill="#F3F4F5"></path><path d="M0.0664062 14.5864H22.604C22.5719 13.6039 22.506 12.629 22.4067 11.6758H0.596928C0.33393 12.6143 0.153824 13.5867 0.0664062 14.5864Z" fill="#E73625"></path><path d="M22.3986 20.4102H0.620117C0.910678 21.4257 1.29845 22.3996 1.77365 23.3212H21.9676C22.1485 22.3877 22.2922 21.4118 22.3986 20.4102Z" fill="#F3F4F5"></path><path d="M0.619947 20.4067H22.3984C22.4998 19.454 22.5677 18.4788 22.6018 17.4961H0.0722656C0.164953 18.4963 0.35168 19.4687 0.619947 20.4067Z" fill="#E73625"></path><path d="M6.87607 29.1411H19.9827C20.466 28.3086 20.8828 27.3249 21.2335 26.2305H3.69922C4.6211 27.3375 5.69045 28.3165 6.87607 29.1411Z" fill="#F3F4F5"></path><path d="M1.77344 23.3203C2.31031 24.3619 2.95547 25.3384 3.69873 26.2314H21.233C21.5225 25.3275 21.7678 24.3505 21.9671 23.3203H1.77344Z" fill="#E73625"></path><path d="M15.3232 31.9885C15.3556 31.9895 15.3879 31.991 15.4202 31.992C15.6128 31.9988 15.8058 32.0033 16 32.0033C17.6272 32.0033 18.954 30.9153 19.982 29.1445H6.87695C9.2919 30.8241 12.1906 31.8579 15.3232 31.9885Z" fill="#E73625"></path><path d="M15.6694 0.0117188C7.47026 0.178516 0.787567 6.50918 0.0683594 14.5619H15.6697V0.0117188H15.6694Z" fill="#283991"></path><path d="M3.20152 9.06641L3.44526 9.81696H4.235L3.59611 10.2811L3.84013 11.0322L3.20152 10.5678L2.56311 11.0322L2.80665 10.2811L2.16797 9.81696H2.95771L3.20152 9.06641Z" fill="#EFEFEF"></path><path d="M3.20152 11.7188L3.44526 12.4698H4.235L3.59611 12.9339L3.84013 13.685L3.20152 13.2206L2.56311 13.685L2.80665 12.9339L2.16797 12.4698H2.95771L3.20152 11.7188Z" fill="#EFEFEF"></path><path d="M5.85413 5.08594L6.09794 5.83676H6.88741L6.24873 6.30115L6.49254 7.0517L5.85413 6.58786L5.21545 7.0517L5.45926 6.30115L4.82031 5.83676H5.61005L5.85413 5.08594Z" fill="#EFEFEF"></path><path d="M5.85413 7.73828L6.09794 8.4891H6.88741L6.24873 8.95295L6.49254 9.70404L5.85413 9.2402L5.21545 9.70404L5.45926 8.95295L4.82031 8.4891H5.61005L5.85413 7.73828Z" fill="#EFEFEF"></path><path d="M5.85413 10.3906L6.09794 11.1417H6.88741L6.24873 11.6053L6.49254 12.3564L5.85413 11.8921L5.21545 12.3564L5.45926 11.6053L4.82031 11.1417H5.61005L5.85413 10.3906Z" fill="#EFEFEF"></path><path d="M1.18855 12.3557L0.944537 11.6046L1.58322 11.1407H0.793954L0.776254 11.0859C0.689579 11.354 0.61128 11.6253 0.539062 11.8997L0.550209 11.8913L1.18855 12.3557Z" fill="#EFEFEF"></path><path d="M2.56334 8.38003L3.20175 7.91572L3.84043 8.38003L3.59642 7.62894L4.2351 7.16462H3.44536L3.20155 6.41406L2.95774 7.16462H2.66671C2.61266 7.2465 2.56037 7.32885 2.50781 7.41194L2.80695 7.62894L2.56334 8.38003Z" fill="#EFEFEF"></path><path d="M5.85406 3.93853L6.49247 4.40237L6.24866 3.65182L6.88707 3.1875H6.43107C6.04376 3.47705 5.67011 3.78348 5.31111 4.10681L5.21484 4.40237L5.85406 3.93853Z" fill="#EFEFEF"></path><path d="M7.86719 3.07772L8.50586 2.6134L9.14427 3.07772L8.90046 2.32663L9.53887 1.86278H8.74941L8.7163 1.76172C8.44878 1.89839 8.18403 2.04059 7.92529 2.19192L8.11073 2.32656L7.86719 3.07772Z" fill="#EFEFEF"></path><path d="M8.5064 3.76172L8.75021 4.51207H9.53968L8.901 4.97639L9.14481 5.72748L8.5064 5.2631L7.86773 5.72748L8.11154 4.97639L7.47266 4.51207H8.26232L8.5064 3.76172Z" fill="#EFEFEF"></path><path d="M8.5064 6.41406L8.75021 7.16441H9.53968L8.901 7.62873L9.14481 8.37982L8.5064 7.91543L7.86773 8.37982L8.11154 7.62873L7.47266 7.16441H8.26232L8.5064 6.41406Z" fill="#EFEFEF"></path><path d="M8.5064 9.06641L8.75021 9.81696H9.53968L8.901 10.2811L9.14481 11.0322L8.5064 10.5678L7.86773 11.0322L8.11154 10.2811L7.47266 9.81696H8.26232L8.5064 9.06641Z" fill="#EFEFEF"></path><path d="M8.5064 11.7188L8.75021 12.4698H9.53968L8.901 12.9339L9.14481 13.685L8.5064 13.2206L7.86773 13.685L8.11154 12.9339L7.47266 12.4698H8.26232L8.5064 11.7188Z" fill="#EFEFEF"></path><path d="M11.1588 2.43359L11.4026 3.18442H12.192L11.5536 3.6488L11.7972 4.39935L11.1588 3.93551L10.5199 4.39935L10.7639 3.6488L10.125 3.18442H10.9147L11.1588 2.43359Z" fill="#EFEFEF"></path><path d="M11.1588 5.08594L11.4026 5.83676H12.192L11.5536 6.30115L11.7972 7.0517L11.1588 6.58786L10.5199 7.0517L10.7639 6.30115L10.125 5.83676H10.9147L11.1588 5.08594Z" fill="#EFEFEF"></path><path d="M11.1588 7.73828L11.4026 8.4891H12.192L11.5536 8.95295L11.7972 9.70404L11.1588 9.2402L10.5199 9.70404L10.7639 8.95295L10.125 8.4891H10.9147L11.1588 7.73828Z" fill="#EFEFEF"></path><path d="M11.1588 10.3906L11.4026 11.1417H12.192L11.5536 11.6053L11.7972 12.3564L11.1588 11.8921L10.5199 12.3564L10.7639 11.6053L10.125 11.1417H10.9147L11.1588 10.3906Z" fill="#EFEFEF"></path><path d="M13.8101 1.10938L14.0539 1.8602H14.8434L14.2047 2.32404L14.4485 3.07513L13.8101 2.61075L13.1712 3.07513L13.4153 2.32404L12.7764 1.8602H13.5658L13.8101 1.10938Z" fill="#EFEFEF"></path><path d="M13.8101 3.76172L14.0539 4.51207H14.8434L14.2047 4.97639L14.4485 5.72748L13.8101 5.2631L13.1712 5.72748L13.4153 4.97639L12.7764 4.51207H13.5658L13.8101 3.76172Z" fill="#EFEFEF"></path><path d="M13.8101 6.41406L14.0539 7.16441H14.8434L14.2047 7.62873L14.4485 8.37982L13.8101 7.91543L13.1712 8.37982L13.4153 7.62873L12.7764 7.16441H13.5658L13.8101 6.41406Z" fill="#EFEFEF"></path><path d="M13.8101 9.06641L14.0539 9.81696H14.8434L14.2047 10.2811L14.4485 11.0322L13.8101 10.5678L13.1712 11.0322L13.4153 10.2811L12.7764 9.81696H13.5658L13.8101 9.06641Z" fill="#EFEFEF"></path><path d="M13.8101 11.7188L14.0539 12.4698H14.8434L14.2047 12.9339L14.4485 13.685L13.8101 13.2206L13.1712 13.685L13.4153 12.9339L12.7764 12.4698H13.5658L13.8101 11.7188Z" fill="#EFEFEF"></path></g><defs><clipPath id="clipusa"><rect width="32" height="32" fill="white"></rect></clipPath></defs></svg>