<svg width="32" height="32" viewBox="0 0 32 32" fill="none" xmlns="http://www.w3.org/2000/svg"><g clip-path="url(#clipswe)"><path d="M16.0009 31.998C24.8369 31.998 31.9999 24.835 31.9999 15.999C31.9999 7.16299 24.8369 0 16.0009 0C7.16494 0 0.00195312 7.16299 0.00195312 15.999C0.00195312 24.835 7.16494 31.998 16.0009 31.998Z" fill="white"></path><path d="M31.0849 10.6658C31.0834 10.6607 31.0818 10.6565 31.0798 10.6519C29.0323 4.8782 23.7651 0.630286 17.4365 0.0664062C19.8852 1.40885 20.6007 5.6621 21.227 10.6658C21.6552 14.0836 21.6577 17.8492 21.2353 21.2716C20.614 26.3024 19.8956 30.5856 17.4365 31.9337C23.7764 31.3688 29.051 27.1062 31.0907 21.317C31.096 21.3016 31.1005 21.2865 31.1061 21.2716C31.6823 19.6207 31.9991 17.8478 31.9991 16.0005C31.9992 14.1291 31.675 12.3347 31.0849 10.6658Z" fill="#1C468C"></path><path d="M22.0509 10.6651C21.4244 5.66129 19.8854 1.40811 17.4365 0.0656632C16.9628 0.0237117 16.4838 0 15.9993 0C9.03923 0 3.12049 4.44524 0.919352 10.6512C0.917866 10.6557 0.916312 10.6601 0.914286 10.6651C0.324128 12.334 0 14.1283 0 15.9999C0 17.8474 0.317305 19.62 0.893006 21.2709C0.898343 21.2858 0.903342 21.301 0.908408 21.3164C3.10069 27.5383 9.02808 31.9991 15.9993 31.9991C16.4838 31.9991 16.9628 31.9753 17.4364 31.9329C19.8955 30.5849 21.4375 26.3016 22.0587 21.2708C22.4817 17.8485 22.4789 14.0831 22.0509 10.6651Z" fill="#27509F"></path><path d="M31.785 18.6003C31.8047 18.4813 31.8206 18.3616 31.8373 18.2421C31.8565 18.1094 31.8742 17.976 31.8901 17.8424C31.9025 17.7317 31.9144 17.6214 31.9247 17.5107C31.9401 17.3528 31.9517 17.1944 31.9621 17.0355C31.9679 16.9448 31.975 16.8544 31.9792 16.7637C31.9911 16.5106 31.999 16.2564 31.999 16.0005C31.999 15.7133 31.9891 15.4293 31.9737 15.1462C31.9686 15.0535 31.9608 14.9617 31.954 14.8688C31.9406 14.6778 31.9239 14.4873 31.9037 14.2979C31.8923 14.1933 31.8805 14.0892 31.8671 13.9851C31.8428 13.7986 31.8153 13.6135 31.7852 13.429C31.7698 13.3374 31.7566 13.2446 31.7402 13.1531C31.7357 13.1279 31.7324 13.1023 31.7279 13.0776H31.7243C31.6783 12.829 31.6296 12.5807 31.5723 12.3359H24.8787H21.5888C21.6047 12.5818 21.613 12.8303 21.6257 13.0776H20.8359C20.9565 14.9122 20.9648 16.7958 20.8567 18.6354H21.6431C21.6327 18.858 21.6271 19.0821 21.6145 19.3039H24.9054H31.6558C31.7023 19.0828 31.7417 18.8592 31.7786 18.6354H31.7801C31.7822 18.6236 31.7832 18.6123 31.785 18.6003Z" fill="#F1B91B"></path><path d="M22.2768 13.0755H22.2695C22.2566 12.8282 22.2483 12.5796 22.2326 12.3338H15.1818V0.0195312C14.9665 0.0304076 14.7541 0.0510793 14.5414 0.0703324V0.066752C14.5047 0.0702648 14.4689 0.0756017 14.4327 0.0791145C14.2839 0.0935037 14.1364 0.111203 13.9894 0.129375C13.8552 0.146061 13.7223 0.164977 13.5897 0.185175C13.4485 0.206388 13.3075 0.2276 13.1678 0.252865C13.0162 0.279887 12.8669 0.311503 12.7169 0.342578C12.5956 0.368316 12.4731 0.390812 12.3529 0.419117C12.1043 0.477215 11.8579 0.541391 11.6137 0.611108C11.5075 0.641643 11.4035 0.675285 11.2984 0.707846C11.1359 0.757634 10.9748 0.808908 10.8148 0.863695C10.7092 0.899837 10.6041 0.937735 10.4996 0.976106C10.3353 1.03623 10.1724 1.09939 10.0105 1.16506C9.91825 1.20194 9.82604 1.23856 9.73457 1.27747C9.52083 1.36819 9.31019 1.46392 9.10151 1.56417C9.06537 1.58133 9.02903 1.59673 8.99288 1.61396C8.98937 1.61598 8.9866 1.61747 8.98302 1.61902V1.6195C8.7226 1.74684 8.46542 1.88046 8.2133 2.02165V12.3338H0.427216C0.369862 12.5786 0.321088 12.8267 0.27461 13.0755H0.27157C0.266503 13.1002 0.263734 13.1258 0.259207 13.151C0.242521 13.2422 0.229146 13.3352 0.214216 13.4269C0.184154 13.6113 0.156119 13.7965 0.13234 13.983C0.118964 14.0871 0.107074 14.1911 0.0957251 14.2957C0.0749858 14.4852 0.0588402 14.6757 0.0449239 14.8666C0.0386413 14.9593 0.0305347 15.0511 0.0257384 15.144C0.0103359 15.4274 0 15.7116 0 15.9987C0 16.2548 0.00783635 16.509 0.0201989 16.7616C0.024725 16.8528 0.0315481 16.9437 0.0373578 17.0345C0.0476936 17.1929 0.0595833 17.3512 0.0747155 17.5086C0.0850514 17.6196 0.0964682 17.7307 0.109304 17.8406C0.125246 17.9742 0.142878 18.1071 0.161591 18.2398C0.178277 18.3598 0.194693 18.4795 0.214419 18.5985C0.215905 18.6104 0.217459 18.6217 0.219485 18.6336H0.220499C0.257856 18.8577 0.297038 19.081 0.343246 19.3021H8.21303V29.9751C8.46515 30.1158 8.72233 30.2494 8.98275 30.3767V30.3772C8.98377 30.3777 8.98478 30.3782 8.98579 30.3787C9.03808 30.4044 9.09192 30.4269 9.14468 30.4517C9.33721 30.5434 9.53143 30.6324 9.72849 30.7162C9.82523 30.7576 9.92251 30.796 10.0195 30.8352C10.1769 30.8988 10.3348 30.9599 10.4947 31.0188C10.6013 31.0582 10.7089 31.0969 10.8168 31.1338C10.9752 31.1881 11.1361 31.2389 11.2968 31.2887C11.4019 31.3207 11.5065 31.3549 11.6125 31.3854C11.8601 31.4559 12.1105 31.5216 12.3631 31.5802C12.4765 31.6067 12.5919 31.6279 12.7064 31.6516C12.8602 31.6842 13.0144 31.7163 13.1697 31.7438C13.3073 31.7686 13.446 31.7898 13.5847 31.8111C13.7199 31.8313 13.8555 31.8504 13.9917 31.8674C14.1372 31.8856 14.2832 31.903 14.4297 31.9172C14.4666 31.9212 14.5032 31.9265 14.5403 31.9301V31.926C14.7531 31.9452 14.9657 31.9664 15.1808 31.9773V19.3017H22.2573C22.2702 19.0796 22.2755 18.8555 22.2859 18.6332H22.2968C22.4057 16.7936 22.397 14.9101 22.2768 13.0755Z" fill="#FAC80D"></path></g><defs><clipPath id="clipswe"><rect width="32" height="32" fill="white"></rect></clipPath></defs></svg>