<svg width="32" height="32" viewBox="0 0 32 32" fill="none" xmlns="http://www.w3.org/2000/svg"><g clip-path="url(#clipaus)"><path d="M16 0V32C24.8369 32 32.0003 24.8366 32.0003 16.0002C32.0003 7.16289 24.8368 0 16 0Z" fill="#252F6B"></path><path d="M15.9998 0C7.16343 0 0 7.16316 0 16C0 24.8363 7.16343 31.9997 15.9998 31.9997C24.8366 31.9997 24.8366 0 15.9998 0Z" fill="#273375"></path><path d="M10.9734 24.5249L12.0524 23.1799L10.3855 23.4818L9.80726 21.8672L9.17871 23.4818L7.47696 23.1799L8.55847 24.4953L7.43555 25.8093L9.14709 25.5405L9.72436 27.1217L10.3532 25.5413L12.0988 25.8532L10.9734 24.5249Z" fill="#F3F4F5"></path><path d="M23.7261 25.7169L24.3379 24.9547L23.3931 25.1257L23.0654 24.2109L22.7092 25.1257L21.7449 24.9547L22.3578 25.6997L21.7217 26.4447L22.6913 26.2922L23.0184 27.1877L23.3747 26.2926L24.364 26.4695L23.7261 25.7169Z" fill="#F3F4F5"></path><path d="M23.7261 8.87316L24.3379 8.11072L23.3931 8.28197L23.0654 7.36719L22.7092 8.28197L21.7449 8.11072L22.3578 8.85621L21.7217 9.60075L22.6913 9.44841L23.0184 10.3445L23.3747 9.44888L24.364 9.62547L23.7261 8.87316Z" fill="#F3F4F5"></path><path d="M27.6846 13.2325L28.296 12.47L27.3516 12.6413L27.0239 11.7266L26.6678 12.6413L25.7029 12.47L26.3158 13.2156L25.6797 13.9603L26.6493 13.8077L26.9764 14.7038L27.3327 13.8083L28.322 13.9848L27.6846 13.2325Z" fill="#F3F4F5"></path><path d="M20.303 15.1659L20.9149 14.4036L19.97 14.5749L19.6423 13.6602L19.2862 14.5749L18.3221 14.4036L18.9347 15.1486L18.2988 15.8936L19.2685 15.7413L19.5956 16.6366L19.9518 15.7418L20.9412 15.9184L20.303 15.1659Z" fill="#F3F4F5"></path><path d="M3.36003 6.19531C3.10892 6.51891 2.86916 6.85115 2.64258 7.19346H4.35771L3.36003 6.19531Z" fill="#29337A"></path><path d="M11.623 15.9983H13.1644L11.623 14.457V15.9983Z" fill="#29337A"></path><path d="M6.51397 3.11328C6.14687 3.38412 5.79348 3.67137 5.45117 3.97172L6.51397 5.03405V3.11328Z" fill="#29337A"></path><path d="M4.97168 15.9988H6.51346V14.457L4.97168 15.9988Z" fill="#29337A"></path><path d="M16.0002 0C14.4818 0 13.015 0.215978 11.623 0.611387V5.03749L16.0006 0.660095V0H16.0002Z" fill="#29337A"></path><path d="M16.0007 14.5261V12.3047H13.7793L16.0007 14.5261Z" fill="#29337A"></path><path d="M0.660163 16.0012L4.3574 12.3047H0.434254C0.153083 13.4918 0 14.7284 0 16.0012H0.660163Z" fill="#29337A"></path><path d="M13.7773 7.19507H16.0002V4.97266L13.7773 7.19507Z" fill="#29337A"></path><path d="M16.0011 14.9875V14.5208L13.7797 12.2995H16.0011V11.5039H12.5176L16.0011 14.9875Z" fill="white"></path><path d="M4.35884 7.19282H2.64371C2.47246 7.4523 2.30971 7.7178 2.15332 7.98762H5.5227L3.52283 5.98828C3.46804 6.05651 3.4142 6.12549 3.36089 6.1944L4.35884 7.19282Z" fill="white"></path><path d="M6.51388 14.4568V15.9986H7.30895V13.293L4.60352 15.9986H4.9721L6.51388 14.4568Z" fill="white"></path><path d="M11.6229 0.609375C11.3549 0.685444 11.0901 0.768268 10.8281 0.857443V6.19961L16.0005 1.02748V0.658894L11.6229 5.03548V0.609375Z" fill="white"></path><path d="M6.48588 12.2992L6.51392 12.2711L7.28116 11.5039H0.644266C0.567724 11.7664 0.497736 12.0314 0.43457 12.2992H4.35772L0.66048 15.9957H2.78919L6.48588 12.2992Z" fill="white"></path><path d="M0.661133 15.9973L4.35837 12.3008L0.661133 15.9973Z" fill="white"></path><path d="M16.0003 7.98549V7.19042H13.7775L16.0003 4.96801V2.83984L10.8545 7.98549H16.0003Z" fill="white"></path><path d="M16.0003 4.96875L13.7773 7.19116L16.0003 4.96875Z" fill="white"></path><path d="M6.51403 5.03903L5.45123 3.97671C5.07433 4.30794 4.7125 4.65653 4.36816 5.02187L6.51403 7.16774L6.5368 7.19098L7.3091 7.96329V2.57031C7.03881 2.74589 6.77277 2.92701 6.5143 3.11799V5.03903H6.51403Z" fill="white"></path><path d="M11.6232 14.4582L13.1645 15.9995H15.1952L10.8281 11.6328V15.9995H11.6232V14.4582Z" fill="white"></path><path d="M6.51367 7.16797L6.53644 7.19121L6.51367 7.16797Z" fill="#D32030"></path><path d="M13.3111 12.3034L12.5163 11.5081H15.9999V7.98896H10.854L10.8274 8.01598V7.98896H10.854L15.9999 2.84358V1.02914L10.8272 6.20155V0.859375C9.57691 1.2866 8.3971 1.86306 7.30802 2.56916V7.96187L7.33558 7.98889H7.30802V7.96187L6.53571 7.18963L6.54024 7.19416H6.51321V7.16659L4.36734 5.02073C4.0728 5.3325 3.79061 5.65535 3.52154 5.98982L5.52135 7.98916H2.15203C1.51537 9.08662 1.00633 10.2659 0.643555 11.5083H7.28046L7.30802 11.4803V11.5083H7.28046L6.51321 12.2756V12.3037H6.48518L2.78841 16H4.60285L7.30829 13.2942V16H10.8274V11.6332L15.1942 16H15.7948C15.8632 15.9285 15.933 15.8575 16.0001 15.784V14.9914L13.3111 12.3034Z" fill="#D32030"></path><path d="M10.8271 6.20365L15.9998 1.03125L10.8271 6.20365Z" fill="#D32030"></path><path d="M6.51339 12.3017V12.2734L6.48535 12.3017H6.51339Z" fill="#D32030"></path><path d="M7.30804 11.4805L7.28027 11.5085H7.30804V11.4805Z" fill="#D32030"></path><path d="M10.8271 8.0153L10.854 7.98828H10.8271V8.0153Z" fill="#D32030"></path><path d="M6.51367 7.19546H6.54096L6.53644 7.19121L6.51367 7.16797V7.19546Z" fill="#D32030"></path><path d="M7.33511 7.98823L7.30762 7.96094V7.98823H7.33511Z" fill="#D32030"></path></g><defs><clipPath id="clipaus"><rect width="32" height="32" fill="white"></rect></clipPath></defs></svg>