<svg width="32" height="32" viewBox="0 0 32 32" fill="none" xmlns="http://www.w3.org/2000/svg"><g clip-path="url(#clipfra)"><path d="M21.334 0.914062L19.4668 6.09098C21.1903 11.7787 21.1903 20.2206 19.4668 25.9086L21.334 31.085C27.5474 28.8879 31.9997 22.9652 31.9997 15.9992C31.9997 9.03424 27.5474 3.11124 21.334 0.914062Z" fill="#E61E25"></path><path d="M21.3343 6.09115V0.91423C19.6657 0.324132 17.871 0 16 0C18.4672 0 15.0463 8.36156 21.3343 6.09115Z" fill="#E4E4E4"></path><path d="M16.0001 31.9985C17.8711 31.9985 19.6658 31.6744 21.3344 31.0842V25.9078C15.1096 25.2866 16.0001 31.9985 16.0001 31.9985Z" fill="#E4E4E4"></path><path d="M0 15.9966C0 22.9859 4.48265 28.9242 10.7282 31.1036V0.890625C4.48265 3.07004 0 9.00838 0 15.9966Z" fill="#3757A6"></path><path d="M21.334 6.08984V25.9075C23.0577 20.2195 23.0577 11.7775 21.334 6.08984Z" fill="#EF4F4E"></path><path d="M21.3345 25.909V6.09115C20.2451 2.49523 18.4673 0 16.0001 0C14.1524 0 12.3797 0.317309 10.7285 0.893558V31.1067C12.3797 31.683 14.1524 31.9998 16.0001 31.9998C18.4673 31.9997 20.2451 29.5045 21.3345 25.909Z" fill="#F3F4F5"></path></g><defs><clipPath id="clipfra"><rect width="32" height="32" fill="white"></rect></clipPath></defs></svg>