<svg width="32" height="32" viewBox="0 0 32 32" fill="none" xmlns="http://www.w3.org/2000/svg"><g clip-path="url(#clipcan)"><path d="M16.0012 31.9986C24.8374 31.9986 32.0005 24.8355 32.0005 15.9993C32.0005 7.16313 24.8374 0 16.0012 0C7.16508 0 0.00195312 7.16313 0.00195312 15.9993C0.00195312 24.8355 7.16508 31.9986 16.0012 31.9986Z" fill="white"></path><path d="M0 15.9997C0 22.0136 3.31984 27.2499 8.22488 29.9831V2.01562C3.31984 4.74908 0 9.98507 0 15.9997Z" fill="#D32027"></path><path d="M15.9989 32.0015C15.8147 32.0015 15.6376 31.9952 15.457 31.9922C15.6365 31.9982 15.8171 32.0015 15.9989 32.0015Z" fill="white"></path><path d="M15.9997 0C15.9947 0 15.9904 0.000270224 15.9854 0.000270224C15.9903 0.000270224 15.9948 0 15.9997 0C24.8365 0 24.8365 32 15.9997 32C18.8171 32 21.4624 31.2691 23.7618 29.9908V2.00891C21.4623 0.730618 18.817 0 15.9997 0Z" fill="#E7E7E7"></path><path d="M23.7617 2.00781V29.9894C28.6741 27.2582 31.9998 22.0179 31.9998 15.999C31.9998 9.97935 28.6742 4.73903 23.7617 2.00781Z" fill="#B52025"></path><path d="M15.9996 0C15.9945 0 15.9902 0 15.9852 0C13.1684 0.00249957 10.5231 0.735685 8.22461 2.01601V29.9833C10.3788 31.1835 12.8381 31.903 15.4577 31.9901C15.6383 31.9932 15.8154 31.9995 15.9996 31.9995C24.8363 31.9997 24.8363 0 15.9996 0Z" fill="#F3F1F2"></path><path d="M22.2087 15.7103C21.9887 15.5001 21.5372 15.5234 21.4566 15.174C21.35 14.3158 21.7449 13.8161 21.994 13.2426C20.7334 13.5374 19.7395 14.0227 19.7405 12.5989C19.0167 13.4839 18.2386 14.3688 17.9172 14.2082C17.4608 13.9399 18.3553 11.6622 18.4531 10.4535C18.0115 10.6551 17.1657 11.0972 17.1657 11.0972C17.1657 11.0972 16.3969 9.59355 15.9899 8.85186V8.84375C15.9884 8.84524 15.9885 8.84652 15.9879 8.8478C15.9869 8.84679 15.9869 8.8453 15.9859 8.84375V8.85186C15.5784 9.59355 14.8101 11.0972 14.8101 11.0972C14.8101 11.0972 13.9638 10.6551 13.5227 10.4535C13.62 11.6624 14.5146 13.9401 14.058 14.2082C13.7365 14.3691 12.9586 13.4839 12.2353 12.5989C12.2353 14.0227 11.242 13.5375 9.98183 13.2426C10.2304 13.8158 10.6253 14.3155 10.5177 15.174C10.4384 15.5234 9.98663 15.5001 9.7666 15.7103C11.2291 17.1723 13.7638 18.2581 12.5564 19.4651L15.8115 19.1614C15.9181 20.2614 15.5738 21.6112 15.8727 22.3622C15.9426 22.3622 15.9197 22.3622 15.9856 22.3622C15.9866 22.3622 15.9881 22.3622 15.9897 22.3622C16.0553 22.3622 16.0311 22.3622 16.1006 22.3622C16.4055 21.5841 16.0572 20.2616 16.1638 19.1614L19.4184 19.4651C18.2122 18.2581 20.7468 17.1723 22.2087 15.7103Z" fill="#D32027"></path></g><defs><clipPath id="clipcan"><rect width="32" height="32" fill="white"></rect></clipPath></defs></svg>