<svg width="32" height="32" viewBox="0 0 32 32" fill="none" xmlns="http://www.w3.org/2000/svg"><g clip-path="url(#cliptria)"><path d="M16.0013 31.9986C24.8375 31.9986 32.0006 24.8355 32.0006 15.9993C32.0006 7.16314 24.8375 0 16.0013 0C7.1651 0 0.00195312 7.16314 0.00195312 15.9993C0.00195312 24.8355 7.1651 31.9986 16.0013 31.9986Z" fill="white"></path><path d="M31.0857 10.6641H21.2275C21.6555 14.0819 21.6583 17.8479 21.2356 21.27H31.1067C31.6827 19.6191 31.9997 17.8462 31.9997 15.9989C32 14.1273 31.6758 12.3326 31.0857 10.6641Z" fill="#E4E4E4"></path><path d="M21.2268 10.6661H31.0847C31.0829 10.661 31.0814 10.6568 31.0796 10.6522C29.032 4.8783 23.7649 0.630297 17.4365 0.0664062C19.8852 1.40888 20.6004 5.66222 21.2268 10.6661Z" fill="#D32027"></path><path d="M17.4365 31.9358C23.7765 31.3709 29.0512 27.1082 31.091 21.3189C31.0963 21.3035 31.1008 21.2883 31.1064 21.2734H21.2351C20.6138 26.3043 19.8956 30.5877 17.4365 31.9358Z" fill="#D32027"></path><path d="M0 16.0028C0 17.8503 0.317041 19.623 0.893025 21.2739H22.0592C22.4819 17.8515 22.4791 14.0858 22.0511 10.668H0.914237C0.324067 12.3366 0 14.1313 0 16.0028Z" fill="#F3F4F5"></path><path d="M0.919129 10.6514C0.917373 10.656 0.915819 10.6603 0.914062 10.6654H22.051C21.4247 5.66148 19.8857 1.40821 17.4367 0.0657321C16.963 0.0237798 16.4839 0 15.9994 0C9.03924 0 3.12004 4.44533 0.919129 10.6514Z" fill="#DB2727"></path><path d="M22.0598 21.2734H0.893555C0.898892 21.2884 0.903688 21.3035 0.908957 21.3189C3.10129 27.541 9.02853 32.0019 16.0001 32.0019C16.4847 32.0019 16.9637 31.9781 17.4373 31.9357C19.8968 30.5877 21.4385 26.3043 22.0598 21.2734Z" fill="#DB2727"></path></g><defs><clipPath id="cliptria"><rect width="32" height="32" fill="white"></rect></clipPath></defs></svg>