<svg width="32" height="32" viewBox="0 0 32 32" fill="none" xmlns="http://www.w3.org/2000/svg"><g clip-path="url(#cliprom)"><path d="M21.3353 0.914062L19.4648 6.08816C21.1873 11.7736 21.1873 20.2177 19.4648 25.9031L21.3353 31.0772C27.5456 28.8771 31.9997 22.9561 31.9997 15.9923C31.9997 9.03517 27.5456 3.11423 21.3353 0.914062Z" fill="#DF1E26"></path><path d="M21.3356 6.08915V0.915055C19.6669 0.32296 17.8705 0 16 0C18.4693 0 15.0446 8.36333 21.3356 6.08915Z" fill="#E1B623"></path><path d="M15.9998 31.9972C17.8703 31.9972 19.6668 31.6742 21.3354 31.0822V25.4371C15.1117 24.8113 15.9998 31.9972 15.9998 31.9972Z" fill="#E1B623"></path><path d="M13.598 0.180589C12.6089 0.328613 11.6468 0.570833 10.725 0.893794C4.48108 3.07378 0 9.00817 0 15.9989C0 22.9897 4.48108 28.9241 10.725 31.1041C10.8999 31.1646 11.0816 31.2252 11.2632 31.279C12.7569 31.7432 14.8764 19.8946 15.3204 16.1604C15.7981 12.1705 14.3852 0.0594791 13.598 0.180589Z" fill="#1F429A"></path><path d="M21.3353 25.9108V6.08915C20.2453 2.49622 18.469 0 15.9997 0C14.1494 0 12.3799 0.316232 10.7314 0.89487V31.1051C12.3799 31.6838 14.1562 32 15.9997 32C18.469 32 20.2453 29.5038 21.3353 25.9108Z" fill="#FFD72E"></path><path d="M21.3359 6.08984V25.9048C23.0584 20.2194 23.0584 11.782 21.3359 6.08984Z" fill="#ED2524"></path></g><defs><clipPath id="cliprom"><rect width="32" height="32" fill="white"></rect></clipPath></defs></svg>