<svg width="32" height="32" viewBox="0 0 32 32" fill="none" xmlns="http://www.w3.org/2000/svg"><g clip-path="url(#clipuk)"><path d="M2.81774 6.93359C1.78595 8.43118 1.00183 10.1127 0.526367 11.92H7.80446L2.81774 6.93359Z" fill="#29337A"></path><path d="M11.519 0.640625C9.67552 1.17749 7.96824 2.03417 6.46484 3.15155L11.519 8.20571V0.640625Z" fill="#29337A"></path><path d="M6.84082 29.115C8.25099 30.1018 9.82647 30.8657 11.5191 31.3586V24.4375L6.84082 29.115Z" fill="#29337A"></path><path d="M0.709961 20.7266C1.23899 22.4402 2.04967 24.03 3.08571 25.4442L7.80336 20.7266H0.709961Z" fill="#29337A"></path><path d="M3.08133 6.55859C2.99189 6.68087 2.90373 6.8049 2.81732 6.93022L7.80405 11.9167H0.525953C0.408 12.3656 0.311733 12.8231 0.232422 13.287H9.81026L3.08133 6.55859Z" fill="white"></path><path d="M6.46875 28.8491C6.59049 28.9399 6.7156 29.0262 6.83984 29.1132L11.5181 24.4354V31.3566C11.9676 31.488 12.424 31.6014 12.8884 31.6926V22.4297L6.46875 28.8491Z" fill="white"></path><path d="M0.354492 19.3516C0.4538 19.8159 0.57101 20.2732 0.709702 20.7219H7.80317L3.08552 25.4395C3.59861 26.1406 4.16756 26.7984 4.78577 27.4068L12.8409 19.3516H0.354492Z" fill="white"></path><path d="M11.5185 0.636806V8.20188L6.46426 3.148C5.76748 3.66616 5.11617 4.2414 4.5127 4.86413L12.8885 13.2399V0.300781C12.4244 0.392523 11.9679 0.506219 11.5185 0.636806Z" fill="white"></path><path d="M11.5197 20.6797L11.4717 20.728H11.5197V20.6797Z" fill="#D32030"></path><path d="M12.8418 19.3568H12.8898V19.3086L12.8418 19.3568Z" fill="#D32030"></path><path d="M18.9993 13.293H18.9531V13.3394L18.9993 13.293Z" fill="#D32030"></path><path d="M11.5668 11.9225L11.5195 11.875V11.9225H11.5668Z" fill="#D32030"></path><path d="M12.8896 13.2461V13.2934H12.9369L12.8896 13.2461Z" fill="#D32030"></path><path d="M20.3223 27.8189V31.4055C22.0369 30.9255 23.6356 30.1689 25.0655 29.1831L21.1792 25.2969C20.8687 26.388 20.755 26.9521 20.3223 27.8189Z" fill="#252F6C"></path><path d="M21.1997 7.32983L25.4421 3.08737C23.918 1.97121 22.189 1.12061 20.3223 0.597656V4.28203C20.8212 5.28119 20.8632 6.04039 21.1997 7.32983Z" fill="#252F6C"></path><path d="M28.848 25.5374C29.9164 24.1002 30.7491 22.4778 31.2899 20.7266H24.0371L28.848 25.5374Z" fill="#252F6C"></path><path d="M31.473 11.9234C30.9874 10.0779 30.1797 8.36484 29.1154 6.84375L24.0352 11.9234H31.473Z" fill="#252F6C"></path><path d="M22.1338 19.6263L23.2333 20.7258L28.4961 25.9886C28.6156 25.839 28.7343 25.69 28.8485 25.5367L24.0377 20.7258H31.2905C31.4287 20.2773 31.5461 19.8198 31.6452 19.3555H22.2366C22.2212 19.5498 22.1522 19.4333 22.1338 19.6263Z" fill="#E7E7E7"></path><path d="M21.0338 8.13076L25.8038 3.36028C25.6843 3.2676 25.5646 3.17538 25.4425 3.08594L21.2 7.3284C21.244 7.49614 20.9929 7.95897 21.0338 8.13076Z" fill="#E7E7E7"></path><path d="M20.3225 3.98651V0.596682C19.8735 0.470892 19.4165 0.364289 18.9521 0.277344V1.93085C19.462 2.48359 19.919 3.17787 20.3225 3.98651Z" fill="#E7E7E7"></path><path d="M22.0262 13.2921H31.7674C31.6883 12.8282 31.5919 12.3709 31.4739 11.9218H24.0361L29.1163 6.84208C28.6169 6.12862 28.0619 5.45766 27.4555 4.83594L21.7334 10.5575C21.8875 11.5954 21.9565 12.1981 22.0262 13.2921Z" fill="#E7E7E7"></path><path d="M20.9482 25.0641L25.0659 29.1822C25.7508 28.7106 26.3958 28.1856 26.9976 27.6157L21.5814 22.1992C21.4085 23.2009 21.2034 24.1685 20.9482 25.0641Z" fill="#E7E7E7"></path><path d="M18.9521 29.8833V31.7263C19.4165 31.6399 19.8733 31.5327 20.3225 31.4069V27.8203C19.9187 28.6293 19.4617 29.3313 18.9521 29.8833Z" fill="#E7E7E7"></path><path d="M21.7334 10.5559L27.455 4.83426C26.9398 4.30523 26.3876 3.81288 25.8035 3.35938L21.3076 7.85598C21.5074 8.69118 21.5982 9.64716 21.7334 10.5559Z" fill="#D71F28"></path><path d="M15.2021 0.0197264C15.4687 0.00682317 15.7345 0 16.0005 0C15.7329 0 15.4667 0.00682317 15.2021 0.0197264Z" fill="#D32030"></path><path d="M16.001 31.9968C15.7349 31.9968 15.4692 31.9895 15.2031 31.9766C15.4677 31.9899 15.7334 31.9968 16.001 31.9968Z" fill="#D32030"></path><path d="M16 31.9988C17.0095 31.9988 17.9953 31.901 18.9527 31.7218V29.8789C18.1123 30.7899 17.1291 31.9988 16 31.9988Z" fill="#D32030"></path><path d="M31.7661 13.2891H22.1515C22.2788 15.2958 22.2634 17.3593 22.1055 19.3522H31.6444C31.8753 18.2702 31.9991 17.149 31.9991 15.9985C31.9991 15.0744 31.9167 14.1705 31.7661 13.2891Z" fill="#D71F28"></path><path d="M22.1338 19.625C22.0449 20.5704 21.7352 21.307 21.5811 22.1988L26.9972 27.615C27.5331 27.1072 28.034 26.564 28.4958 25.9873L23.2332 20.7242L22.1338 19.625Z" fill="#D71F28"></path><path d="M18.9528 2.04857V0.276372C17.9956 0.0977538 17.0098 0 16 0C17.1291 0 18.1123 1.13785 18.9528 2.04857Z" fill="#D32030"></path><path d="M20.3223 28.5082C20.755 27.6411 21.1261 26.643 21.4369 25.5521L20.3223 24.4375V28.5082Z" fill="#29337A"></path><path d="M21.5756 6.95302C21.2385 5.66358 20.8212 4.49134 20.3223 3.49219V8.20578L21.5756 6.95302Z" fill="#29337A"></path><path d="M22.4446 19.9329C22.4628 19.7399 22.4792 19.5461 22.4949 19.3516H21.8633L22.4446 19.9329Z" fill="white"></path><path d="M20.3225 8.20313V3.48926C19.9187 2.68061 19.462 1.98587 18.9521 1.43359V10.2095L21.7041 7.45764C21.6626 7.28585 21.6191 7.11757 21.5757 6.94982L20.3225 8.20313Z" fill="white"></path><path d="M18.998 13.2858H22.5399C22.4705 12.192 22.3598 11.1157 22.206 10.0781L18.998 13.2858Z" fill="white"></path><path d="M18.9521 30.5612C19.462 30.0085 19.9187 29.3142 20.3225 28.5056V24.4349L21.4371 25.5495C21.6927 24.6535 21.9072 23.6962 22.0805 22.6945L18.9522 19.5664L18.9521 30.5612Z" fill="white"></path><path d="M18.9525 30.5646V19.5697L22.0807 22.6981C22.2345 21.806 22.3555 20.8809 22.4442 19.9353L21.8629 19.354H22.4944C22.6523 17.3609 22.6677 15.2974 22.5404 13.2908H18.9985L22.2062 10.0831C22.0711 9.17413 21.9039 8.29495 21.704 7.45948L18.9526 10.2114V1.43543C18.112 0.524438 17.1288 0 15.9997 0C15.7337 0 15.4679 0.00682317 15.2014 0.0197264C14.4145 0.0591116 13.6427 0.15592 12.8893 0.304476V13.2436L4.51329 4.86776C3.99865 5.39882 3.51995 5.96467 3.08184 6.56267L8.43993 11.9208L9.81071 13.2911H0.232934C0.0828914 14.1722 0 15.0761 0 16.0003C0 17.151 0.124303 18.2719 0.35467 19.354H12.8413L4.78615 27.4092C5.31363 27.9273 5.87522 28.4099 6.46972 28.8514L12.8891 22.432V31.6951C13.6424 31.8436 14.4147 31.9403 15.2017 31.9798C15.4677 31.9927 15.7335 32 15.9995 32C17.1288 32 18.112 31.4756 18.9525 30.5646Z" fill="#E51D35"></path></g><defs><clipPath id="clipuk"><rect width="32" height="32" fill="white"></rect></clipPath></defs></svg>