<svg width="32" height="32" viewBox="0 0 32 32" fill="none" xmlns="http://www.w3.org/2000/svg"><g clip-path="url(#clipice)"><path d="M16.0011 31.9984C24.8372 31.9984 32.0003 24.8353 32.0003 15.9992C32.0003 7.16308 24.8372 0 16.0011 0C7.16503 0 0.00195312 7.16308 0.00195312 15.9992C0.00195312 24.8353 7.16503 31.9984 16.0011 31.9984Z" fill="white"></path><path d="M31.0848 10.6659C31.0828 10.6609 31.0813 10.6566 31.0797 10.652C29.0317 4.87826 23.7649 0.630563 17.4365 0.0664062C19.8853 1.40887 20.6002 5.66237 21.227 10.6659C21.6547 14.0838 21.6577 17.8497 21.2348 21.2718C20.6136 26.3027 19.8956 30.586 17.4365 31.9341C23.7765 31.3692 29.0512 27.1065 31.0909 21.3173C31.0959 21.3019 31.1007 21.2868 31.1063 21.2718C31.682 19.6206 31.9993 17.848 31.9993 16.0005C31.9991 14.1292 31.6749 12.3348 31.0848 10.6659Z" fill="#2B479D"></path><path d="M22.0508 10.6655C21.4245 5.6619 19.8857 1.4084 17.4367 0.0659342C16.963 0.0239822 16.484 0 15.9995 0C9.03934 0 3.11999 4.4455 0.919297 10.6516C0.91727 10.6561 0.915784 10.6607 0.91423 10.6655C0.324132 12.3344 0 14.1288 0 16.0003C0 17.8478 0.316768 19.6204 0.893017 21.2716C0.898354 21.2866 0.90288 21.3017 0.90842 21.3171C3.10073 27.5388 9.02766 32 15.9995 32C16.484 32 16.963 31.9762 17.4366 31.9338C19.8957 30.5858 21.4378 26.3024 22.059 21.2716C22.4815 17.8493 22.4789 14.0836 22.0508 10.6655Z" fill="#3757A6"></path><path d="M22.372 19.3064C22.5077 16.9999 22.4974 14.6383 22.3463 12.3383H15.181V0.0234375C12.6597 0.150239 10.2941 0.863964 8.21294 2.02579V12.3383H0.426411C0.150514 13.5156 0 14.7411 0 16.0025C0 17.1353 0.119506 18.2398 0.343318 19.3064H8.21273V29.9792C10.2939 31.141 12.6595 31.8545 15.1808 31.9816V19.3064H22.372Z" fill="#FFD72E"></path><path d="M31.5723 12.3359H24.8791H21.5879C21.7389 14.6359 21.7493 16.9975 21.6136 19.304H24.9046H31.6556C31.8797 18.2376 31.9989 17.1329 31.9989 16.0001C31.9989 14.7387 31.8484 13.5132 31.5723 12.3359Z" fill="#FFD00A"></path><path d="M31.7285 13.0781H20.8359C20.9565 14.9127 20.9648 16.7963 20.8567 18.636H31.7803C31.9234 17.7788 31.9999 16.8989 31.9999 16.0008C31.9999 15.0019 31.9046 14.026 31.7285 13.0781Z" fill="#BE2126"></path><path d="M22.2763 13.0755H14.5406V0.0664062C12.5615 0.245293 10.6875 0.78513 8.98273 1.61904V13.0758H0.27083C0.0947805 14.0234 0 14.9996 0 15.9984C0 16.8965 0.0760676 17.7764 0.219015 18.6336H8.98246V30.3773C10.6872 31.2115 12.5612 31.7511 14.5403 31.9299V18.6334H22.2968C22.4051 16.7937 22.3966 14.9101 22.2763 13.0755Z" fill="#D32027"></path></g><defs><clipPath id="clipice"><rect width="32" height="32" fill="white"></rect></clipPath></defs></svg>