<svg width="80" height="81" viewBox="0 0 80 81" fill="none" xmlns="http://www.w3.org/2000/svg" class="community__hosting__heart"><path d="M26.1753 79.8725C26.3296 79.5377 26.3249 79.4002 26.3249 79.4002C26.3249 79.4002 26.2431 79.4302 26.2174 79.486C26.1917 79.5418 26.166 79.5976 26.1917 79.5418C26.2174 79.486 26.2689 79.3744 26.3928 78.9579C26.4278 79.177 26.4676 79.5336 26.1753 79.8725Z" fill="#A599F0"></path><path d="M40.3492 73.6177C43.2317 71.4957 47.7413 70.1235 50.895 67.8558C51.2737 67.6244 50.9651 68.2941 51.8558 67.6897C53.3356 66.545 55.3625 65.2465 57.4711 63.918C59.5798 62.5895 61.7961 61.1752 63.6289 59.8549L63.5003 60.1339C64.2017 59.6453 64.7464 58.6109 65.4734 58.0664C65.5295 58.0923 65.3448 58.3454 65.5646 58.3114C65.5809 57.9807 66.6821 57.0674 66.806 56.6509C67.1029 56.4494 67.2455 56.5828 67.6242 56.3514L67.8252 55.7675C68.3559 54.3207 70.1935 53.1379 71.124 51.2664C71.1286 51.4039 71.0515 51.5712 71.159 51.4855C71.9398 50.0863 72.854 48.5456 73.6816 46.8974C74.5093 45.2491 75.3064 43.5192 75.8021 41.8533C75.8629 42.0166 75.9798 42.2057 76.113 42.0642C75.9657 41.7934 76.1785 40.7413 76.396 39.8267C76.611 39.6552 76.597 39.2427 76.6905 38.7446C76.728 38.2206 76.7911 37.6408 76.9665 37.1127L76.9968 37.1944C76.8566 36.3179 77.399 36.0266 77.1255 35.2917L77.413 34.8153C77.2401 34.6003 77.3125 34.2954 77.4411 34.0164C77.5393 33.6557 77.6936 33.3209 77.5721 32.9942L77.4903 33.0242C77.4412 32.3927 77.6516 32.0837 77.6025 31.4522L77.6283 31.3964C77.5254 29.9959 77.6353 29.167 77.3337 29.231C77.5652 28.7288 77.5442 30.5458 77.8481 29.7387C77.5489 27.4358 76.9739 25.1412 76.0459 23.0221C75.1179 20.9031 73.7808 18.9338 72.0182 17.4449C71.9317 17.3374 71.8452 17.2299 71.8148 17.1482C71.7283 17.0407 71.6722 17.0148 71.6418 16.9332C71.5554 16.8257 71.4689 16.7182 71.4385 16.6365C71.2141 16.5331 70.847 16.2963 70.48 16.0595C70.0873 15.8785 69.6946 15.6975 69.5005 15.6757C69.6688 15.7533 69.2971 15.3791 69.0984 15.2198C68.3644 14.7462 68.1026 15.1668 67.3124 14.6674C67.7005 14.7109 67.8384 14.7068 67.7776 14.5435C67.3896 14.4999 66.8893 14.4047 66.4451 14.3353C65.9449 14.2401 65.4704 14.0891 65.0005 14.0755C65.1384 14.0714 65.4143 14.0632 65.3839 13.9815C64.8322 13.9979 64.388 13.9285 63.9695 13.8033C63.5511 13.6781 63.0812 13.6645 62.6674 13.6768L63.0204 13.5012C61.6014 13.1856 62.5341 13.8184 61.3138 13.662C61.6154 13.598 61.5032 13.5463 61.5547 13.4347C60.9258 13.6184 60.1801 13.613 59.4647 13.6893C59.107 13.7274 58.6933 13.7397 58.3356 13.7778C57.9779 13.816 57.6763 13.8799 57.3748 13.9439C57.4566 13.914 57.4005 13.8881 57.4005 13.8881C57.0989 13.9521 56.7412 13.9902 56.4654 13.9984C56.1638 14.0624 55.8062 14.1006 55.5046 14.1645C55.203 14.2285 54.8453 14.2666 54.518 14.3864C54.1907 14.5062 53.8892 14.5702 53.5619 14.69C53.0663 14.7322 53.5736 14.2218 52.3463 14.671C52.5239 15.0235 50.2493 15.5313 51.1376 15.6701C50.5906 15.8239 49.8799 16.0377 49.2253 16.2772C48.5708 16.5168 48.0284 16.8081 47.6754 16.9837C48.1056 16.6407 46.9507 16.785 47.8203 16.374L47.0793 16.506C47.1003 16.3128 47.8157 16.2365 47.5094 16.163C47.0746 16.3686 45.887 17.1744 45.4779 17.3241C44.7813 17.9502 44.309 18.6798 43.1214 19.4856C43.603 19.031 42.565 19.3645 42.9133 19.0514C42.4621 19.5877 42.0671 20.1498 41.672 20.7119C41.2675 20.9991 41.4171 20.5269 40.9098 21.0373C41.022 21.089 40.7812 21.3163 40.6784 21.5395C40.5147 21.5994 39.2032 22.8217 38.8105 22.6407C38.5346 22.6489 39.3435 22.0745 38.883 22.3358C38.212 22.9061 38.2985 23.0136 37.6276 23.584L37.5715 23.5581C37.0852 23.8753 36.454 24.8022 37.0525 24.5367C37.3751 24.2795 36.8023 24.4891 37.2886 24.172C37.1647 24.5884 36.4727 25.352 35.8578 25.9482C36.0425 25.695 35.9303 25.6433 35.9257 25.5058C35.3248 26.5144 34.5861 27.527 33.9034 28.5655C34.046 28.6989 33.9665 27.9857 34.1302 27.9258C33.5153 28.522 33.1249 29.2216 32.7905 29.947C32.4562 30.6725 32.1476 31.3421 31.7526 31.9043C31.7993 31.6552 32.0284 31.8961 31.9723 31.8702C31.6637 32.5399 31.4392 32.4364 31.4018 32.9604C31.2639 32.9645 31.2569 33.5702 31.2194 34.0942C31.2849 34.395 31.1119 34.1799 31.2358 33.7635C31.2195 34.0942 31.14 35.0047 31.1727 35.967C31.2053 36.9292 31.5139 37.8833 31.7313 38.5923C31.8131 38.5624 32.47 39.2034 32.7248 39.3885L32.4793 39.4783C32.5401 39.6416 32.713 39.8566 32.9117 40.0159C33.1104 40.1751 33.2531 40.3085 33.2274 40.3643C33.3957 40.4419 33.3652 40.3602 33.1665 40.201C33.0543 40.1493 32.9679 40.0417 32.8557 39.99C32.7692 39.8825 32.6266 39.7492 32.4583 39.6716C32.2035 39.4865 32.0001 39.1898 31.8575 39.0564C31.7149 38.9231 31.7406 38.8672 31.9136 39.0823C31.9183 39.2197 32.2034 39.4865 32.4021 39.6457C32.6569 39.8308 32.8253 39.9084 32.6617 39.9683C32.8043 40.1017 32.9164 40.1534 33.0847 40.2309C33.2531 40.3085 33.3396 40.416 33.5336 40.4378C33.8398 40.5113 34.0946 40.6963 34.4056 40.9073C34.2372 40.8297 33.7463 41.0094 34.277 41.1863C34.5271 41.2339 34.6393 41.2856 34.7515 41.3373C34.8334 41.3074 34.8894 41.3332 34.8894 41.3332C34.9713 41.3033 34.9712 41.3033 35.385 41.291C35.579 41.3128 35.7427 41.2529 35.8807 41.2488C35.9321 41.1372 36.1261 41.1589 36.3201 41.1807C36.5142 41.2025 36.596 41.1725 36.4277 41.095C36.5142 41.2025 36.8414 41.0827 37.1734 41.1003C37.5311 41.0622 37.8326 40.9982 37.8116 41.1915L37.7392 41.4964C38.2044 41.3725 38.4147 41.0635 38.6812 40.7804C38.7373 40.8063 38.8753 40.8022 38.8496 40.858C38.8145 40.6389 39.06 40.549 39.3873 40.4292C39.5509 40.3693 39.7146 40.3094 39.8782 40.2495C39.9857 40.1638 40.1751 40.0481 40.2266 39.9365C41.1266 39.6071 42.1412 38.5862 42.6064 38.4624C43.0272 37.8444 43.1722 37.2347 43.6748 36.5868C43.6537 36.78 43.5205 36.9216 43.607 37.0291C43.9811 36.6603 43.8899 36.4153 44.0138 35.9988C44.0185 36.1363 44.645 35.0719 44.9022 34.5139C44.9864 33.7408 44.6334 33.9164 44.5212 33.8647C44.6544 33.7231 44.7573 33.4999 44.7783 33.3066C44.8251 33.0576 44.8158 32.7826 44.8064 32.5077C44.7877 31.9579 44.7129 31.3821 44.9187 30.9357C45.0098 31.1807 45.094 32.0313 45.239 31.4216C45.6294 30.722 44.9421 29.9994 44.9866 28.8697L44.6382 29.1828C44.8136 28.6547 44.2245 27.5713 44.6126 27.6149C44.4349 27.2624 44.484 26.2702 44.1871 26.4716C44.1218 24.5471 42.8782 22.0797 43.0816 20.7527C42.9343 20.4818 42.7473 19.8544 42.6702 20.0218C42.6328 20.5458 43.0209 20.5894 42.918 20.8126C42.8268 20.5676 42.6889 20.5717 42.6889 20.5717C42.6141 19.996 42.4318 19.506 42.89 19.9878C42.6796 18.6731 41.8871 18.9168 41.4173 17.2795C41.5552 17.2754 41.6066 17.1638 41.3986 16.7296L40.7931 15.977C40.4285 14.9971 40.8516 15.2598 41.041 15.1441C40.7207 14.6582 40.4776 14.0049 40.141 13.8498L40.0873 13.0808C40.1059 13.6306 39.7156 12.7065 39.5426 12.4915L39.7155 12.7065C39.767 12.5949 39.3602 12.0015 39.1569 11.7048C39.0797 11.8722 39.3486 12.4697 39.4701 12.7964C39.241 12.5555 39.0633 12.203 38.722 11.9104C38.9979 11.9022 38.3878 11.0121 38.154 10.6338C37.8899 10.1738 37.6444 10.2636 37.5579 10.1561C37.6655 10.0704 37.0647 9.45523 37.4317 9.69203C37.5743 9.8254 37.5837 10.1003 37.8385 10.2854C37.7169 9.95877 37.9063 9.84306 37.3663 9.39123C36.9127 9.04692 37.0483 9.78594 36.5761 8.89178C36.7748 9.05101 36.9128 9.04692 37.0811 9.12449L36.5831 8.28612L36.3938 8.40183C36.3891 8.26437 36.4195 8.34604 36.3892 8.26438C36.0011 8.22085 35.3605 7.24911 35.0029 7.28724C34.6616 6.99464 34.3974 6.53464 34.0819 6.18623L34.1379 6.21208C33.792 5.78202 33.1702 5.36016 32.7517 5.23497L32.8335 5.20501C32.5787 5.01993 31.9873 4.67973 31.5993 4.6362C31.0032 4.15852 31.791 3.77736 30.8769 3.6944C30.7086 3.61683 30.5403 3.53927 30.4024 3.54336C30.2645 3.54745 30.1265 3.55156 30.0447 3.5815C29.8811 3.6414 29.7735 3.72715 29.9161 3.86052C29.6356 3.73124 29.2989 3.57608 28.9927 3.50261C28.6864 3.42913 28.2984 3.38561 27.9922 3.31213C27.3236 3.13933 26.6339 3.15978 26.0472 2.95703C25.8578 3.07273 25.97 3.12444 25.6124 3.16258C24.6726 3.13541 23.63 3.33147 22.6995 3.57924C21.7691 3.827 20.8691 4.15642 20.0158 4.23678C20.502 3.91963 19.9807 4.01765 19.8942 3.91014C19.5202 4.279 19.2607 3.95647 19.2186 4.343C19.3612 4.47637 19.3659 4.61382 19.9129 4.45999C19.3706 4.75128 18.7207 5.12833 18.1222 5.39377C17.498 5.71501 16.9557 6.00632 16.6284 6.12611C16.9557 6.00632 16.7967 6.20367 16.5816 6.37517C16.46 6.04853 15.7026 6.51132 15.2514 7.0476L15.2864 7.26672L14.8212 7.3906C14.6623 7.58796 14.8656 7.88465 14.211 8.12423C14.1549 8.09837 14.0427 8.04664 13.9352 8.1324C13.5144 8.75033 12.9907 9.59149 12.3151 10.0243L11.7166 10.2898C11.5319 10.5429 11.2747 11.101 11.7306 10.7022C10.737 11.5297 10.2087 12.2334 9.77388 12.439C9.64529 12.718 9.5167 12.997 9.38812 13.276C9.25953 13.555 9.13095 13.8341 8.97665 14.1689C8.84806 14.4479 8.69376 14.7827 8.53946 15.1175C8.46231 15.2849 8.38515 15.4524 8.33372 15.564L8.10226 16.0662C7.79366 16.7358 7.45468 17.3238 7.14608 17.9935C6.86319 18.6073 6.55459 19.2769 6.29742 19.835L6.21088 19.7275C5.84617 20.3712 6.33711 20.1916 6.07527 20.6121C6.00982 20.3114 5.61944 21.011 5.62647 20.4053C5.13318 21.3281 5.423 21.7323 5.27804 22.342C5.42064 22.4754 5.31545 21.818 5.51415 21.9773C5.51882 22.1147 4.97882 23.2866 5.20791 23.5275C5.04893 23.7249 4.87591 23.5098 4.81513 23.3465L4.78239 24.008C4.27976 24.6559 4.66556 22.1951 4.025 22.8471L3.90579 23.401C3.48031 23.8815 4.01802 21.829 3.51302 23.22C3.48026 23.8815 3.74913 24.479 3.98058 23.9767C3.72105 25.2779 4.50418 24.7593 4.16282 26.0904C3.9267 26.4551 4.34523 24.9567 4.10443 25.184C3.76544 25.7719 3.95707 26.5368 3.78172 27.0649C4.0085 26.4252 4.19551 27.0526 4.20952 27.465C3.95702 28.1605 4.02723 26.9751 3.84017 27.9713C3.95705 28.1605 3.9336 29.0969 4.21182 28.3456C4.55779 28.7756 3.94294 29.3718 4.15565 29.9434C3.88914 30.2265 3.64842 28.8302 3.40993 29.938C3.68111 29.7924 3.65067 31.3344 4.04576 30.7723C3.92185 31.1888 3.70212 31.2228 3.58056 30.8962C3.45198 31.1752 3.54779 31.5576 3.58751 31.9142C3.65296 32.215 3.66234 32.49 3.41687 32.5798L3.64597 32.8207C3.56882 32.9881 3.49632 33.293 3.34201 33.6278C3.30459 34.1518 3.70429 35.3508 3.31622 35.3073C3.377 35.4706 3.39331 36.7636 3.62476 36.2613C3.76505 35.5141 3.42845 35.359 3.7464 34.9643C3.48923 35.5223 3.83982 36.0898 3.90994 36.5281L3.74633 36.588C3.81177 36.8887 3.83044 37.4386 4.02914 37.5978C3.91226 37.4087 3.86085 37.5203 3.83981 37.7135L4.06889 37.9544C4.2699 38.9942 3.66444 38.2416 3.86545 39.2814L3.61766 38.4907C3.67844 38.654 3.49846 39.0447 3.62468 39.5088C3.87949 39.6938 4.13896 40.0164 4.33766 40.1756C4.49427 40.7214 4.12724 40.4846 4.42177 41.0262L4.06646 40.3212C3.97997 40.2137 3.80926 40.8793 3.9191 41.6741C4.10143 42.1641 4.5129 42.8949 4.48488 42.0701C4.58071 42.4526 4.51754 43.0324 4.31417 42.7357C4.59233 43.6081 4.52923 42.5642 4.80272 43.2991C4.78168 43.4924 4.7653 43.8231 4.72321 44.2096C4.68112 44.5962 4.69517 45.0086 4.70451 45.2835L4.15514 44.5567L4.31173 45.1025C3.84888 44.4833 4.18785 45.519 3.79044 45.2005C3.83017 45.5571 4.03823 45.9913 4.21588 46.3438C4.42398 45.1542 5.16259 47.389 5.50625 46.9384C6.02284 48.3266 4.74648 48.1444 5.86622 49.4046C5.91298 49.1555 6.45759 49.7448 6.04151 48.8765C6.31967 49.7489 6.63765 49.3542 6.83866 50.394C6.42724 49.6632 6.73338 51.3603 6.06249 50.3069C6.25652 50.3287 5.95738 49.6496 5.8405 49.4604C5.7984 49.8469 5.401 49.5285 5.73526 50.4267C5.97369 50.9425 6.22142 51.7333 6.4365 51.5618C6.62586 51.4461 6.13266 50.7452 6.49968 50.982C6.97654 52.0136 6.68427 52.3525 7.30142 52.6369C7.00222 51.9578 7.18692 51.7046 7.35056 51.6447L7.76197 52.3756L7.53754 52.2721C7.94192 53.6086 7.96068 52.5348 8.41649 53.7597L8.35804 54.477C7.9653 54.296 7.6895 52.6805 7.39727 53.0194C7.70114 53.836 8.03779 53.9911 8.22945 54.756C8.08685 54.6226 7.99566 54.3776 7.90917 54.2701C8.05644 54.541 7.60525 55.0772 8.38368 56.0449C8.76004 56.5566 8.60809 56.1483 8.77173 56.0884C9.42158 57.335 9.70675 57.6018 10.1486 58.4143C9.76049 58.3708 10.8592 59.8243 10.0901 59.1315C10.0808 58.8566 9.84236 58.3408 9.54782 57.7992C9.25329 57.2575 8.95877 56.7158 8.67825 56.5865C8.53329 57.1963 8.25744 55.5807 7.78288 55.4297C8.20364 56.4355 7.87638 56.5553 7.69169 56.8084C7.81324 57.1351 8.06803 57.3202 8.1288 57.4835C8.40466 57.4753 8.22699 57.1228 8.41635 57.0071C8.89788 58.1762 9.53843 59.1479 10.0527 59.6556C10.1228 60.0938 9.87271 60.0462 9.63895 59.6678C10.02 60.317 10.3753 61.022 10.7563 61.6712C11.1116 62.3762 11.4365 62.9995 11.7614 63.6228C11.6726 62.6347 12.6357 64.9729 12.6381 64.2298C12.3389 63.5507 12.2594 62.8375 12.6264 63.0743C12.8345 63.5084 12.4628 63.1342 12.4978 63.3533C12.9817 63.7793 12.6685 64.3114 13.2599 64.6517C12.4768 63.5465 12.7082 64.668 12.3201 64.6245C12.9817 65.4029 12.0746 64.7143 12.5725 65.5527C13.2341 66.3312 13.9565 67.273 14.5666 68.163C15.0528 69.4696 16.4319 71.0523 17.1285 72.0499C17.3716 72.7032 16.841 72.5263 17.1916 73.0938C17.6288 73.7689 17.1683 72.4065 17.7013 73.464L17.5891 73.4123C17.8743 73.679 18.6503 75.3898 19.2581 75.3993L18.7579 75.304C18.8748 75.4932 19.0734 75.6524 19.1599 75.7599C19.0524 75.8457 19.1179 76.1465 18.8327 75.8798C19.0243 76.6446 19.7583 77.1182 20.2515 77.8191L20.0949 77.2733C20.5531 77.7551 20.8734 78.241 21.1936 78.7268C21.5396 79.1569 21.8856 79.587 22.3952 79.9572L22.2619 80.0987C22.4863 80.2021 22.7108 80.3055 22.9609 80.3532C22.8534 80.4389 22.8837 80.5206 23.052 80.5981C23.1946 80.7315 23.5828 80.7751 23.7721 80.6593C23.5267 80.7492 23.2507 80.7574 22.9749 80.7655C22.5307 80.6962 22.0305 80.6009 21.6074 80.3383C21.3783 80.0974 21.5723 80.1191 21.7967 80.2226C21.965 80.3001 22.2152 80.3478 22.124 80.1028C22.0632 79.9395 21.778 79.6727 21.5489 79.4318C21.2637 79.1651 21.0347 78.9242 20.8407 78.9025C21.1305 79.3067 21.2123 79.2767 21.4671 79.4618C21.3689 79.8225 20.8804 79.259 20.4876 79.0781C20.6606 79.2931 20.8383 79.6456 20.9201 79.6156C20.4409 79.3271 20.151 78.9229 19.632 78.2778C20.0598 78.6779 19.5923 77.9212 19.8167 78.0246C19.5713 78.1145 19.0266 77.5252 18.5287 76.6869C18.3371 75.922 17.2921 75.2374 16.6773 74.2099C17.1822 74.4426 17.6919 74.8128 18.2061 75.3204C17.9069 74.6413 17.769 74.6454 17.4137 73.9404C17.021 73.7594 16.6329 73.7158 16.0017 73.019L16.135 72.8775C15.56 72.2066 15.3449 72.3781 14.7605 71.4322C13.8208 69.7813 12.7431 68.1345 12.0371 66.862L12.1705 66.7205C11.3546 66.2769 10.686 64.4803 9.99411 63.6202C9.63413 62.7778 9.08014 61.9136 8.63834 61.1011C8.19653 60.2886 7.81546 59.6393 7.77106 59.1453C6.18151 56.2478 4.90754 53.6987 3.88607 50.4541L4.36997 50.88C3.99361 50.3683 4.43778 50.4377 4.14324 49.896C4.14088 50.6391 3.56817 49.2251 3.33441 48.8467C3.089 47.3129 2.36442 45.4905 1.8525 44.2398L2.04183 44.1241C1.7169 43.5007 1.58139 42.7617 1.47154 41.9669C1.41781 41.1979 1.35939 40.2915 1.24955 39.4966C1.27059 39.3034 1.481 38.9944 1.38049 38.4745C0.990124 37.5504 0.919983 37.1121 0.735352 35.7416C0.747057 35.2734 0.723736 34.5861 0.756487 33.9247C0.78924 33.2632 0.87808 32.6276 0.971606 32.1295C0.677191 28.3404 1.59836 24.5703 2.60139 20.7702L2.89832 20.5688C3.11576 19.6542 3.35888 18.6837 3.73997 17.7092C3.9457 17.2628 4.12107 16.7347 4.3268 16.2883C4.53254 15.8418 4.82009 15.3655 5.02582 14.919C6.01241 13.0734 7.14631 11.4987 8.06509 10.0954L8.1656 10.6153C8.32457 10.4179 8.4835 10.2206 8.64247 10.0232C8.80144 9.82585 8.96046 9.6285 9.06333 9.40529C9.29945 9.04052 9.37191 8.73563 9.15216 8.76967C9.58231 8.42667 9.89561 7.89449 10.3515 7.49568C10.7512 7.07101 11.2071 6.67221 11.5087 6.60823C12.3129 5.89636 12.3597 5.6473 13.0564 5.02118C13.9471 4.41683 14.5408 4.01391 15.1907 3.63687C15.7845 3.23397 16.4087 2.91272 17.2737 2.36417C17.11 2.42407 16.9464 2.48397 16.8388 2.56972C16.6799 2.76708 16.7407 2.93042 17.2012 2.66907C17.8208 2.21037 19.7891 1.62908 18.9008 1.49031C19.9949 1.18265 21.1404 0.763384 22.4285 0.477487C23.7166 0.191591 25.0094 0.0431588 26.1221 0.285349C25.9234 0.126123 26.5312 0.135602 26.7509 0.101562C27.7468 0.154579 28.752 0.48253 29.7269 0.728814C30.2014 0.879857 30.6502 1.08668 31.0687 1.21186C31.4871 1.33705 31.8799 1.51808 32.2984 1.64327C32.5532 1.82835 31.7724 1.60383 32.476 1.99576C32.9506 2.1468 32.5532 1.82834 33.1142 2.08689C33.8179 2.47882 34.5215 2.87073 35.1737 3.37427C35.8259 3.8778 36.3706 4.46712 36.941 5.0006C37.2262 5.26734 37.4295 5.56401 37.689 5.88656C37.8924 6.18325 38.1775 6.45 38.3809 6.74669C38.7876 7.34007 39.2762 7.90349 39.6269 8.47101C42.7149 12.3974 44.4259 17.2452 45.7606 21.5814L45.6484 21.5297C46.4409 22.9097 46.2397 25.1173 47.0228 26.2224C46.9807 26.6089 47.2379 27.6746 46.9527 27.4078C47.4085 28.6327 47.1559 30.9519 47.247 32.8206C47.2681 32.6273 47.2377 32.5457 47.2587 32.3524C47.0974 33.2929 46.9617 34.1775 46.7443 35.0922C46.5269 36.0068 46.2533 36.8956 45.7039 37.7925C45.8068 37.5693 45.905 37.2086 45.8185 37.1011C45.3977 37.719 45.2503 39.0719 44.5607 39.0924C44.3246 39.4571 44.5747 39.5048 44.6776 39.2815C43.9342 40.1567 43.0786 40.9802 42.106 41.6145C41.1335 42.2488 40.0487 42.8314 38.929 43.1948C37.7531 43.5325 36.5468 43.7884 35.2447 43.6619C33.9426 43.5354 32.6054 43.1898 31.4739 42.3978C30.6791 41.7609 30.4968 41.2709 30.3799 41.0817C30.2888 40.8367 30.3145 40.7809 30.3963 40.751C30.56 40.6911 30.5647 40.8286 29.6998 39.7534C29.6647 39.5343 29.4496 39.7058 29.5571 39.62C29.2369 39.1342 29.2229 38.7218 29.2088 38.3094C29.1948 37.897 29.2673 37.5921 29.0336 37.2138C28.7974 37.5786 28.8255 36.7796 28.6315 36.7579C28.6128 36.208 28.6806 35.7657 28.697 35.435C28.7952 35.0743 28.8419 34.8252 28.9144 34.5203C28.9612 34.2713 29.0337 33.9664 29.0805 33.7173C29.153 33.4125 29.2254 33.1076 29.2675 32.7211L29.3844 32.9102C29.4078 31.9738 29.7889 30.9993 30.1186 30.1364C30.53 29.2435 30.89 28.4623 31.1379 27.6293C34.0368 23.5529 37.6277 20.3366 41.5692 17.6878C42.5418 17.0535 43.5704 16.445 44.599 15.8366L46.2004 15.0185L47.8321 14.2821C50.0366 13.336 52.302 12.5533 54.7145 12.0414C57.1014 11.5853 59.5232 11.3483 61.9848 11.4679C64.4465 11.5875 66.9221 12.1196 69.2482 13.1238C70.4264 13.6668 71.5531 14.3214 72.5723 15.0617C73.0819 15.4319 73.5658 15.8579 74.024 16.3396C74.2531 16.5805 74.5079 16.7656 74.737 17.0065L75.3682 17.7033C77.0115 19.7461 78.1125 22.0802 78.7483 24.5381C78.8721 25.7453 78.8651 26.351 78.9703 27.0084C79.0754 27.6657 79.1806 28.3231 79.3606 29.5562C79.2741 29.4487 79.2694 29.3112 79.1923 29.4786C79.5546 29.5779 79.3348 31.2357 79.62 31.5024C79.5966 32.4388 79.5428 33.2935 79.489 34.1483C79.3533 35.0329 79.2996 35.8877 79.164 36.7723C79.0961 37.2147 79.0283 37.657 78.9044 38.0735C78.8366 38.5158 78.7127 38.9323 78.5888 39.3488C78.3971 40.2076 78.1235 41.0964 77.8499 41.9851C77.9692 41.4312 77.8172 41.0229 77.6208 41.7443C77.6302 42.0192 77.5834 42.2683 77.6185 42.4874L77.511 42.5731C77.3613 43.0454 77.3239 43.5694 77.6418 43.1747C76.1619 47.5668 73.616 51.4677 70.668 54.9126C67.72 58.3575 64.3395 61.2649 60.8118 63.9014C59.0561 65.0543 56.6856 66.8034 54.7663 68.0162C48.7956 71.083 43.2363 73.2568 37.2656 76.3236C37.4503 76.0705 37.9086 74.9285 40.3492 73.6177Z" fill="#A599F0"></path><path d="M24.9409 80.9273C24.609 80.9097 23.7814 80.9342 24.4056 80.613C24.4921 80.7205 24.962 80.7341 24.9409 80.9273Z" fill="#A599F0"></path><path d="M12.9934 64.9348C12.9373 64.9089 12.9279 64.634 12.8718 64.6081C12.9887 64.7973 13.2692 64.9266 13.3043 65.1457C13.2131 64.9007 13.1056 64.9865 12.9934 64.9348Z" fill="#A599F0"></path><path d="M10.5459 60.3564C10.6838 60.3523 11.3501 61.2683 11.6446 61.8099L10.5459 60.3564Z" fill="#A599F0"></path><path d="M8.95637 55.8352C8.88624 55.397 8.97274 55.5045 9.2369 55.9645C9.21119 56.0203 9.12469 55.9128 8.95637 55.8352Z" fill="#A599F0"></path><path d="M8.56372 55.6542C8.38609 55.3017 8.40711 55.1085 8.37207 54.8893C8.29025 54.9193 8.81384 55.7018 8.56372 55.6542Z" fill="#A599F0"></path><path d="M44.7434 29.8401L44.6429 29.3202L44.7551 29.3719L44.7434 29.8401Z" fill="#A599F0"></path><path d="M35.6825 26.4763C35.9443 26.0557 36.0354 26.3006 36.1172 26.2707C35.825 26.6096 36.1079 25.9958 35.6825 26.4763Z" fill="#A599F0"></path><path d="M52.6057 14.9936L52.5239 15.0235L52.4585 14.7228L52.6057 14.9936Z" fill="#A599F0"></path><path d="M41.3502 64.066C41.3455 63.9285 41.1 64.0183 41.2636 63.9585C41.3758 64.0102 41.4063 64.0918 41.3502 64.066Z" fill="#A599F0"></path><path d="M53.181 78.2457C52.7087 78.9753 52.2108 78.1369 51.7292 78.5915C51.6474 78.6215 51.7713 78.205 51.6637 78.2907C51.1564 78.8011 50.5089 78.435 50.0507 77.9533L50.1022 77.8417C50.0157 77.7342 49.8356 78.1248 49.7234 78.0731C49.7491 78.0173 49.7749 77.9615 49.7445 77.8798C49.6977 78.1289 49.5552 77.9955 49.478 78.1629C49.4476 78.0813 49.4686 77.888 49.4382 77.8063L49.3354 78.0295C49.1086 78.6692 48.8913 77.9602 48.6808 78.2691C48.7066 78.2133 48.7322 78.1575 48.7018 78.0759C48.2717 78.4189 47.8533 78.2937 47.388 78.4176C47.4395 78.306 47.4348 78.1685 47.4302 78.031C47.3834 78.2801 47.2758 78.3658 47.1122 78.4257C47.1028 78.1508 46.8714 78.653 46.8106 78.4897L46.8363 78.4339C46.7077 78.7129 46.7194 78.2448 46.6213 78.6054L46.5862 78.3863C46.5441 78.7729 46.4693 78.1971 46.3922 78.3645L46.3664 78.4203C46.2589 78.5061 46.2799 78.3128 46.1981 78.3428L46.2238 78.287C46.0345 78.4027 45.9433 78.1577 45.9527 78.4326C45.9433 78.1577 46.142 78.3169 46.0462 77.9345C45.4477 78.1999 44.9475 78.1047 44.3654 78.0394C44.3046 77.8761 44.3046 77.8761 44.2999 77.7386C44.2742 77.7944 44.0801 77.7726 44.003 77.94C44.003 77.94 43.9983 77.8026 43.9422 77.7767C43.8557 77.6692 43.7879 78.1116 43.7272 77.9483C43.7786 77.8367 43.8043 77.7808 43.7996 77.6434C43.6967 77.8666 43.5846 77.8149 43.477 77.9006C43.5027 77.8448 43.5285 77.789 43.5542 77.7332C43.4256 78.0122 43.3297 77.6298 43.2269 77.853L43.304 77.6856C43.131 77.4706 43.2059 78.0463 43.0633 77.9129C43.089 77.8571 43.1146 77.8013 43.0843 77.7196C42.93 78.0544 42.7313 77.8952 42.5419 78.0109L42.5676 77.9551C42.4297 77.9592 42.2614 77.8816 42.072 77.9973C42.0417 77.9157 42.1398 77.555 41.9762 77.6149C41.9341 78.0014 41.705 77.7605 41.719 78.1729C41.6068 78.1212 41.4081 77.962 41.3006 78.0478C41.352 77.9362 41.2865 77.6354 41.3941 77.5496L41.3591 77.3305C41.3544 77.193 41.4713 77.3822 41.4105 77.2189C41.3287 77.2488 41.1954 77.3904 41.1089 77.2829C41.006 77.5061 40.8261 77.8967 40.6624 77.9566C40.7396 77.7892 40.6483 77.5442 40.7302 77.5143L40.4216 78.1839C40.3397 78.2138 40.4122 77.909 40.3608 78.0206C40.3912 78.1023 40.2837 78.188 40.2579 78.2438C40.2276 78.1621 40.0125 78.3337 40.0546 77.9471C40.0499 77.8097 40.1621 77.8614 40.0756 77.7539C39.9377 77.7579 39.9423 77.8954 39.8862 77.8695L39.9119 77.8137C39.8558 77.7879 39.7226 77.9294 39.7576 78.1486C39.8138 78.1744 39.7787 77.9553 39.8091 78.0369C39.7319 78.2044 39.6244 78.2901 39.4865 78.2942C39.5122 78.2384 39.5636 78.1268 39.5332 78.0451C39.3485 78.2983 39.241 78.3841 39.0517 78.4998C39.0306 78.693 39.1242 78.1949 39.1545 78.2765C39.0073 78.0057 38.7501 78.5637 38.5724 78.2113C38.5982 78.1554 38.5818 78.4862 38.5514 78.4045C38.4392 78.3528 38.4859 78.1037 38.4345 78.2153C38.4298 78.0779 38.3527 78.2453 38.2709 78.2752C38.2194 78.3868 38.2405 78.1936 38.3223 78.1636C38.2147 78.2494 37.836 78.4808 37.663 78.2657C37.6934 78.3474 37.5087 78.6006 37.4526 78.5747L37.4994 78.3256C37.4947 78.1882 37.3615 78.3297 37.3825 78.1364C37.2539 78.4155 37.8173 77.9309 37.6584 78.1283C37.6233 77.9092 37.4223 78.493 37.4948 78.1882C37.4129 78.2181 37.31 78.4413 37.2189 78.1964C37.275 78.2222 37.2913 77.8915 37.2352 77.8656C37.0973 77.8697 37.1838 77.9772 37.0763 78.063L36.9687 78.1487C36.9477 78.342 36.8004 78.0712 36.8659 78.3719C36.8869 78.1787 36.5643 78.4359 36.6368 78.1311L36.7093 77.8262C36.6275 77.8561 36.4988 78.1351 36.3913 78.2209C36.3913 78.2209 36.3609 78.1392 36.3866 78.0834C36.2627 78.4999 36.2183 78.0059 35.9822 78.3706C35.8653 78.1815 35.4819 78.2754 35.5848 78.0522C35.3955 78.1679 35.1242 78.3135 35.0377 78.206C35.1196 78.1761 35.1196 78.1761 35.2271 78.0903C35.2225 77.9529 35.1149 78.0386 35.0074 78.1243C35.0892 78.0944 34.9981 77.8494 35.0495 77.7378C34.804 77.8277 34.6754 78.1067 34.5118 78.1666C34.6147 77.9434 34.5071 78.0291 34.2874 78.0631C34.1237 78.123 33.9039 78.1571 34.0372 78.0155C34.119 77.9856 34.4463 77.8658 34.4417 77.7283C34.7596 77.3336 33.8993 78.0196 33.8642 77.8005L33.5159 78.1136C33.6749 77.9162 32.9688 78.2674 33.399 77.9244C33.1535 78.0142 33.3125 77.8169 32.9081 78.1041C32.9034 77.9666 32.6275 77.9748 32.4335 77.953C32.2395 77.9312 32.1273 77.8795 32.5317 77.5923C32.5317 77.5923 32.4756 77.5665 32.4499 77.6223C32.4499 77.6223 32.5013 77.5107 32.2301 77.6563C31.9589 77.802 32.1787 77.7679 32.2044 77.7121C32.2044 77.7121 32.2044 77.7121 32.1226 77.7421C32.0665 77.7162 31.959 77.802 31.9333 77.8578C32.1483 77.6863 32.174 77.6305 32.6089 77.4249C33.039 77.0819 31.7907 77.7244 32.1343 77.2739C32.3798 77.1841 32.4616 77.1541 32.4312 77.0724C32.3494 77.1024 32.2372 77.0507 32.1553 77.0806C32.3143 76.8833 32.6977 76.7893 33.025 76.6695C32.9946 76.5879 33.1022 76.5021 32.8567 76.592L33.3173 76.3306C32.9643 76.5062 33.1793 76.3347 33.1232 76.3089L33.1793 76.3347C33.3429 76.2748 33.3125 76.1932 33.2564 76.1673C33.0367 76.2014 32.9034 76.3429 32.7959 76.4286C32.658 76.4327 32.7656 76.347 32.6276 76.3511C32.9292 76.2871 32.9245 76.1497 33.0321 76.0639C33.1396 75.9782 32.7819 76.0163 32.838 76.0421C33.0017 75.9822 32.9713 75.9006 33.1092 75.8965C33.1653 75.9223 32.9199 76.0122 33.0578 76.0081C33.2214 75.9482 33.4669 75.8583 33.3547 75.8066C33.2424 75.7549 32.7515 75.9346 33.0484 75.7332C33.1045 75.759 33.2425 75.7549 33.2986 75.7808L33.5136 75.6093L33.2378 75.6175C33.3196 75.5875 33.3196 75.5875 33.3757 75.6134C33.0999 75.6215 33.3968 75.4201 33.1466 75.3725C33.1723 75.3167 33.4178 75.2269 33.4693 75.1152C33.6586 74.9995 33.6282 74.9179 33.5417 74.8103L33.5979 74.8362C33.6236 74.7804 33.675 74.6688 33.5628 74.6171C33.8082 74.5272 34.4768 74.7001 34.222 74.515C34.2734 74.4034 33.9368 74.2482 33.7428 74.2265C34.0397 74.025 33.8059 73.6467 34.2454 73.5786C34.215 73.4969 34.1332 73.5269 34.1285 73.3894C34.3436 73.2179 34.1356 72.7837 34.6616 72.8232C34.692 72.9048 34.886 72.9266 34.9982 72.9783C34.8556 72.8449 35.1922 73.0001 34.9374 72.815C34.7691 72.7374 34.6569 72.6857 34.5751 72.7157C34.54 72.4966 34.6733 72.355 34.8673 72.3768C34.7294 72.3809 34.7551 72.325 34.7247 72.2434C34.9795 72.4285 35.087 72.3427 35.0263 72.1794L34.858 72.1019L35.052 72.1236C35.0216 72.0419 34.685 71.8868 34.9352 71.9344C34.9913 71.9603 35.0473 71.9861 35.1034 72.012C35.0426 71.8487 34.8135 71.6078 35.0076 71.6295L35.3138 71.703C35.3395 71.6472 35.1969 71.5138 35.059 71.5179C35.2788 71.4839 35.3302 71.3723 35.5804 71.4199C35.204 70.9082 35.384 70.5176 35.5687 70.2644L35.6809 70.3161C35.8189 70.312 35.4822 70.1569 35.6201 70.1528C35.7066 70.2603 35.9264 70.2263 36.0433 70.4155C36.263 70.3814 35.896 70.1446 35.8656 70.063C35.6973 69.9854 35.9521 70.1705 35.7276 70.067C35.6715 70.0412 35.9731 69.9772 35.6926 69.8479C35.8048 69.8996 35.9731 69.9772 36.0596 70.0847L35.9731 69.9772C36.3355 70.0765 36.3752 70.4331 36.7937 70.5583L36.7633 70.4766C37.0695 70.5501 36.9666 70.7733 37.1303 70.7134C37.0438 70.6059 36.7025 70.3133 36.5646 70.3174C36.5856 70.1241 35.9988 69.9214 36.1321 69.7798C36.3261 69.8016 36.1368 69.9173 36.3051 69.9949C36.5552 70.0425 36.2701 69.7758 36.3519 69.7458C36.2139 69.7499 36.0152 69.5907 35.9848 69.509C36.1227 69.5049 36.1835 69.6682 36.2911 69.5825C36.1227 69.5049 36.062 69.3416 35.9241 69.3457C35.6132 69.1347 36.0877 69.2858 35.8329 69.1007C36.0573 69.2041 36.3168 69.5267 36.4805 69.4668C36.256 69.3634 36.2771 69.1701 35.8586 69.0449C35.9404 69.015 36.1088 69.0925 36.2514 69.2259C36.4454 69.2477 35.9358 68.8775 36.3846 69.0844L36.1859 68.9251C36.242 68.951 36.3238 68.921 36.4921 68.9986C36.5179 68.9428 36.3145 68.6461 36.6254 68.857C36.5693 68.8312 36.7025 68.6896 36.3963 68.6161C36.2023 68.5944 36.5132 68.8053 36.1766 68.6502C36.4828 68.7237 36.228 68.5386 36.1415 68.4311L36.2537 68.4828C36.2234 68.4011 36.3051 68.3712 36.1368 68.2936C36.1929 68.3195 36.3052 68.3712 36.3613 68.397L36.1625 68.2378C36.1018 68.0745 36.5553 68.4188 36.5506 68.2813L36.6675 68.4705C36.6114 68.4447 36.8615 68.4923 36.8311 68.4106C36.6885 68.2772 36.4898 68.118 36.3215 68.0404C36.2911 67.9588 36.5459 68.1439 36.3729 67.9288L36.5459 68.1439C36.602 68.1697 36.9083 68.2432 36.934 68.1874C36.9036 68.1057 36.6746 67.8649 36.5109 67.9248C36.5366 67.8689 36.6745 67.8649 36.8171 67.9982C36.8125 67.8608 36.5927 67.8948 36.532 67.7315C36.6442 67.7832 36.92 67.775 37.114 67.7968L37.3993 68.0635L37.425 68.0077C37.598 68.2228 37.6494 68.1111 37.8481 68.2704C37.9299 68.2404 37.8434 68.1329 37.7873 68.1071C37.287 68.0118 37.3034 67.6811 36.8545 67.4742C36.8195 67.2551 37.834 67.858 37.294 67.4061C37.1818 67.3544 36.927 67.1693 36.9878 67.3327C37.0953 67.2469 36.6465 67.0401 36.8663 67.0061C36.9832 67.1952 37.2847 67.1312 37.4577 67.3463C37.3455 67.2945 37.3198 67.3504 37.3502 67.432C37.5442 67.4538 37.7172 67.6688 37.7686 67.5572C37.7382 67.4755 37.7896 67.3639 37.6213 67.2864C37.3969 67.1829 37.5699 67.398 37.3712 67.2387C37.3665 67.1013 37.7032 67.2564 37.3619 66.9638C37.3362 67.0196 37.086 66.972 36.9995 66.8645L36.9387 66.7012L37.1071 66.7787C37.2964 66.663 36.8522 66.5936 36.9855 66.4521L37.2917 66.5256C37.5465 66.7107 37.0767 66.6971 37.4694 66.8781C37.5208 66.7665 37.3525 66.6889 37.5162 66.629C37.5723 66.6549 37.5465 66.7106 37.5465 66.7106C37.5723 66.6548 38.1333 66.9134 37.9042 66.6725C37.8177 66.565 37.7359 66.5949 37.6494 66.4874C37.6705 66.2942 37.584 66.1866 37.5536 66.105C37.8084 66.2901 37.6869 65.9635 37.916 66.2043C37.7219 66.1826 37.619 66.4058 37.8738 66.5909C38.2362 66.6902 37.7663 66.6766 38.0772 66.8876C38.1286 66.7759 38.5214 66.9569 38.7458 67.0604C38.7715 67.0046 38.7154 66.9787 38.685 66.897C38.4863 66.7378 38.4606 66.7936 38.2362 66.6902C38.3437 66.6044 38.3087 66.3853 38.1099 66.2261C38.2479 66.222 38.4466 66.3812 38.4209 66.437C38.4419 66.2437 38.5752 66.1022 38.7085 65.9607C38.3461 65.8613 38.7295 65.7674 38.3671 65.6681C38.2292 65.6722 37.979 65.6245 37.8365 65.4911C37.8622 65.4353 38.0048 65.5687 38.0609 65.5946C37.9183 65.4612 38.4232 65.6939 38.138 65.4272C38.1731 65.6463 38.5612 65.6898 38.816 65.8749C38.6991 65.6857 39.0404 65.9783 39.0919 65.8667C38.975 65.6776 38.9142 65.5142 38.9352 65.3209C39.2672 65.3386 39.1713 64.9562 39.1666 64.8187C39.3607 64.8405 39.6155 65.0256 39.6973 64.9956C39.7488 64.884 39.335 64.8963 39.5548 64.8623L39.6109 64.8881C39.5805 64.8065 39.9381 64.7683 39.515 64.5057L39.8259 64.7166C39.882 64.7425 39.7955 64.635 39.7955 64.635C39.9077 64.6867 40.02 64.7384 40.0503 64.82C40.3005 64.8676 40.1275 64.6526 40.1228 64.5152L39.8727 64.4675C39.7815 64.2226 40.0317 64.2702 40.0527 64.0769L40.2771 64.1804L40.2163 64.017C40.3589 64.1504 40.5787 64.1163 40.4361 63.983L40.7821 64.4131C40.6442 64.4172 40.5834 64.2538 40.3589 64.1504C40.1906 64.0728 40.1696 64.2661 40.3379 64.3437C40.3636 64.2878 40.3636 64.2879 40.2771 64.1804C40.5577 64.3096 40.5319 64.3654 40.6745 64.4988C40.6745 64.4988 40.7563 64.4688 40.7002 64.443C40.7867 64.5505 40.8171 64.6322 40.7657 64.7438C40.6792 64.6363 40.5974 64.6662 40.5413 64.6404C40.7657 64.7438 40.8265 64.9071 40.6628 64.967C40.3566 64.8935 40.7283 65.2678 40.5646 65.3277C40.3659 65.1684 40.1929 64.9534 40.1625 64.8717C40.0246 64.8758 40.1111 64.9834 39.9732 64.9874C40.1158 65.1208 40.3706 65.3059 40.4314 65.4692L40.263 65.3916C40.3238 65.555 40.5482 65.6584 40.4407 65.7441C40.2513 65.8598 40.1485 66.0831 40.0152 66.2246L39.8469 66.147C40.1882 66.4396 39.8305 66.4778 39.9474 66.6669C39.7019 66.7568 39.91 67.191 39.5477 67.0916C39.5056 67.4782 39.4634 67.8647 39.253 68.1736L38.9982 67.9886C39.1408 68.1219 38.8042 67.9668 38.8346 68.0485C39.0848 68.0961 39.0637 68.2893 39.2063 68.4227C38.9047 68.4867 39.052 68.7575 39.1432 69.0025L38.9748 68.9249C39.2343 69.2475 38.8205 69.2598 38.6873 69.4013C38.6312 69.3755 38.4371 69.3537 38.4114 69.4095C38.6405 69.6504 38.6148 69.7062 38.706 69.9512C38.6545 70.0628 38.4652 70.1785 38.3272 70.1826C38.5399 70.7542 38.0794 71.0155 38.0981 71.5654L37.8737 71.462C38.1425 72.0595 37.4622 72.3548 37.5323 72.7931L37.2214 72.5821C37.0577 72.642 37.1746 72.8312 37.4551 72.9605C37.2915 73.0204 37.4949 73.3171 37.1326 73.2178C37.025 73.3035 37.2237 73.4627 37.2541 73.5444C36.9829 73.69 37.0133 73.7717 36.9665 74.0207L36.9922 73.9649C36.9361 73.9391 36.7935 73.8057 36.7117 73.8356C36.7982 73.9432 36.471 74.063 36.9455 74.214C36.7819 74.2739 36.7304 74.3855 36.7351 74.523C36.7093 74.5788 36.7397 74.6604 36.6579 74.6904C36.6322 74.7462 36.6322 74.7462 36.5504 74.7761C36.5504 74.7761 36.4943 74.7503 36.4382 74.7244C36.5504 74.7761 36.6065 74.802 36.6626 74.8279C36.6626 74.8279 36.3867 74.836 36.555 74.9136C36.4989 74.8877 36.305 74.866 36.305 74.866C36.3611 74.8919 36.4989 74.8877 36.555 74.9136C36.6673 74.9653 36.5854 74.9952 36.4475 74.9993C36.3657 75.0293 36.2021 75.0892 36.1764 75.145C36.4265 75.1926 36.2628 75.2525 36.2114 75.3641L36.2675 75.39L36.1039 75.4499C36.3751 75.3042 36.2675 75.39 36.1857 75.4199C36.1039 75.4499 36.0782 75.5057 36.4569 75.2743C36.3494 75.36 36.4311 75.3301 36.2161 75.5016C36.4054 75.3859 36.3236 75.4158 36.2979 75.4716C36.2722 75.5274 36.2465 75.5833 36.4616 75.4118C36.4616 75.4118 36.4616 75.4118 36.3797 75.4417C36.2769 75.6649 36.5434 75.3818 36.4662 75.5492C36.4405 75.605 36.3844 75.5792 36.333 75.6908C36.2558 75.8582 36.6509 75.2961 36.3633 75.7724C36.3633 75.7724 36.5223 75.5751 36.4662 75.5492C36.4966 75.6309 36.6345 75.6268 36.7164 75.5968C36.7164 75.5968 36.7421 75.541 36.7982 75.5669C36.7982 75.5669 36.8239 75.5111 36.88 75.5369C37.0179 75.5328 37.1255 75.4471 37.2634 75.443C37.6047 75.7356 37.2353 76.2419 37.5276 75.903C37.5579 75.9847 37.5486 75.7097 37.5533 75.8472C37.6865 75.7057 37.6538 76.3671 37.7567 76.1439C37.7473 75.869 37.8337 75.9765 37.8291 75.839C38.0021 76.054 38.0371 76.2732 38.2522 76.1017L38.2569 76.2391C38.5187 75.8186 38.666 76.0894 38.8974 75.5872C39.9751 75.6102 41.0739 75.4401 42.1516 75.4631C43.2083 75.6795 44.2251 75.5392 45.2865 75.893C45.4945 76.3271 45.5202 76.2713 45.8475 76.1515C45.8218 76.2073 45.8219 76.2074 45.8522 76.289C45.8686 75.9583 46.072 76.255 46.1187 76.0059C46.4811 76.1053 46.8645 76.0113 47.3087 76.0807C47.2268 76.1107 47.1801 76.3597 47.2619 76.3298L47.3647 76.1066L47.3951 76.1882C47.4769 76.1583 47.5541 75.9909 47.4676 75.8833C48.5103 75.6873 49.4476 76.4575 50.4692 76.4548C50.6679 76.614 51.0514 76.5201 51.2711 76.486C52.0051 76.9596 52.6269 77.3815 53.4755 77.1637C53.7 77.2671 53.534 78.0701 53.181 78.2457Z" fill="#A599F0"></path><path d="M41.273 64.2334C41.1047 64.1558 40.9971 64.2415 40.8241 64.0265C40.9924 64.1041 41.1865 64.1259 41.273 64.2334Z" fill="#A599F0"></path><path d="M38.6944 65.5483C38.7505 65.5741 38.6384 65.5225 38.5565 65.5524C38.5565 65.5524 38.47 65.4449 38.5261 65.4707C38.6079 65.4408 38.664 65.4666 38.6944 65.5483Z" fill="#A599F0"></path><path d="M38.3508 65.9988C38.2386 65.9471 38.2035 65.7279 38.2292 65.6721L38.3508 65.9988Z" fill="#A599F0"></path><path d="M37.5021 66.2166C37.3642 66.2207 37.3338 66.1391 37.3595 66.0833C37.4717 66.135 37.446 66.1908 37.5021 66.2166Z" fill="#A599F0"></path><path d="M37.8131 66.4276C37.7874 66.4834 37.7313 66.4575 37.6191 66.4058C37.7313 66.4575 37.6145 66.2684 37.8131 66.4276Z" fill="#A599F0"></path><path d="M36.8756 67.281C36.8756 67.281 36.9364 67.4443 36.768 67.3667C36.8803 67.4185 36.651 67.1775 36.8756 67.281Z" fill="#A599F0"></path><path d="M36.7868 67.9166C36.7307 67.8908 36.7307 67.8908 36.7868 67.9166C36.7049 67.9466 36.5927 67.8948 36.6184 67.839L36.7868 67.9166Z" fill="#A599F0"></path><path d="M33.8128 77.9121L33.6491 77.972L33.7824 77.8305L33.8128 77.9121Z" fill="#A599F0"></path><path d="M39.435 78.4058C39.4864 78.2942 39.4397 78.5433 39.4958 78.5692C39.414 78.5991 39.5169 78.3759 39.435 78.4058Z" fill="#A599F0"></path><path d="M41.9597 77.9456L41.9037 77.9197L41.9762 77.6149L41.9597 77.9456Z" fill="#A599F0"></path></svg>