<svg width="24" height="24" viewBox="0 0 24 24" fill="none" xmlns="http://www.w3.org/2000/svg"><g clip-path="url(#clip0_638_28054)"><circle cx="5" cy="6" r="4" fill="#381FD1"></circle><path d="M16.0569 7.94608C16.2518 7.69723 16.4952 7.48256 16.7792 7.31855C17.9394 6.6487 19.4913 6.99032 20.2054 8.22719L22.7054 12.5573C24.8007 16.1864 23.4485 20.7886 19.8362 22.8741C17.2658 24.3582 14.1849 24.2126 11.8592 22.7112L4.85618 18.9659C3.72625 18.3616 3.35452 16.9632 3.96237 15.8855C4.42296 15.069 5.20402 14.8189 5.53197 14.7387C5.92793 14.6418 6.31006 14.6349 6.59351 14.6484C6.86698 14.6615 7.19649 14.7023 7.52781 14.7825L4.3587 9.2934C3.64459 8.05653 4.12466 6.54176 5.28488 5.87191C6.44509 5.20206 7.99696 5.54369 8.71106 6.78056L9.99319 9.00127C10.1303 8.87347 10.283 8.75977 10.4497 8.66352C11.211 8.22399 12.1409 8.21996 12.8921 8.61857C13.0871 8.36972 13.3304 8.15505 13.6144 7.99104C14.3757 7.55151 15.3056 7.54747 16.0569 7.94608Z" fill="#381FD1"></path><path d="M6.09116 8.29333C5.95309 8.05418 6.04 7.74551 6.28529 7.6039C6.53058 7.46228 6.84135 7.54134 6.97942 7.78049L10.7294 14.2757C11.0056 14.754 11.6172 14.9178 12.0954 14.6417L12.1399 14.616C12.6182 14.3399 12.7821 13.7283 12.5059 13.25L11.2559 11.0849C11.1179 10.8458 11.2048 10.5371 11.4501 10.3955C11.6954 10.2539 12.0061 10.333 12.1442 10.5721L13.3942 12.7372C13.6703 13.2155 14.2819 13.3793 14.7602 13.1032L14.8047 13.0775C15.283 12.8014 15.4469 12.1898 15.1707 11.7115L14.4207 10.4125C14.2827 10.1733 14.3696 9.86464 14.6149 9.72302C14.8601 9.5814 15.1709 9.66047 15.309 9.89961L16.059 11.1987C16.3351 11.6769 16.9467 11.8408 17.425 11.5647L17.4695 11.539C17.9478 11.2629 18.1117 10.6513 17.8355 10.173L17.5855 9.73996C17.4474 9.50082 17.5344 9.19215 17.7796 9.05053C18.0249 8.90891 18.3357 8.98798 18.4738 9.22712L20.9738 13.5573C22.4926 16.1879 21.5348 19.5842 18.8366 21.142C16.8998 22.2602 14.5907 22.1272 12.881 20.9893L5.79979 17.2022C5.6795 17.1379 5.63696 16.9883 5.70477 16.8681C5.91341 16.4982 7.04296 16.652 7.41307 16.85L10.0529 18.3051C10.4282 18.512 10.9863 18.1263 11.1878 17.748C11.2846 17.5662 11.3153 17.3419 11.2123 17.1634L6.09116 8.29333Z" fill="#CCC5F6"></path></g><defs><clipPath id="clip0_638_28054"><rect width="24" height="24" fill="white"></rect></clipPath></defs></svg>