<svg width="24" height="24" viewBox="0 0 24 24" fill="none" xmlns="http://www.w3.org/2000/svg"><rect x="1" y="3" width="22" height="18" rx="3" fill="#CCC5F6"></rect><path d="M9.5 8.875L7.25888 11.1161C6.77073 11.6043 6.77073 12.3957 7.25888 12.8839L9.5 15.125M14.5 8.875L16.7411 11.1161C17.2293 11.6043 17.2293 12.3957 16.7411 12.8839L14.5 15.125M4.5 22H19.5C20.8807 22 22 20.8807 22 19.5V4.5C22 3.11929 20.8807 2 19.5 2H4.5C3.11929 2 2 3.11929 2 4.5V19.5C2 20.8807 3.11929 22 4.5 22Z" stroke="#381FD1" stroke-width="2" stroke-linecap="round" stroke-linejoin="round"></path></svg>