<svg width="24" height="24" viewBox="0 0 24 24" fill="none" xmlns="http://www.w3.org/2000/svg"><rect x="3" y="3" width="19" height="17" rx="2" fill="#CCC5F6"></rect><path d="M2 6C2 4.34315 3.34315 3 5 3H19C20.6569 3 22 4.34315 22 6V11.25C22 11.8023 21.5523 12.25 21 12.25C20.4477 12.25 20 11.8023 20 11.25V6C20 5.44772 19.5523 5 19 5H5C4.44772 5 4 5.44772 4 6V17C4 17.5523 4.44772 18 5 18H12C12.5523 18 13 18.4477 13 19C13 19.5523 12.5523 20 12 20H5C3.34315 20 2 18.6569 2 17V6Z" fill="#381FD1"></path><path d="M5.5 7.75C5.5 8.44036 6.05964 9 6.75 9C7.44036 9 8 8.44036 8 7.75C8 7.05964 7.44036 6.5 6.75 6.5C6.05964 6.5 5.5 7.05964 5.5 7.75Z" fill="#381FD1"></path><path d="M9 7.75C9 8.44036 9.55964 9 10.25 9C10.9404 9 11.5 8.44036 11.5 7.75C11.5 7.05964 10.9404 6.5 10.25 6.5C9.55964 6.5 9 7.05964 9 7.75Z" fill="#381FD1"></path><path d="M12.5 7.75C12.5 8.44036 13.0596 9 13.75 9C14.4404 9 15 8.44036 15 7.75C15 7.05964 14.4404 6.5 13.75 6.5C13.0596 6.5 12.5 7.05964 12.5 7.75Z" fill="#381FD1"></path><path d="M14.7941 12.5442C14.4401 12.4353 14.0548 12.531 13.7929 12.7929C13.531 13.0548 13.4353 13.4401 13.5442 13.7941L15.5442 20.2941C15.6644 20.6847 16.0102 20.9629 16.4175 20.9966C16.8249 21.0303 17.2117 20.8128 17.3945 20.4472L18.7454 17.7454L21.4472 16.3945C21.8128 16.2117 22.0303 15.8249 21.9966 15.4175C21.9629 15.0102 21.6847 14.6644 21.2941 14.5442L14.7941 12.5442Z" fill="#381FD1"></path></svg>