<svg width="24" height="24" viewBox="0 0 24 24" fill="none" xmlns="http://www.w3.org/2000/svg"><path fill-rule="evenodd" clip-rule="evenodd" d="M8 4C6.89543 4 6 4.89543 6 6V7V15C6 15.5523 6.44772 16 7 16H21C21.5523 16 22 15.5523 22 15V7C22 6.44772 21.5523 6 21 6H14C14 4.89543 13.1046 4 12 4H8Z" fill="#CCC5F6"></path><path fill-rule="evenodd" clip-rule="evenodd" d="M8 3C6.34315 3 5 4.34315 5 6V7H4C2.34315 7 1 8.34315 1 10V18C1 19.6569 2.34315 21 4 21H16C17.6569 21 19 19.6569 19 18V17H20C21.6569 17 23 15.6569 23 14V8C23 6.34315 21.6569 5 20 5L14.4142 5L13.2929 3.87868C12.7303 3.31607 11.9672 3 11.1716 3H8ZM19 15H20C20.5523 15 21 14.5523 21 14V8C21 7.44772 20.5523 7 20 7H14.4142C13.8838 7 13.3751 6.78929 13 6.41421L11.8787 5.29289C11.6911 5.10536 11.4368 5 11.1716 5H8C7.44772 5 7 5.44772 7 6V7H7.17157C7.96722 7 8.73028 7.31607 9.29289 7.87868L10.4142 9H16C17.6569 9 19 10.3431 19 12V15Z" fill="#381FD1"></path></svg>