<svg width="24" height="24" viewBox="0 0 24 24" fill="none" xmlns="http://www.w3.org/2000/svg"><rect x="2" y="4" width="20" height="15" rx="2" fill="#CCC5F6"></rect><path fill-rule="evenodd" clip-rule="evenodd" d="M4.3 3C2.47746 3 1 4.51104 1 6.375V17.625C1 19.489 2.47746 21 4.3 21H19.7C21.5225 21 23 19.489 23 17.625V6.375C23 4.51104 21.5225 3 19.7 3H4.3ZM20.8 9.75V6.375C20.8 5.75368 20.3075 5.25 19.7 5.25H4.3C3.69249 5.25 3.2 5.75368 3.2 6.375V9.75H20.8ZM4.3 7.5C4.3 6.87868 4.79249 6.375 5.4 6.375C6.00751 6.375 6.5 6.87868 6.5 7.5C6.5 8.12132 6.00751 8.625 5.4 8.625C4.79249 8.625 4.3 8.12132 4.3 7.5ZM8.7 6.375C8.09249 6.375 7.6 6.87868 7.6 7.5C7.6 8.12132 8.09249 8.625 8.7 8.625C9.30751 8.625 9.8 8.12132 9.8 7.5C9.8 6.87868 9.30751 6.375 8.7 6.375ZM12 6.375C11.3925 6.375 10.9 6.87868 10.9 7.5C10.9 8.12132 11.3925 8.625 12 8.625C12.6075 8.625 13.1 8.12132 13.1 7.5C13.1 6.87868 12.6075 6.375 12 6.375ZM3 13C3 12.4477 3.40294 12 3.9 12H8.4C8.89706 12 9.3 12.4477 9.3 13C9.3 13.5523 8.89706 14 8.4 14H3.9C3.40294 14 3 13.5523 3 13ZM12 13C12 12.4477 12.4029 12 12.9 12H20.1C20.5971 12 21 12.4477 21 13C21 13.5523 20.5971 14 20.1 14H12.9C12.4029 14 12 13.5523 12 13ZM14 17C14 16.4477 13.5971 16 13.1 16H3.9C3.40294 16 3 16.4477 3 17C3 17.5523 3.40294 18 3.9 18H13.1C13.5971 18 14 17.5523 14 17ZM21 17C21 16.4477 20.5971 16 20.1 16H17.6C17.1029 16 16.7 16.4477 16.7 17C16.7 17.5523 17.1029 18 17.6 18H20.1C20.5971 18 21 17.5523 21 17Z" fill="#381FD1"></path></svg>