<svg width="24" height="24" viewBox="0 0 24 24" fill="none" xmlns="http://www.w3.org/2000/svg"><rect x="2" y="2" width="20" height="20" rx="2" fill="#381FD1"></rect><rect x="4" y="4" width="16" height="16" rx="0.5" fill="#CCC5F6"></rect><path d="M12.9341 16.8496H11.1335L10.6456 15.2953H7.26521L6.77732 16.8496H5L7.97382 8H9.96023L12.9341 16.8496ZM8.96122 9.95543L7.78795 13.6657H10.1345L8.96122 9.95543Z" fill="#381FD1"></path><path d="M19 15.4331V16.8496H18.152C17.8577 16.8496 17.6099 16.7869 17.4085 16.6616C17.2072 16.5362 17.0639 16.3565 16.9787 16.1226C16.7851 16.4067 16.5296 16.624 16.212 16.7744C15.9023 16.9248 15.5422 17 15.1317 17C14.5199 17 14.0436 16.8412 13.7029 16.5237C13.3699 16.2061 13.2034 15.7591 13.2034 15.1825C13.2034 14.7061 13.3544 14.3175 13.6564 14.0167C13.9662 13.7075 14.396 13.507 14.9459 13.415L16.4328 13.1643C16.5722 13.1393 16.6806 13.0808 16.758 12.9889C16.8355 12.8969 16.8742 12.7841 16.8742 12.6504V12.6253C16.8742 12.3997 16.7929 12.2201 16.6302 12.0864C16.4676 11.9526 16.2469 11.8858 15.9681 11.8858C15.6738 11.8858 15.426 11.9735 15.2246 12.149C15.0233 12.3162 14.8994 12.5543 14.8529 12.8635L13.4473 12.4875C13.5945 11.8524 13.8888 11.3593 14.3302 11.0084C14.7716 10.6574 15.3253 10.4819 15.9913 10.4819C16.7735 10.4819 17.3814 10.6783 17.8151 11.071C18.2488 11.4638 18.4656 12.0111 18.4656 12.7131V15.0822C18.4656 15.3162 18.5508 15.4331 18.7212 15.4331H19ZM15.6545 15.7591C16.0184 15.7591 16.3127 15.6337 16.5373 15.383C16.7619 15.1323 16.8742 14.8022 16.8742 14.3928V14.1671L15.5151 14.3928C15.2905 14.4345 15.1124 14.5181 14.9807 14.6435C14.8568 14.7604 14.7948 14.9109 14.7948 15.0947C14.7948 15.3036 14.8684 15.4666 15.0156 15.5836C15.1704 15.7006 15.3834 15.7591 15.6545 15.7591Z" fill="#381FD1"></path></svg>