<svg width="24" height="24" viewBox="0 0 24 24" fill="none" xmlns="http://www.w3.org/2000/svg"><circle cx="6" cy="18" r="5" fill="#381FD1"></circle><circle cx="6" cy="18" r="3" fill="#CCC5F6"></circle><path fill-rule="evenodd" clip-rule="evenodd" d="M5 7L5 2C5 1.44772 5.44772 1 6 1C6.55228 1 7 1.44772 7 2L7 7L5 7Z" fill="#381FD1"></path><path fill-rule="evenodd" clip-rule="evenodd" d="M2.06092 7.51443C2.18474 7.20304 2.47645 7 2.80002 7L9.19998 7C9.52355 7 9.81526 7.20304 9.93908 7.51443C10.0629 7.82583 9.99446 8.18426 9.76566 8.42259L6.56568 11.7559C6.25326 12.0814 5.74673 12.0814 5.43432 11.7559L2.23434 8.42259C2.00554 8.18426 1.9371 7.82583 2.06092 7.51443Z" fill="#381FD1"></path><path d="M18.5144 8.93908C18.203 8.81526 18 8.52355 18 8.19998L18 1.80002C18 1.47645 18.203 1.18474 18.5144 1.06092C18.8258 0.937096 19.1843 1.00554 19.4226 1.23434L22.7559 4.43432C23.0814 4.74674 23.0814 5.25326 22.7559 5.56568L19.4226 8.76566C19.1843 8.99446 18.8258 9.0629 18.5144 8.93908Z" fill="#381FD1"></path><path fill-rule="evenodd" clip-rule="evenodd" d="M15.3754 5.31444C16.3274 4.17836 17.396 4 18 4V6C17.7151 6 17.1837 6.07213 16.669 6.68634C16.1322 7.327 15.5019 8.68905 15.3314 11.5667C15.1414 14.7727 14.1741 16.6849 12.9834 17.7753C11.8166 18.8438 10.5686 19 10 19V17C10.3203 17 11.1168 16.9058 11.8611 16.2242C12.5814 15.5645 13.392 14.2268 13.5575 11.4336C13.7425 8.3121 14.4456 6.42407 15.3754 5.31444Z" fill="#381FD1"></path></svg>