<svg width="24" height="24" viewBox="0 0 24 24" fill="none" xmlns="http://www.w3.org/2000/svg"><rect x="2" y="2" width="20" height="20" rx="2" fill="#381FD1"></rect><rect x="4" y="4" width="16" height="16" rx="0.5" fill="#CCC5F6"></rect><path fill-rule="evenodd" clip-rule="evenodd" d="M9.97375 5.21216C10.271 4.92928 10.729 4.92928 11.0262 5.21216L17.7504 11.6122C17.9851 11.8356 18.063 12.1845 17.9467 12.4913C17.8304 12.7981 17.5436 13 17.2241 13H3.77589C3.45643 13 3.16963 12.7981 3.0533 12.4913C2.93697 12.1845 3.0149 11.8356 3.24964 11.6122L9.97375 5.21216Z" fill="#381FD1"></path><circle cx="17.5" cy="6.5" r="1.5" fill="#381FD1"></circle><path fill-rule="evenodd" clip-rule="evenodd" d="M20 13L4 13L4 11L20 11L20 13Z" fill="#381FD1"></path><path fill-rule="evenodd" clip-rule="evenodd" d="M5 15C5 14.4477 5.44772 14 6 14L13 14C13.5523 14 14 14.4477 14 15C14 15.5523 13.5523 16 13 16L6 16C5.44772 16 5 15.5523 5 15Z" fill="#381FD1"></path><path fill-rule="evenodd" clip-rule="evenodd" d="M5 18C5 17.4477 5.44772 17 6 17L8 17C8.55228 17 9 17.4477 9 18C9 18.5523 8.55228 19 8 19L6 19C5.44772 19 5 18.5523 5 18Z" fill="#381FD1"></path><path fill-rule="evenodd" clip-rule="evenodd" d="M10 18C10 17.4477 10.4477 17 11 17L18 17C18.5523 17 19 17.4477 19 18C19 18.5523 18.5523 19 18 19L11 19C10.4477 19 10 18.5523 10 18Z" fill="#381FD1"></path><path fill-rule="evenodd" clip-rule="evenodd" d="M15 15C15 14.4477 15.4477 14 16 14L18 14C18.5523 14 19 14.4477 19 15C19 15.5523 18.5523 16 18 16L16 16C15.4477 16 15 15.5523 15 15Z" fill="#381FD1"></path></svg>