<svg width="24" height="24" viewBox="0 0 24 24" fill="none" xmlns="http://www.w3.org/2000/svg"><circle cx="12" cy="12" r="10" fill="#CCC5F6"></circle><path d="M20.6901 11.9999C20.6901 16.8849 16.7301 20.8449 11.8451 20.8449C6.96007 20.8449 3 16.8849 3 11.9999C3 7.11486 6.96007 3.15479 11.8451 3.15479C12.722 3.15479 13.569 3.28239 14.3687 3.52003C14.762 3.6369 15.1891 3.44301 15.4058 3.09464C15.7132 2.60047 15.5648 1.85504 15.0087 1.68363C13.9048 1.34344 13.0121 1.15479 11.8451 1.15479C5.8555 1.15479 1 6.01029 1 11.9999C1 17.9894 5.8555 22.8449 11.8451 22.8449C17.8346 22.8449 22.6901 17.9894 22.6901 11.9999C22.6901 10.9537 22.5848 10.3569 22.2984 9.30323C22.1458 8.74185 21.4083 8.55837 20.901 8.84312C20.544 9.0435 20.3303 9.46087 20.4291 9.85817C20.5996 10.5439 20.6901 11.2613 20.6901 11.9999Z" fill="#381FD1"></path><path d="M8 12.6678C8 12.8837 8.17582 13.0469 8.41758 13.0469H11.6044L9.92857 17.3585C9.7033 17.9323 10.3242 18.2376 10.7198 17.7744L15.8516 11.6886C15.9505 11.5676 16 11.457 16 11.3359C16 11.1148 15.8242 10.9569 15.5824 10.9569H12.3956L14.0714 6.64002C14.2967 6.06619 13.6758 5.76086 13.2802 6.22939L8.15385 12.3151C8.05495 12.4309 8 12.5415 8 12.6678Z" fill="#381FD1"></path><path d="M18.6727 2.5761C18.755 2.27037 19.1888 2.27037 19.2711 2.5761L19.7471 4.34418C19.7758 4.45082 19.8591 4.53412 19.9658 4.56283L21.7339 5.03888C22.0396 5.1212 22.0396 5.55497 21.7339 5.63729L19.9658 6.11334C19.8591 6.14205 19.7758 6.22535 19.7471 6.33198L19.2711 8.10007C19.1888 8.4058 18.755 8.4058 18.6727 8.10007L18.1966 6.33198C18.1679 6.22535 18.0846 6.14205 17.978 6.11334L16.2099 5.63729C15.9042 5.55497 15.9042 5.1212 16.2099 5.03888L17.978 4.56283C18.0846 4.53412 18.1679 4.45082 18.1966 4.34418L18.6727 2.5761Z" fill="#381FD1"></path></svg>