<svg width="24" height="24" viewBox="0 0 24 24" fill="none" xmlns="http://www.w3.org/2000/svg"><rect x="1" y="3" width="22" height="18" rx="3" fill="#CCC5F6"></rect><path d="M16 3H20C21.6569 3 23 4.34315 23 6V18C23 19.6569 21.6569 21 20 21H16V3Z" fill="#381FD1"></path><path d="M12 3.89474H4.22222C2.99492 3.89474 2 4.93155 2 6.21053V17.7895C2 19.0684 2.99492 20.1053 4.22222 20.1053H12M16.4444 3.89474H19.7778C21.0051 3.89474 22 4.93155 22 6.21053V17.7895C22 19.0684 21.0051 20.1053 19.7778 20.1053H16.4444M16.4444 3.89474V1M16.4444 3.89474V20.1053M16.4444 20.1053V23M7.55556 9.10526L10.3333 12L7.55556 14.8947" stroke="#381FD1" stroke-width="2" stroke-linecap="round" stroke-linejoin="round"></path></svg>