<svg width="24" height="24" viewBox="0 0 24 24" fill="none" xmlns="http://www.w3.org/2000/svg"><rect x="2" y="2" width="20" height="20" rx="2" fill="#CCC5F6"></rect><path fill-rule="evenodd" clip-rule="evenodd" d="M2 4C2 2.89543 2.89543 2 4 2H6C6.55228 2 7 2.44772 7 3C7 3.55228 6.55228 4 6 4L4 4V6C4 6.55229 3.55228 7 3 7C2.44772 7 2 6.55229 2 6V4ZM9 3C9 2.44772 9.44772 2 10 2H14C14.5523 2 15 2.44772 15 3C15 3.55228 14.5523 4 14 4H10C9.44772 4 9 3.55228 9 3ZM17 3C17 2.44772 17.4477 2 18 2H20C21.1046 2 22 2.89543 22 4V6C22 6.55228 21.5523 7 21 7C20.4477 7 20 6.55228 20 6V4H18C17.4477 4 17 3.55228 17 3ZM21 9C21.5523 9 22 9.44772 22 10V14C22 14.5523 21.5523 15 21 15C20.4477 15 20 14.5523 20 14V10C20 9.44772 20.4477 9 21 9ZM3 9C3.55228 9 4 9.44772 4 10V14C4 14.5523 3.55228 15 3 15C2.44772 15 2 14.5523 2 14V10C2 9.44772 2.44772 9 3 9ZM3 17C3.55228 17 4 17.4477 4 18V20H6C6.55229 20 7 20.4477 7 21C7 21.5523 6.55229 22 6 22H4C2.89543 22 2 21.1046 2 20V18C2 17.4477 2.44772 17 3 17ZM21 17C21.5523 17 22 17.4477 22 18V20C22 21.1046 21.1046 22 20 22H18C17.4477 22 17 21.5523 17 21C17 20.4477 17.4477 20 18 20H20V18C20 17.4477 20.4477 17 21 17ZM9 21C9 20.4477 9.44772 20 10 20H14C14.5523 20 15 20.4477 15 21C15 21.5523 14.5523 22 14 22H10C9.44772 22 9 21.5523 9 21Z" fill="#381FD1"></path><path fill-rule="evenodd" clip-rule="evenodd" d="M8 7H10V11H14V7H16V17H14V13H10V17H8V7Z" fill="#381FD1"></path></svg>