<svg width="24" height="24" viewBox="0 0 24 24" fill="none" xmlns="http://www.w3.org/2000/svg"><rect x="2" y="2" width="20" height="20" rx="2" fill="#CCC5F6"></rect><path d="M9 4C9.55228 4 10 3.55229 10 3C10 2.44772 9.55228 2 9 2L4 2C2.89543 2 2 2.89543 2 4V9C2 9.55228 2.44772 10 3 10C3.55228 10 4 9.55228 4 9V4.5C4 4.22386 4.22386 4 4.5 4L9 4Z" fill="#381FD1"></path><path d="M15 4C14.4477 4 14 3.55229 14 3C14 2.44772 14.4477 2 15 2L20 2C21.1046 2 22 2.89543 22 4V9C22 9.55228 21.5523 10 21 10C20.4477 10 20 9.55228 20 9V4.5C20 4.22386 19.7761 4 19.5 4L15 4Z" fill="#381FD1"></path><path d="M15 20C14.4477 20 14 20.4477 14 21C14 21.5523 14.4477 22 15 22L20 22C21.1046 22 22 21.1046 22 20L22 15C22 14.4477 21.5523 14 21 14C20.4477 14 20 14.4477 20 15L20 19.5C20 19.7761 19.7761 20 19.5 20L15 20Z" fill="#381FD1"></path><path d="M9 20C9.55228 20 10 20.4477 10 21C10 21.5523 9.55228 22 9 22H4C2.89543 22 2 21.1046 2 20L2 15C2 14.4477 2.44772 14 3 14C3.55229 14 4 14.4477 4 15L4 19.5C4 19.7761 4.22386 20 4.5 20H9Z" fill="#381FD1"></path></svg>