<svg width="24" height="24" viewBox="0 0 24 24" fill="none" xmlns="http://www.w3.org/2000/svg"><circle cx="12" cy="12" r="10" fill="#CCC5F6"></circle><path d="M18.9756 1.92747C18.657 0.971507 17.4437 0.685079 16.7312 1.39762L13.8812 4.24771C13.2711 4.85782 12.9284 5.68531 12.9284 6.54814V9.53831L11.0772 11.3896C10.6537 11.813 10.6537 12.4997 11.0772 12.9232C11.5007 13.3467 12.1873 13.3467 12.6108 12.9232L14.462 11.0719H17.452C18.3148 11.0719 19.1423 10.7292 19.7524 10.1191L22.6024 7.26897C23.3149 6.55643 23.0285 5.34314 22.0726 5.02448L19.7499 4.25023L18.9756 1.92747Z" fill="#381FD1"></path><path d="M3.1688 12.1557C3.1688 7.36435 7.05281 3.48022 11.844 3.48022C12.4429 3.48022 12.9284 2.9947 12.9284 2.39578C12.9284 1.79687 12.4429 1.31135 11.844 1.31135C5.85502 1.31135 1 6.16652 1 12.1557C1 18.1448 5.85502 23 11.844 23C17.833 23 22.688 18.1448 22.688 12.1557C22.688 11.5568 22.2025 11.0712 21.6036 11.0712C21.0047 11.0712 20.5192 11.5568 20.5192 12.1557C20.5192 16.947 16.6352 20.8311 11.844 20.8311C7.05281 20.8311 3.1688 16.947 3.1688 12.1557Z" fill="#381FD1"></path><path d="M10.5423 8.01622C11.1137 7.83675 11.4314 7.22806 11.252 6.65666C11.0725 6.08527 10.4638 5.76755 9.89245 5.94701C7.25372 6.77581 5.33759 9.24049 5.33759 12.1555C5.33759 15.749 8.25061 18.6621 11.844 18.6621C14.7591 18.6621 17.2237 16.7458 18.0524 14.1069C18.2319 13.5355 17.9141 12.9268 17.3427 12.7473C16.7713 12.5679 16.1627 12.8857 15.9832 13.4571C15.4303 15.218 13.7846 16.4933 11.844 16.4933C9.4484 16.4933 7.50639 14.5512 7.50639 12.1555C7.50639 10.2149 8.78154 8.56926 10.5423 8.01622Z" fill="#381FD1"></path></svg>