<svg width="24" height="24" viewBox="0 0 24 24" fill="none" xmlns="http://www.w3.org/2000/svg"><g clip-path="url(#clip0_816_23936)"><circle cx="12" cy="12" r="10" fill="#CCC5F6"></circle><circle cx="12" cy="12" r="11" stroke="#381FD1" stroke-width="2"></circle><path d="M13.8748 6.85712C13.8748 7.88278 13.0354 8.71424 11.9999 8.71424C10.9644 8.71424 10.1249 7.88278 10.1249 6.85712C10.1249 5.83146 10.9644 5 11.9999 5C13.0354 5 13.8748 5.83146 13.8748 6.85712Z" fill="#381FD1"></path><path d="M8.44265 10.0384L8.42513 10.0361L8.42021 10.0354C7.73634 9.94239 7.10577 10.416 7.01178 11.0934C6.91778 11.7708 7.39684 12.3956 8.08074 12.4887L8.0882 12.4897L8.10934 12.4925C8.97124 12.6059 9.83676 12.6984 10.7042 12.7582C10.6398 13.4098 10.5078 13.977 10.3031 14.4966C9.9866 15.2999 9.46749 16.0623 8.6264 16.8765C8.13269 17.3544 8.12362 18.1383 8.60613 18.6273C9.08864 19.1163 9.88002 19.1253 10.3737 18.6474C11.0588 17.9841 11.6162 17.3036 12.0514 16.5755C12.4462 17.2703 12.951 17.9448 13.5939 18.6148C14.0694 19.1105 14.8606 19.1304 15.361 18.6594C15.8614 18.1883 15.8815 17.4047 15.406 16.909C14.1849 15.6364 13.618 14.3871 13.373 12.7528C14.2145 12.6926 15.0542 12.6025 15.8906 12.4925L15.9117 12.4897L15.92 12.4886C16.6039 12.3955 17.0822 11.7709 16.9882 11.0935C16.8943 10.4161 16.2628 9.94252 15.579 10.0355L15.5749 10.0361L15.5574 10.0384C14.3801 10.1932 13.1877 10.3334 11.9996 10.3334C10.8081 10.3334 9.62197 10.1936 8.44265 10.0384Z" fill="#381FD1"></path></g><defs><clipPath id="clip0_816_23936"><rect width="24" height="24" fill="white"></rect></clipPath></defs></svg>